<?xml version="1.0" encoding="UTF-8" standalone="no"?>
<!-- Created with Inkscape (http://www.inkscape.org/) -->

<svg
   xmlns:dc="http://purl.org/dc/elements/1.1/"
   xmlns:cc="http://creativecommons.org/ns#"
   xmlns:rdf="http://www.w3.org/1999/02/22-rdf-syntax-ns#"
   xmlns:svg="http://www.w3.org/2000/svg"
   xmlns="http://www.w3.org/2000/svg"
   xmlns:xlink="http://www.w3.org/1999/xlink"
   xmlns:sodipodi="http://sodipodi.sourceforge.net/DTD/sodipodi-0.dtd"
   xmlns:inkscape="http://www.inkscape.org/namespaces/inkscape"
   width="297mm"
   height="210mm"
   viewBox="0 0 297 210"
   version="1.1"
   id="svg8"
   inkscape:version="0.92.3 (2405546, 2018-03-11)"
   sodipodi:docname="sticker.svg">
  <defs
     id="defs2">
    <circle
       style="fill:none;fill-opacity:1;stroke:none;stroke-width:0.69741321;stroke-miterlimit:4;stroke-dasharray:none;stroke-opacity:1"
       id="path4776-3"
       cx="55.3074"
       cy="-229.03575"
       r="87.78067"
       transform="rotate(131.20508)" />
  </defs>
  <sodipodi:namedview
     id="base"
     pagecolor="#ffffff"
     bordercolor="#666666"
     borderopacity="1.0"
     inkscape:pageopacity="0.0"
     inkscape:pageshadow="2"
     inkscape:zoom="0.49497475"
     inkscape:cx="1181.4519"
     inkscape:cy="568.44174"
     inkscape:document-units="mm"
     inkscape:current-layer="layer2"
     showgrid="false"
     showguides="false"
     inkscape:window-width="1920"
     inkscape:window-height="1137"
     inkscape:window-x="1912"
     inkscape:window-y="-8"
     inkscape:window-maximized="1" />
  <metadata
     id="metadata5">
    <rdf:RDF>
      <cc:Work
         rdf:about="">
        <dc:format>image/svg+xml</dc:format>
        <dc:type
           rdf:resource="http://purl.org/dc/dcmitype/StillImage" />
        <dc:title />
      </cc:Work>
    </rdf:RDF>
  </metadata>
  <g
     inkscape:label="Layer 1"
     inkscape:groupmode="layer"
     id="layer1"
     transform="translate(0,-87)">
    <circle
       style="fill:#fcff73;fill-opacity:1;stroke:#000000;stroke-width:0.48332855;stroke-miterlimit:4;stroke-dasharray:none;stroke-opacity:1"
       id="path4878"
       cx="93.821014"
       cy="-217.45032"
       transform="rotate(121.26231)"
       r="103.85992" />
    <flowRoot
       xml:space="preserve"
       id="flowRoot4768"
       style="fill:black;fill-opacity:1;stroke:none;font-family:sans-serif;font-style:normal;font-weight:normal;font-size:40px;line-height:1.25;letter-spacing:0px;word-spacing:0px"><flowRegion
         id="flowRegion4770"><rect
           id="rect4772"
           width="1624.2858"
           height="427.14285"
           x="-117.14286"
           y="275.12936" /></flowRegion><flowPara
         id="flowPara4774" /></flowRoot>    <circle
       style="fill:none;fill-opacity:1;stroke:none;stroke-width:0.69741321;stroke-miterlimit:4;stroke-dasharray:none;stroke-opacity:1"
       id="path4776"
       cx="55.3074"
       cy="-229.03575"
       r="87.78067"
       transform="rotate(131.20508)" />
    <text
       xml:space="preserve"
       style="font-style:normal;font-weight:normal;font-size:10.58333302px;line-height:1.25;font-family:sans-serif;letter-spacing:0px;word-spacing:0px;fill:#000000;fill-opacity:1;stroke:none;stroke-width:0.26458332"
       id="text4785"
       x="1.5119047"
       y="17.008928"
       transform="rotate(46.202852,136.97522,194.09489)"><textPath
         xlink:href="#path4776"
         id="textPath4787"><tspan
   style="fill:#000000;fill-opacity:1;stroke-width:0.26458332"
   id="tspan4781"
   y="143.22792"
   x="20.854984">Sie sind infiziert! Bitte melden Sie sich im Raum 116       </tspan></textPath></text>
    <rect
       style="fill:none;fill-opacity:1;stroke:#000000;stroke-width:0.5581615;stroke-miterlimit:4;stroke-dasharray:none;stroke-opacity:1"
       id="rect4876"
       width="67.46875"
       height="23.8125"
       x="101.3569"
       y="244.32607"
       ry="1.8737839" />
    <text
       xml:space="preserve"
       style="font-style:normal;font-weight:normal;font-size:10.58333302px;line-height:1.25;font-family:sans-serif;letter-spacing:0px;word-spacing:0px;fill:#000000;fill-opacity:1;stroke:none;stroke-width:0.26458332"
       x="359.07739"
       y="257.3125"
       id="text4886"><tspan
         sodipodi:role="line"
         id="tspan4884"
         x="359.07739"
         y="266.96799"
         style="stroke-width:0.26458332" /></text>
    <ellipse
       style="fill:none;fill-opacity:1;stroke:none;stroke-width:0.76921844;stroke-miterlimit:4;stroke-dasharray:none;stroke-opacity:1"
       id="path4916"
       cx="-33.714458"
       cy="237.32933"
       transform="matrix(-0.90294308,0.42976016,0.44970104,0.89317914,0,0)"
       rx="95.897194"
       ry="94.257942" />
    <text
       xml:space="preserve"
       style="font-style:normal;font-weight:normal;font-size:10.58333302px;line-height:1.25;font-family:sans-serif;letter-spacing:0px;word-spacing:0px;fill:#000000;fill-opacity:1;stroke:none;stroke-width:0.26458332"
       id="text67"
       y="-0.52916664"
       transform="translate(0,-3.7041668)"><textPath
         xlink:href="#path4916"
         id="textPath69"
         style="font-size:10.58333302px"><tspan
   style="font-size:10.58333302px;stroke-width:0.26458332"
   id="tspan63"
   y="-483.86569"
   x="118.66769">You are infected! Please go to room 116</tspan></textPath></text>
  </g>
  <g
     inkscape:groupmode="layer"
     id="layer3"
     inkscape:label="biohazard"
     style="display:inline">
    <path
       style="fill:#ea0808;fill-opacity:1;stroke:none;stroke-width:0.11533946"
       d="m 101.3569,157.32607 c -9.866997,-1.52047 -18.364067,-6.25349 -24.541287,-13.6699 -0.44796,-0.53783 -0.78921,-1.01875 -0.75833,-1.06871 0.0309,-0.05 0.29911,-0.21478 0.59608,-0.36625 l 0.53993,-0.2754 1.15519,1.1711 c 4.34763,4.40753 9.91722,7.12602 16.22638,7.92003 1.70956,0.21514 6.167427,0.0923 7.647087,-0.2107 2.21907,-0.45444 3.93577,-0.90186 4.49824,-1.17238 0.12687,-0.061 0.63277,-0.26762 1.12422,-0.45911 3.22652,-1.25722 6.25565,-3.2731 8.91973,-5.93605 1.72641,-1.72568 2.56554,-2.76372 3.73656,-4.62232 1.28239,-2.03534 2.67623,-5.08837 3.15945,-6.92036 0.81033,-3.07213 1.01377,-4.61289 1.01277,-7.67008 -7.9e-4,-2.74409 -0.0866,-3.53902 -0.64685,-5.99765 -0.43969,-1.92968 -1.38931,-4.65478 -2.06991,-5.93998 -0.21502,-0.40603 -0.19161,-0.43322 0.85388,-0.99218 0.3489,-0.18654 0.94578,-0.542 1.3264,-0.78993 0.38062,-0.24792 0.79958,-0.45442 0.93102,-0.45889 0.13613,-0.005 0.58291,0.29438 1.03806,0.6947 0.9945,0.87472 2.37406,1.5678 3.45993,1.73825 0.43988,0.069 1.42395,0.0989 2.18836,0.0665 1.97813,-0.084 3.05784,-0.53628 4.66047,-1.95222 0.34571,-0.30543 0.69812,-0.55533 0.78314,-0.55533 0.1917,0 0.88795,0.35141 1.54884,0.78173 0.27481,0.17893 0.68988,0.42304 0.92239,0.54247 0.23251,0.11942 0.52979,0.29853 0.66063,0.39801 l 0.23788,0.18088 -0.35174,0.73672 c -1.36173,2.85204 -2.28668,6.44285 -2.52873,9.81685 -0.19195,2.6757 -0.0772,4.03533 0.70094,8.30444 0.085,0.46639 0.41438,1.47829 1.14506,3.51785 0.83838,2.34021 2.95129,5.76434 5.03204,8.15479 3.22593,3.70608 8.61632,6.91805 13.59685,8.10194 2.76953,0.65832 3.14576,0.69823 6.57435,0.69731 l 3.2295,-0.001 2.03443,-0.42248 c 5.39303,-1.11997 9.31321,-3.19292 13.66746,-7.22718 l 1.6019,-1.4842 0.54477,0.30024 c 0.29962,0.16513 0.54551,0.32796 0.54642,0.36183 0.001,0.0339 -0.32273,0.45174 -0.71921,0.92858 -1.99597,2.40051 -4.04998,4.36627 -6.35388,6.08091 -0.70805,0.52695 -1.46901,1.09759 -1.69104,1.26808 -1.06853,0.82053 -4.05559,2.48644 -5.99871,3.3455 -3.25182,1.43767 -5.98388,2.25603 -9.97581,2.98816 -1.67297,0.30682 -1.86337,0.31738 -5.76697,0.3193 -3.69001,0.002 -4.17563,-0.021 -5.65163,-0.26603 -4.24218,-0.70421 -7.73286,-1.79333 -11.32749,-3.53432 -1.90386,-0.92209 -4.54141,-2.46791 -5.56306,-3.2604 -0.35258,-0.27347 -0.97137,-0.73841 -1.37509,-1.03316 -0.85349,-0.62311 -0.59641,-0.69772 -2.50113,0.72581 -3.87682,2.89741 -8.87353,5.19527 -14.00808,6.44199 -3.19132,0.77488 -4.25529,0.8933 -8.41977,0.93704 -3.61366,0.038 -3.97965,0.0227 -5.65164,-0.2349 z m 16.14752,-20.52751 c -4.75391,-2.04591 -9.28116,-5.32163 -12.44422,-9.00409 -2.60543,-3.03326 -4.56192,-6.12801 -5.847307,-9.24921 -0.23013,-0.5588 -0.52003,-1.24127 -0.64424,-1.5166 -0.29349,-0.65061 -1.4133,-4.58677 -1.58027,-5.55472 -0.64412,-3.73391 -0.77675,-8.96192 -0.28921,-11.39963 l 0.073,-0.364993 h 1.30399 c 1.76533,0 4.592277,0.382923 6.183267,0.837563 1.3017,0.37198 1.3073,0.37509 1.29195,0.71957 -0.008,0.19028 -0.0732,1.11366 -0.14386,2.05196 -0.38261,5.08141 1.12277,10.77772 4.05749,15.35349 1.17159,1.82673 2.28141,3.17193 3.91725,4.74807 2.05219,1.9773 4.39738,3.59281 6.89031,4.74649 1.30618,0.60446 1.3261,0.6195 1.30667,0.98597 -0.0624,1.17726 -1.45969,5.07094 -2.35036,6.54973 -0.25065,0.41615 -0.45688,0.80542 -0.45829,0.86505 -0.001,0.0596 -0.0922,0.21983 -0.20184,0.35602 l -0.19928,0.24762 z m 26.21057,-0.0275 c -0.39713,-0.56164 -1.29351,-2.43491 -1.88911,-3.94793 -0.59114,-1.50165 -1.19482,-3.74805 -1.06408,-3.95959 0.0409,-0.0662 0.60043,-0.36852 1.24335,-0.67178 3.28445,-1.54927 5.45264,-3.17577 8.3843,-6.28959 1.92898,-2.04883 3.755,-5.00224 4.84304,-7.83309 0.68997,-1.79517 1.39586,-4.64877 1.60847,-6.50233 0.11812,-1.02974 0.0978,-5.24683 -0.0306,-6.35207 -0.0307,-0.26446 0.0442,-0.30574 1.1798,-0.64978 1.64969,-0.4998 3.38093,-0.751467 5.66658,-0.823745 l 1.91961,-0.0607 0.0698,0.331625 c 0.28215,1.33966 0.39565,6.16862 0.18807,8.00168 -0.44147,3.89854 -1.01009,6.25363 -2.3253,9.63085 -0.84374,2.16659 -2.56891,5.41901 -3.64015,6.86269 -2.94845,3.97358 -4.67059,5.74843 -7.97259,8.21656 -1.85953,1.38994 -3.32334,2.27331 -5.61456,3.38825 -2.17487,1.05835 -2.26742,1.08209 -2.56663,0.65895 z m -73.128527,-3.64315 c -0.3241,-0.68948 -1.44163,-4.3086 -1.73593,-5.62178 -1.2291,-5.48429 -1.20872,-11.94856 0.0546,-17.30092 2.12414,-8.99984 7.24266,-16.745225 14.84085,-22.457285 2.08886,-1.570329 5.97698,-3.741111 8.32614,-4.64856 0.99449,-0.38417 0.96136,-0.327679 0.79281,-1.35169 -0.30849,-1.874269 -0.43946,-5.198758 -0.29545,-7.499729 0.12507,-1.99836 0.50909,-4.936781 0.82526,-6.314662 0.6251,-2.724189 1.90786,-6.304619 3.13779,-8.758199 0.92057,-1.83647 1.08589,-2.1187 2.47038,-4.21749 3.015777,-4.57168 7.139237,-8.54013 12.121887,-11.66618 0.83127,-0.52153 3.77766,-2.01438 5.16861,-2.61878 1.79136,-0.77839 4.8817,-1.71579 7.05861,-2.14112 2.92134,-0.57077 2.6236,-0.59145 2.66428,0.18503 0.0411,0.78366 0.0332,0.78985 -1.35218,1.06743 -2.76246,0.5535 -7.02885,2.57772 -9.81246,4.65559 -1.04256,0.77824 -4.21341,3.9159 -5.09271,5.03941 -0.815,1.04134 -1.95366,2.82397 -2.64863,4.14654 -0.61663,1.17349 -1.64158,3.71544 -1.8858,4.67693 -0.99253,3.90751 -1.14685,4.95047 -1.1434,7.727742 0.003,2.506329 0.20136,4.039108 0.87056,6.730648 1.32499,5.32911 4.58003,10.568871 8.63194,13.89512 2.30617,1.89316 3.92508,2.933771 6.20675,3.989591 2.54513,1.17774 4.94074,1.872319 7.57562,2.19647 0.82467,0.10146 1.72,0.212051 1.9896,0.245769 l 0.4902,0.0613 v 1.999869 1.999869 l -0.60554,0.14434 c -0.83837,0.19984 -1.40364,0.45747 -2.27795,1.038231 -1.41047,0.9369 -2.57862,2.421596 -3.12226,3.968346 -0.39401,1.12103 -0.4128,3.33055 -0.0418,4.91753 0.0654,0.27961 -0.008,0.34356 -1.1223,0.97393 -0.65573,0.37107 -1.37298,0.79435 -1.59387,0.94064 -0.2209,0.14628 -0.45987,0.26597 -0.53105,0.26597 -0.0712,0 -0.625,-0.66176 -1.2307,-1.47058 -1.96811,-2.62805 -3.82648,-4.39679 -6.54475,-6.22904 -3.54313,-2.388256 -7.7747,-3.983146 -11.76463,-4.434107 -2.694537,-0.304559 -7.312077,-0.0901 -9.397837,0.436491 -2.60253,0.65705 -5.90539,1.974429 -7.48736,2.986396 -0.34942,0.22352 -0.66954,0.4064 -0.71139,0.4064 -0.0418,0 -0.57634,0.34565 -1.18777,0.7681 -2.1741,1.50215 -5.16171,4.44745 -6.6495,6.55534 -2.60281,3.68762 -4.38302,8.33765 -4.79119,12.51495 -0.3436,3.51649 -0.0952,7.31319 0.65264,9.97686 0.60999,2.1726 0.6053,2.08956 0.12939,2.28841 -0.22095,0.0923 -0.43708,0.22505 -0.48029,0.29497 -0.14044,0.22725 -0.26604,0.13599 -0.50111,-0.36411 z m 120.302687,0.18665 c -0.26961,-0.16256 -0.49019,-0.364 -0.49019,-0.44764 0,-0.0836 0.18247,-0.78605 0.40551,-1.56091 1.13827,-3.95467 1.23735,-8.97803 0.26264,-13.31539 -0.32603,-1.45078 -1.14605,-3.85805 -1.70052,-4.9921 -0.25687,-0.52536 -0.46705,-0.97563 -0.46705,-1.00059 0,-0.10164 -1.44779,-2.58903 -1.8663,-3.20639 -1.59195,-2.34834 -4.7819,-5.516 -7.13017,-7.08035 -3.51099,-2.338916 -7.52052,-3.890723 -11.30327,-4.374704 -2.79553,-0.357661 -4.87367,-0.34212 -8.3071,0.0622 -1.84277,0.216979 -4.88889,1.191199 -7.23659,2.31444 -4.17,1.995094 -7.27929,4.539584 -10.03747,8.214154 -0.60711,0.80883 -1.14302,1.47059 -1.1909,1.47059 -0.0479,0 -0.82066,-0.42813 -1.71726,-0.95141 -1.50876,-0.88053 -1.62557,-0.9729 -1.56805,-1.23991 0.35714,-1.65789 0.36591,-3.47508 0.0228,-4.71603 -0.23904,-0.8645 -1.15871,-2.36901 -1.91444,-3.131896 -0.86852,-0.87674 -2.18306,-1.668169 -3.29665,-1.98477 l -0.91324,-0.259641 v -1.960258 -1.96025 l 0.46136,-0.0816 c 0.25375,-0.0449 1.16205,-0.165571 2.01844,-0.26819 1.96631,-0.23563 2.66829,-0.39353 4.67125,-1.050689 1.74643,-0.572993 3.97658,-1.553523 5.04989,-2.22028 2.86195,-1.777903 3.94972,-2.632192 5.91359,-4.644322 1.94228,-1.99 2.99671,-3.407029 4.40715,-5.9227 1.42626,-2.54389 2.62189,-6.155529 3.07861,-9.299631 0.23125,-1.5919 0.23623,-5.604299 0.009,-7.193909 -0.33731,-2.358979 -1.16172,-5.320639 -1.95845,-7.035709 -1.10654,-2.38195 -1.68524,-3.44236 -2.5807,-4.72892 -2.61337,-3.75468 -6.27607,-6.92919 -10.34677,-8.96763 -1.47219,-0.73722 -4.33483,-1.77154 -5.54256,-2.00263 -0.56568,-0.10824 -1.0934,-0.24678 -1.17269,-0.30786 -0.0863,-0.0665 -0.14417,-0.38219 -0.14417,-0.78609 v -0.67503 l 0.37485,0.0681 c 0.33325,0.0606 1.96042,0.38072 3.77737,0.74321 0.93964,0.18747 4.40241,1.33685 5.59396,1.85679 1.72272,0.75171 4.1162,1.95403 4.72892,2.37549 0.31718,0.21817 0.6805,0.43901 0.80737,0.49075 0.39584,0.16143 2.62884,1.74127 3.82064,2.70311 1.66059,1.34017 4.14698,3.81271 5.62884,5.59749 1.62885,1.96181 3.42921,4.62827 4.24423,6.286 0.15594,0.31718 0.52531,1.05337 0.82081,1.63598 0.2955,0.58261 0.53728,1.10743 0.53728,1.16628 0,0.0588 0.16127,0.46269 0.35839,0.89743 0.63618,1.40307 1.8777,5.447999 2.06652,6.73285 0.0517,0.35202 0.17736,1.10717 0.27918,1.678101 0.56016,3.14097 0.65742,7.56452 0.23555,10.71272 -0.10099,0.753618 -0.16792,1.472499 -0.14873,1.59752 0.0252,0.164478 0.28991,0.330809 0.95761,0.601829 4.08246,1.657051 7.86123,4.049411 11.41861,7.229189 4.79281,4.284073 9.03584,10.917156 10.83638,16.940386 0.84251,2.81839 1.12207,4.1168 1.52726,7.09338 0.27014,1.98456 0.27272,7.34562 0.004,9.16948 -0.47362,3.21922 -0.72921,4.40322 -1.46906,6.80503 -0.64123,2.0817 -1.09269,3.23661 -1.26064,3.22501 -0.0358,-0.002 -0.28574,-0.13751 -0.55534,-0.30006 z M 147.04586,84.444345 c -0.22009,-0.265189 -1.69192,-1.252738 -2.95569,-1.98316 -2.34496,-1.35531 -4.99447,-2.351199 -8.17774,-3.0738 -0.86904,-0.197279 -1.57477,-0.247801 -4.10591,-0.293931 -3.79545,-0.0692 -4.61979,0.0303 -7.90396,0.954252 -1.3368,0.376071 -1.76942,0.529061 -2.76494,0.977781 -0.25375,0.114379 -0.77278,0.344979 -1.1534,0.512447 -0.90529,0.398331 -2.00391,1.04344 -3.6193,2.125261 l -1.31251,0.87898 -1.55415,-1.611231 c -1.48247,-1.536919 -2.63256,-3.016419 -3.32011,-4.271089 -0.17382,-0.31718 -0.38716,-0.65863 -0.47409,-0.75878 -0.0869,-0.100161 -0.15806,-0.239451 -0.15806,-0.309539 0,-0.145081 1.96135,-1.58247 3.32814,-2.439061 1.37836,-0.863841 3.37776,-1.892139 4.86096,-2.50003 1.53229,-0.627999 4.91225,-1.716479 5.86518,-1.88882 5.32555,-0.963129 8.47475,-1.04639 13.05049,-0.34503 4.27899,0.65586 8.5777,2.206691 12.39899,4.47312 0.80579,0.477919 3.60384,2.41627 3.69062,2.556671 0.0739,0.119571 -0.9337,1.875129 -1.58671,2.764571 -0.75344,1.026239 -2.04401,2.505389 -3.05348,3.499627 -0.77122,0.759593 -0.9362,0.874102 -1.05433,0.731761 z"
       id="path4874"
       inkscape:connector-curvature="0" />
  </g>
  <g
     inkscape:groupmode="layer"
     id="layer2"
     inkscape:label="Layer 2"
     style="display:none">
    <path
       style="fill:#000000;fill-opacity:1;stroke:#000000;stroke-width:0.0812564;stroke-opacity:1"
       d="m 168.36062,11.930038 c -0.0886,0.0122 -0.20627,0.101023 -0.34047,0.326541 0.6087,0.288563 0.60618,-0.363216 0.34047,-0.326541 z m -26.21575,17.803253 c -2.30395,-0.03667 -4.66291,0.70738 -6.64696,2.378867 -6.59992,3.073818 -2.90654,9.595216 1.63677,11.77437 0.48036,6.715992 0.16684,14.434507 -8.5936,13.487253 -8.18477,5.916509 -9.37052,-7.236113 -12.95344,-11.987766 0.9853,-8.179268 -9.35077,-14.187415 -13.28984,-4.990471 -2.581411,6.16024 2.28986,11.624235 7.98573,11.277597 1.50663,5.267435 7.91164,11.704887 1.37037,14.272697 -4.57322,5.987112 -10.0211,5.353638 -12.887769,0.96355 4.066179,-7.729069 -2.58906,-10.774402 -7.480216,-9.25018 -5.486672,1.316228 -8.12594,7.341824 -7.347948,12.619423 0.383421,8.027366 9.739361,6.003434 14.650348,9.239892 1.610785,5.121381 -3.099291,13.123217 -9.735633,13.046537 -1.491505,0.63364 -3.436951,0.82391 -4.993541,1.52532 -0.525566,0.45763 -2.115006,0.69049 -2.757948,-0.41435 -3.449928,-5.83075 -11.129661,-4.2077 -12.00861,1.92539 -0.126155,1.32008 -0.83186,2.486 -0.919465,3.81278 -0.286464,4.31053 7.003443,8.31776 9.747194,7.614 2.490494,0.79351 14.179657,-1.99342 17.45258,-3.193 -0.01054,0.18001 0.04672,0.3894 0.158001,0.57832 0.138867,0.23493 0.343766,0.40838 0.54231,0.45905 0.431529,2.12104 1.856355,5.88008 3.858988,7.6089 5.300459,5.27782 -3.817401,9.86093 -3.673464,15.85048 -8.102116,-3.35166 -7.488646,7.68967 -2.892282,11.85593 2.901891,4.8384 15.370135,6.98698 19.144055,0.75501 2.0559,-5.35757 -2.08691,-9.65656 3.66123,-13.91437 3.84118,-6.56106 11.82887,1.68333 17.84301,0.53381 0.90629,5.20236 8.74766,9.36549 2.88039,13.89704 1.36349,6.89703 10.01225,6.66877 15.23682,4.86272 6.61465,-1.10324 8.35726,-11.73006 0.0629,-11.87971 -5.75259,-3.40917 -7.30911,-13.95554 1.33469,-14.53924 6.88324,-6.31135 9.12258,5.30449 12.31973,9.0282 6.44251,4.72463 15.12506,0.0971 18.50561,-6.20013 4.23627,-6.76242 -4.39798,-10.06045 -9.63032,-9.19402 -3.78582,-3.49501 -7.87534,-6.86875 -2.21983,-10.89262 2.0037,-3.97923 3.30754,-8.54316 8.64389,-5.92321 4.21838,1.51909 6.83976,7.67838 12.79442,4.85186 5.19538,-1.30019 6.81974,-11.74787 0.0113,-12.01631 -5.38909,2.48256 -10.76405,3.02749 -16.73224,0.54876 -3.44265,-2.309337 -5.64069,-9.466799 0.68807,-11.002372 4.98177,-1.80038 13.65734,-1.223429 12.281,-9.457693 -0.86386,-9.471633 -11.73801,-3.474091 -12.62249,2.145433 -5.38365,3.088969 -10.53404,5.008212 -14.36085,-1.343187 -5.46911,-1.664334 2.0264,-7.855823 4.36086,-10.429491 9.54765,-3.383971 10.27448,-11.760754 4.00475,-16.889554 -1.60142,-1.048458 -3.0502,-1.499437 -4.35473,-1.498815 -5.11783,0.0025 -8.01896,6.951692 -9.23615,12.010867 -3.91881,1.73161 -4.1317,7.93094 -5.66123,9.028537 -6.71079,-2.212228 -10.7245,-6.54162 -9.06115,-13.814126 -0.51763,-1.196586 -0.71248,-2.120059 -0.666,-2.843355 -0.75846,5.380207 -2.53315,13.195098 3.98811,14.784563 3.08797,0.890233 8.95583,6.699936 8.04722,-0.314642 2.39641,-4.58537 6.31508,-8.657256 7.38159,-14.342164 3.34387,-7.037836 13.37863,-2.025674 12.03975,4.849472 -0.40225,7.151089 -5.93621,3.886528 -12.29351,13.859928 -2.89139,2.778277 -3.65199,5.422972 0.89474,6.903566 2.47974,4.602006 8.65629,5.026815 13.03672,2.515204 4.78897,-1.864794 4.42491,-9.672093 11.46771,-8.182206 6.24158,5.340934 -2.50474,13.654739 -8.4108,10.009171 -1.03908,4.120734 -10.77402,4.609143 -5.19741,10.171928 1.25732,3.469586 0.45261,7.096586 5.08597,5.404686 5.5983,3.09831 10.35148,1.43821 15.45055,-0.79035 10.01741,3.46299 -4.62364,16.5943 -8.81958,6.95718 -3.04807,-3.46107 -12.90225,-5.66809 -12.44409,2.02277 -3.77688,4.72027 -7.66906,9.00525 -0.30649,12.85049 1.42813,6.86426 9.24219,-1.489 11.53652,5.52972 0.0207,7.19011 -8.70261,13.87372 -15.75772,11.18586 -4.08297,-4.09797 -2.65556,-4.17534 -4.98723,-7.22493 -3.65116,-4.53614 -2.63105,-4.76221 -5.25503,-6.64357 -2.86406,4.83135 -14.12852,3.02737 -11.74006,10.60008 0.47739,3.29509 3.67295,7.5286 2.351,9.45938 7.25817,-3.12207 11.80436,7.84648 2.72137,9.9147 -6.47653,3.85445 -17.27035,-1.56166 -10.53074,-8.3391 -4.34494,-5.45292 -5.31105,-12.34807 -13.53516,-11.89126 -5.29979,-1.14921 -10.39267,-4.64873 -13.11382,1.99049 -1.37391,2.51749 -6.66636,8.31334 -2.04927,8.05979 1.80827,8.49425 -7.82477,10.07861 -13.811418,7.27863 -4.661356,-1.2056 -12.595391,-14.12586 -3.277265,-13.58103 4.493383,5.04443 1.731328,-5.6375 5.328913,-7.38735 6.49354,-5.01069 -1.323565,-10.01307 -2.491674,-15.22766 -0.823148,-1.93313 -1.367059,-2.83898 -1.67074,-3.04927 -0.0041,-0.0226 -0.03054,-0.0405 -0.0809,-0.053 -0.01046,0.002 -0.02282,0.003 -0.03327,0.005 -0.02116,-0.002 -0.04107,-1.8e-4 -0.0585,0.008 -4.653755,0.59544 -13.619355,2.89845 -17.192303,2.88515 0.0097,-0.0286 0.02025,-0.0566 0.02821,-0.0867 -0.20865,0.027 -0.414727,0.044 -0.619095,0.0554 -0.240288,-0.0262 -0.443577,-0.0684 -0.594294,-0.13285 -0.03941,0.0495 -0.07219,0.0966 -0.101254,0.14236 -7.355814,-0.21055 -11.443133,-10.32736 -4.491002,-14.50322 4.076491,-3.298555 6.59357,3.77743 8.172614,3.64255 0.210267,0.096 0.458952,0.1638 0.726124,0.19809 -0.0017,0.002 -0.0041,0.005 -0.005,0.007 0.01784,3.5e-4 0.03618,-5.2e-4 0.05402,-3.5e-4 0.117982,0.0136 0.238222,0.0205 0.35881,0.0207 0.194294,-5.2e-4 0.387071,-0.0185 0.570512,-0.0534 C 87.711276,95.14556 92.04972,94.0094 95.606675,91.8764 94.723854,94.78482 106.34415,77.999671 95.209606,76.957028 93.927981,75.743101 86.476679,76.786763 85.3537,71.483483 82.438755,64.814995 89.63514,55.157282 96.75872,59.357431 c 6.1429,2.239659 -2.690287,7.489229 2.164791,10.222559 3.213329,1.026486 5.832319,4.740052 11.661719,0.04738 2.20452,-5.816672 6.6118,-2.389604 4.70593,-9.8982 -3.5724,-3.61797 -2.78921,-12.625854 -9.0615,-9.536519 -7.492826,-3.013081 -2.15593,-17.403179 5.33639,-12.578998 2.84977,2.729446 2.93621,7.139314 1.66055,8.767579 5.49347,0.552159 4.34485,12.719442 10.48861,13.588848 5.60992,-1.251656 15.53255,-1.383106 14.32823,-9.515112 0.43035,-5.414491 -0.0319,-8.961783 -5.05232,-11.213042 -1.55439,-7.333278 10.66062,-11.561962 15.07848,-6.162763 5.34542,4.967322 1.44158,10.732699 -5.25145,9.364595 0.096,0.825405 0.002,1.91136 -0.16309,3.144065 0.84453,-3.798839 9.51247,-1.149813 9.25688,-7.070669 -0.5624,-5.360633 -5.04896,-8.708784 -9.76657,-8.783893 z m 0.50968,15.854562 c -0.0294,0.132353 -0.0505,0.272026 -0.0602,0.420668 0.0196,-0.138934 0.0421,-0.285145 0.0602,-0.420668 z m 70.47533,-0.629625 c -0.0717,-0.0017 -0.17775,0.02929 -0.32687,0.114846 0.30057,0.516554 0.6376,-0.10732 0.32687,-0.114846 z m -86.2932,20.972127 c -0.3244,0.02896 -0.6649,0.339253 -0.93882,1.135574 3.04768,2.24692 2.09742,-1.23887 0.93882,-1.135574 z m 22.12606,11.1264 c -3.75734,0.245881 -6.65391,4.019587 -7.84744,7.595297 0.68145,2.751011 4.61612,-11.255899 11.09141,-4.090721 2.15619,2.296464 -0.58258,12.564029 3.76078,9.957859 -1.4269,-4.408533 -0.51014,-11.961977 -7.00475,-13.462435 z m -25.74515,0.88786 c -1.90751,0.01925 -3.90838,1.064166 -5.59938,3.514442 -0.24337,-0.429124 -1.89625,3.900467 -1.8899,5.686028 1.63153,3.658795 2.55209,-8.318659 6.99965,-8.181102 8.74619,0.404595 4.42594,11.998917 7.44138,9.700304 0.99098,-5.840462 -2.7552,-10.762023 -6.95175,-10.719672 z M 165.66235,89.6157 c -0.029,-0.003 -0.059,-0.003 -0.09,3.5e-4 -0.22942,0.0248 -0.51518,0.2317 -0.84915,0.7336 1.72416,2.39125 1.83758,-0.64016 0.93918,-0.73395 z m -3.89397,5.67753 c -0.027,-0.002 -0.0544,-0.002 -0.0822,0.002 -0.2487,0.0295 -0.52713,0.28639 -0.78526,0.93374 2.11129,1.69865 1.70261,-0.86919 0.86749,-0.93545 z m -36.22458,0.0938 c -3.6951,-0.006 -8.5525,1.35125 -8.07849,5.93272 0.34649,6.50184 4.44529,14.15591 11.64933,14.94257 8.18186,0.78389 16.12868,-2.39645 23.15561,-6.23207 5.55337,-4.67347 0.58601,-15.75104 -7.00985,-13.10499 -6.3916,0.37726 -12.87712,0.66373 -18.9949,-1.51954 -0.23408,-0.012 -0.47537,-0.0183 -0.7217,-0.0187 z m 2.79815,0.95345 c 2.29479,-0.0115 5.08625,3.88988 0.68876,5.52021 -1.06278,0.07 -1.97662,-3.28277 -2.43867,-4.22358 0.3886,-0.91964 1.04559,-1.29307 1.74991,-1.29663 z m -5.53244,0.45736 c 1.82333,-0.0178 3.60537,1.29061 3.87666,4.23718 1.96843,4.69541 5.11896,-2.49931 6.74243,1.53345 0.62253,0.20098 1.03556,0.30163 1.30242,0.32859 0.11487,0.15314 0.64363,0.16463 1.23512,0.0268 0.38566,-0.09 0.73401,-0.22926 0.93239,-0.37275 1.48348,-0.22526 4.80651,-1.01019 5.62282,0.94291 4.25375,-0.34128 5.7624,-9.7767 9.65783,-3.48827 4.42299,6.12157 -1.9867,10.99367 -7.41827,12.50084 -4.14352,-1.86267 -10.8871,-8.20853 -16.83417,-3.31872 -6.13182,6.4077 -8.41168,-1.42592 -9.31669,-7.07781 -0.26191,-3.33709 1.99888,-5.29068 4.19946,-5.31226 z m -17.15663,0.20692 c -0.68177,0.0198 -1.58252,0.80636 -2.17364,3.10263 3.97794,-0.3835 3.47518,-3.14043 2.17364,-3.10263 z m 36.47568,0.81279 c 3.32449,-0.016 5.6297,0.59735 1.87121,3.80462 -2.23155,1.3979 -4.52904,-0.48038 -5.83281,-0.99117 0.11488,-0.31842 0.17972,-0.75583 0.17975,-1.21271 -1.8e-4,-0.56933 -0.10084,-1.10019 -0.26775,-1.41251 1.30809,-0.0811 2.75207,-0.18201 4.0496,-0.18823 z m -4.72001,0.22766 c -0.15541,0.31702 -0.24775,0.82816 -0.24805,1.37308 1.1e-4,0.45095 0.0633,0.8831 0.17567,1.20048 -0.17318,0.15426 -0.26163,0.48309 -0.24635,1.06728 -0.26009,0.18683 -0.45215,0.33538 -0.597,0.45804 -0.20642,0.006 -0.44596,0.0391 -0.68637,0.0951 -0.29743,0.0695 -0.57606,0.16918 -0.77983,0.27896 -0.65976,-1.08127 -4.51156,-4.07368 -0.13116,-4.4458 0.59393,0.0619 1.49041,0.0305 2.51309,-0.0271 z m -28.422,10.30411 c -0.4371,-0.0261 -1.09234,0.49256 -1.98607,2.00577 2.51441,3.97664 3.41392,-1.92061 1.98607,-2.00577 z m 25.14949,0.0448 c 1.98543,0.0188 3.93709,0.54877 5.51784,1.65987 7.27246,4.92877 -5.79897,5.25786 -9.57458,5.37275 -1.63538,-0.49113 -4.81931,0.22705 -5.33741,-2.03126 1.69055,-3.20901 5.60377,-5.03716 9.39415,-5.00136 z m -6.67856,12.12164 c -0.49339,-0.009 -1.16126,0.24566 -1.94155,0.99287 3.33211,1.42935 3.42175,-0.9665 1.94155,-0.99287 z"
       id="path4769"
       inkscape:connector-curvature="0"
       sodipodi:nodetypes="ccccccccccccccccccccccccccccccccccccccccccccccccscccccccccccccccccccccccccccccccccccccccccccccccccccccccccccccccccccsccccscscscscccsccccscccccccccccccccccccsccccccccccsccccccccsccccccccccccccccscccccc" />
    <path
       style="fill:#ffffff;fill-opacity:1;stroke:#000000;stroke-width:3.81789947;stroke-miterlimit:4;stroke-dasharray:none;stroke-opacity:1"
       d="m 538.72132,550.42472 c -13.29625,-7.35389 -16.5627,-16.97963 -9.01719,-26.57222 l 4.11482,-5.23112 -11.69096,-17.73323 c -12.51987,-18.99056 -20.90638,-26.15727 -32.62484,-27.87964 -4.04271,-0.59419 -12.95442,-2.43461 -19.8038,-4.0898 -15.6399,-3.77949 -24.88816,-3.81866 -30.15767,-0.12769 -4.65738,3.26211 -23.04882,33.42957 -23.04882,37.80692 0,1.57301 1.73971,4.34964 3.86603,6.17023 3.18392,2.72616 3.57203,4.61371 2.19975,10.69823 -0.91645,4.06342 -3.22066,9.10561 -5.12047,11.20489 -8.31077,9.1833 -31.15281,10.24364 -46.95911,2.17987 -15.47094,-7.89268 -29.73555,-31.3956 -25.15565,-41.44739 2.92626,-6.42242 11.87989,-8.53154 16.90653,-3.9825 5.21516,4.71965 7.30801,2.11303 10.00135,-12.4566 1.74937,-9.46321 3.89393,-13.82688 10.10901,-20.56945 9.72303,-10.54826 10.05579,-16.34591 1.78482,-31.09728 -3.35708,-5.98738 -8.72598,-16.46151 -11.93089,-23.27582 -3.20492,-6.81432 -6.61734,-12.87805 -7.58316,-13.47497 -0.96582,-0.5969 -13.09821,1.04759 -26.96087,3.65443 -42.2883,7.95225 -51.62877,7.61879 -62.53283,-2.23238 -13.91879,-12.57478 -14.96489,-28.18392 -2.71014,-40.43866 8.89253,-8.89254 14.66759,-8.79021 23.20827,0.41123 3.70157,3.98794 8.77965,8.05807 11.28463,9.04472 6.3177,2.48839 33.08433,-2.48899 47.23656,-8.78386 10.39875,-4.62533 11.93221,-6.17629 17.7025,-17.90459 11.82691,-24.03853 8.59094,-39.46017 -9.23584,-44.01512 -35.84915,-9.15986 -40.05467,-12.67045 -40.05467,-33.43586 0,-11.26682 0.74411,-13.72427 6.22555,-20.55998 12.65698,-15.78406 29.24638,-18.94241 40.48175,-7.70705 4.70995,4.70996 4.75399,5.05356 1.64384,12.82659 -5.24996,13.12094 -3.44934,18.58812 8.2174,24.95032 6.5258,3.55871 13.20933,5.52535 18.88118,5.55584 8.5558,0.046 20.51477,-5.03803 20.51477,-8.72127 0,-1.01 4.54568,-6.24081 10.10152,-11.62401 11.88554,-11.51622 12.64022,-16.28701 4.88184,-30.8611 -2.87083,-5.39284 -6.53132,-13.5227 -8.13442,-18.06637 -4.38971,-12.44176 -8.35426,-15.87904 -17.54914,-15.21514 -19.54007,1.41083 -25.85699,-26.06573 -9.57814,-41.66185 7.57411,-7.25647 16.31981,-7.6481 23.34794,-1.04551 6.49743,6.10402 9.80992,17.91035 7.05678,25.15167 -2.61031,6.86563 -2.58481,7.13643 0.67217,7.13643 4.61495,0 9.17321,6.75449 17.04297,25.2545 4.7378,11.13748 9.61411,19.31409 13.04683,21.87699 5.09753,3.80586 6.43994,3.92053 19.16711,1.63725 20.91204,-3.75165 31.65146,-7.87039 38.10817,-14.61508 5.67168,-5.92465 5.88208,-6.84742 5.88208,-25.79697 0,-21.79939 -2.45887,-28.14591 -13.29254,-34.30901 -18.02526,-10.25431 10.09068,-38.17076 33.93781,-33.69701 3.77846,0.70884 10.42654,4.50198 14.77348,8.42919 14.29522,12.91487 12.4511,28.57957 -3.88227,32.97769 -4.32865,1.16558 -9.21528,1.60312 -10.85916,0.9723 -3.84194,-1.47429 -5.03448,4.07199 -6.76669,31.47024 -1.801,28.48638 -0.30022,31.36709 22.02348,42.27338 22.42604,10.95627 27.7055,10.5624 27.7055,-2.06692 0,-2.11851 4.92665,-11.81738 10.94809,-21.55305 6.02146,-9.73566 12.49727,-22.49616 14.39068,-28.35667 5.70073,-17.64502 18.41094,-23.36034 32.64691,-14.68014 8.0532,4.91032 12.74678,13.70886 12.6534,23.72004 -0.10405,11.1614 -3.75619,16.20798 -19.28145,26.64367 -9.02937,6.06931 -17.57944,14.19226 -24.52814,23.30284 -12.48504,16.36936 -13.72335,23.36345 -5.11121,28.86833 3.05571,1.9532 8.1037,6.0431 11.21778,9.08864 10.79853,10.56092 29.23812,11.74795 44.94126,2.89305 4.22153,-2.38048 11.90364,-9.78298 17.07138,-16.44999 7.26825,-9.37693 11.1341,-12.55943 17.07216,-14.05434 6.83773,-1.7214 8.09046,-1.42107 11.46734,2.7492 2.30312,2.84424 3.79102,7.87018 3.79102,12.80564 0,14.64475 -18.84737,27.24121 -32.81416,21.93105 -4.58882,-1.74467 -5.82767,-1.47431 -7.49172,1.63498 -1.09654,2.04892 -6.57564,6.66552 -12.17577,10.25911 -12.30784,7.89792 -14.35132,13.55473 -8.65412,23.95648 2.22559,4.06338 4.69133,10.11027 5.47945,13.43757 1.9995,8.44167 4.73758,11.12297 11.3584,11.12297 3.14325,0 10.80201,1.325 17.01948,2.94446 12.23102,3.18578 26.4644,1.74221 40.45358,-4.10284 8.03095,-3.35554 13.46735,-1.64366 17.25492,5.43347 3.34516,6.25046 0.856,12.55078 -8.186,20.71968 -6.55146,5.91885 -9.71051,7.33012 -16.40803,7.33012 -7.22687,0 -9.37138,-1.16208 -16.66169,-9.02875 -14.34342,-15.47737 -34.89981,-20.18072 -44.82455,-10.25598 -2.72742,2.72742 -4.95894,6.92401 -4.95894,9.32577 0,2.40176 -3.20203,8.72887 -7.1156,14.06024 -13.25926,18.06272 -13.6415,28.79559 -1.32039,37.07653 3.09404,2.0795 7.14824,6.43405 9.00931,9.67678 3.32108,5.78664 3.67012,5.88674 18.83942,5.40246 13.93528,-0.44487 15.81986,-0.0436 19.15825,4.07911 6.41661,7.92419 1.68833,22.15713 -11.63544,35.0246 -9.40403,9.082 -19.95746,13.73571 -31.14896,13.73571 -7.12655,0 -9.48426,-1.17396 -15.72226,-7.8285 -4.03614,-4.30567 -12.33871,-15.71155 -18.45013,-25.3464 -12.8729,-20.29453 -16.12369,-22.95657 -21.19322,-17.35481 -1.93548,2.13868 -10.00486,6.31382 -17.93197,9.27807 -25.58896,9.56873 -29.15932,17.83604 -18.56907,42.99737 2.84148,6.75107 5.16633,14.35416 5.16633,16.89577 0,4.21144 0.77683,4.55934 8.76261,3.9242 7.76621,-0.61767 9.37429,0.0301 14.14213,5.69629 5.96346,7.08717 6.59175,11.31375 2.88966,19.43895 -5.07488,11.13816 -36.87578,19.29197 -49.02791,12.57086 z m -53.53809,-91.46729 c 0,-1.60117 -0.89034,-3.46149 -1.97854,-4.13405 -2.71378,-1.6772 -10.54125,2.74661 -9.07048,5.12632 1.91173,3.09325 11.04902,2.27266 11.04902,-0.99227 z m 46.46702,-23.59302 c 19.77875,-5.32947 44.27616,-17.50069 49.31294,-24.5005 8.36443,-11.62435 3.69684,-32.84681 -9.36559,-42.58307 -4.67114,-3.48171 -7.74534,-3.97618 -20.20305,-3.24953 -26.68182,1.5563 -53.51859,0.23195 -65.94308,-3.25419 -19.83113,-5.56435 -38.54318,0.9933 -41.98693,14.71433 -1.75392,6.98815 2.05957,25.10142 7.5134,35.68709 14.35614,27.86467 38.04305,34.67247 80.67231,23.18587 z M 414.10856,415.57582 c 0.52198,-5.32013 -0.0188,-6.45497 -2.81392,-5.90533 -5.50606,1.0827 -8.18772,6.82441 -4.98801,10.67984 3.91739,4.72016 7.05899,2.79762 7.80193,-4.77451 z m -12.80228,-40.54239 c 2.89332,-3.19709 3.12993,-4.59611 1.17556,-6.95098 -3.17638,-3.82731 -7.08295,-2.22341 -9.95899,4.08882 -3.00244,6.58964 -2.94496,6.86487 1.43353,6.86487 2.05012,0 5.35758,-1.80122 7.3499,-4.00271 z m 213.17648,-11.03034 c 0,-4.14993 -4.18254,-6.18896 -6.15349,-2.99991 -0.91362,1.47826 -1.21289,3.413 -0.66504,4.29943 1.6979,2.74729 6.81853,1.77137 6.81853,-1.29952 z m 14.14214,-21.33244 c 0,-2.24478 -1.34688,-4.04061 -3.03046,-4.04061 -3.07573,0 -4.14417,4.27375 -1.68358,6.73434 2.56132,2.56133 4.71404,1.3312 4.71404,-2.69373 z m -39.56134,0.26759 c 1.55594,-2.51754 -4.31028,-31.68101 -7.6855,-38.20795 -7.13164,-13.7911 -20.8086,-17.61028 -32.71173,-9.1345 -6.99712,4.98239 -18.13036,23.92439 -15.1458,25.76894 1.07904,0.66689 5.66483,-3.79999 10.19066,-9.92637 9.21035,-12.4676 15.96063,-15.52696 24.13533,-10.93862 7.30369,4.09945 10.20662,11.08005 10.24097,24.62606 0.0162,6.46226 0.9709,13.50808 2.12116,15.65736 2.16657,4.04827 6.96334,5.2157 8.85491,2.15508 z m -95.7991,-15.50037 c 0,-26.45929 -24.85137,-42.68218 -42.55889,-27.78228 -7.33238,6.16979 -13.89881,19.03327 -13.96529,27.3577 -0.0744,9.31869 5.21475,6.37509 10.07883,-5.60924 8.17971,-20.1535 14.52069,-24.57287 27.06003,-18.85957 5.9334,2.70344 11.30409,12.95558 11.30409,21.57844 0,8.12471 1.83994,12.48681 5.26692,12.48681 1.99226,0 2.81431,-2.67904 2.81431,-9.17186 z m -9.03669,-71.72884 c 1.41688,-2.29255 -2.44582,-7.99272 -5.41623,-7.99272 -3.24962,0 -4.41334,6.40873 -1.49885,8.25418 3.71597,2.35294 5.33718,2.29164 6.91508,-0.26146 z"
       id="path9420"
       inkscape:connector-curvature="0"
       transform="scale(0.26458333)" />
    <path
       style="fill:#ffffff;fill-opacity:1;stroke:#000000;stroke-width:3.81789947;stroke-miterlimit:4;stroke-dasharray:none;stroke-opacity:1"
       d="m 534.76361,417.11707 c -21.90312,-13.74928 -39.60721,-15.19179 -53.24611,-4.33842 -10.0067,7.96298 -13.27754,8.92233 -18.33722,5.37839 -5.64908,-3.95677 -9.29913,-11.38315 -12.3464,-25.11995 -2.15128,-9.69779 -2.04735,-12.12095 0.75211,-17.53449 3.5533,-6.87133 9.16803,-9.57996 16.19989,-7.81507 4.34876,1.09146 6.13568,3.66373 11.04157,15.8943 2.468,6.15281 6.68087,6.91423 14.43701,2.6093 4.31361,-2.3942 5.50875,-2.39056 8.18879,0.025 4.07584,3.67358 8.81043,4.14884 20.75244,2.08314 6.62763,-1.14643 10.47582,-0.95876 12.02082,0.58624 4.86064,4.86064 11.27794,2.32871 19.84309,-7.82905 4.68475,-5.55584 9.69286,-10.10153 11.12912,-10.10153 3.7208,0 12.67954,12.38677 14.00331,19.36162 1.70696,8.99387 -4.82666,19.01346 -17.34566,26.60032 -5.95896,3.6113 -12.2384,6.54872 -13.95431,6.52761 -1.7159,-0.0211 -7.6282,-2.86844 -13.13845,-6.32739 z"
       id="path9422"
       inkscape:connector-curvature="0"
       transform="scale(0.26458333)" />
    <path
       style="fill:#ff8080;fill-opacity:1;stroke:#000000;stroke-width:3.81789947;stroke-miterlimit:4;stroke-dasharray:none;stroke-opacity:1"
       d="m 481.54518,433.7074 c -9.03072,-2.26825 -9.58258,-3.19589 -5.55659,-9.34032 8.56165,-13.06673 37.33795,-17.11561 51.2481,-7.21071 8.8953,6.33401 8.46268,11.70765 -1.14228,14.18844 -11.27563,2.9123 -36.94144,4.27344 -44.54923,2.36259 z"
       id="path9424"
       inkscape:connector-curvature="0"
       transform="scale(0.26458333)" />
    <path
       style="fill:#00ff00;fill-opacity:1;stroke:#000000;stroke-width:3.81789947;stroke-miterlimit:4;stroke-dasharray:none;stroke-opacity:1"
       d="m 540.40907,547.50516 c -11.79517,-6.25169 -13.97174,-13.54986 -6.97252,-23.37935 l 4.13916,-5.81293 -9.95796,-14.702 c -11.12477,-16.42472 -17.45091,-23.69408 -24.82381,-28.52499 -5.9659,-3.90901 -41.08073,-11.43085 -53.36356,-11.43085 -7.71053,0 -9.53286,0.95953 -15.85911,8.35031 -3.93115,4.59268 -10.13368,14.10975 -13.78338,21.14906 l -6.63584,12.79873 3.65183,6.78103 c 4.47352,8.30681 2.98515,16.0325 -4.17352,21.66351 -6.16483,4.84926 -27.23034,5.56075 -37.50717,1.26682 -12.8601,-5.37331 -28.72186,-26.37107 -27.26837,-36.09783 0.96226,-6.43935 6.45912,-8.97227 12.47929,-5.75037 2.77529,1.48529 6.41442,2.1754 8.08694,1.53359 2.92849,-1.12375 7.2986,-12.98642 7.32189,-19.87523 0.006,-1.83296 3.64782,-8.17246 8.09249,-14.08777 11.22647,-14.94103 10.8516,-19.72256 -3.76695,-48.04833 -6.51649,-12.62675 -13.12231,-23.67078 -14.67961,-24.54228 -1.5573,-0.87152 -15.99937,0.60995 -32.09348,3.29214 -34.66384,5.77695 -40.54553,5.96328 -49.78818,1.57736 -8.02539,-3.8083 -16.84948,-15.61064 -16.84948,-22.53642 0,-9.12192 9.97468,-22.6317 16.70967,-22.6317 2.13593,0 8.01484,3.63654 13.06426,8.08122 6.55067,5.76613 10.98027,8.07118 15.4623,8.04614 10.50864,-0.0586 33.26061,-5.59454 44.90718,-10.92653 10.13198,-4.63856 11.52645,-6.1327 17.50636,-18.75749 4.70944,-9.94258 6.49747,-16.59148 6.49747,-24.1613 0,-14.07269 -5.28456,-19.57977 -24.11597,-25.13145 -27.85282,-8.21129 -31.44242,-11.68968 -31.44242,-30.4683 0,-9.61999 0.64348,-10.93856 9.81291,-20.10799 8.4104,-8.41041 10.93698,-9.80649 17.67767,-9.76799 4.53014,0.0259 9.95414,1.65083 12.79259,3.83248 4.61379,3.54618 4.77473,4.29857 2.52538,11.80622 -4.74787,15.847 -2.07869,21.8403 13.15459,29.53692 7.57598,3.82777 26.00116,4.21207 32.11401,0.66981 2.32897,-1.34959 9.37479,-8.2506 15.65737,-15.33559 14.19642,-16.00958 14.48634,-20.09932 3.22128,-45.44022 -9.29001,-20.89801 -13.53375,-25.52065 -23.42879,-25.52065 -14.36113,0 -20.8606,-14.18577 -13.55406,-29.58317 10.30584,-21.71792 33.49966,-11.28115 30.20044,13.58962 -1.12577,8.4865 -0.79394,9.78239 2.79676,10.92203 2.61162,0.8289 8.13598,9.23403 15.38964,23.41483 6.22356,12.16697 13.20754,23.13432 15.51995,24.37189 5.21687,2.79198 24.6695,1.10754 39.81084,-3.44728 7.25847,-2.1835 13.6774,-5.94727 18.68782,-10.95769 l 7.6318,-7.63181 v -18.48532 c 0,-21.30775 -2.81887,-29.97975 -11.93608,-36.72041 -7.77654,-5.74945 -7.99081,-11.64815 -0.69082,-19.01812 11.13535,-11.2421 26.77571,-14.16481 38.27603,-7.15262 19.08845,11.63897 16.7949,32.41378 -3.57851,32.41378 -5.71184,0 -8.36095,1.07372 -9.94315,4.03008 -1.18626,2.21654 -2.71167,15.62968 -3.38981,29.80697 l -1.23299,25.7769 5.81383,6.90934 c 7.23883,8.60286 32.79028,20.8503 41.64918,19.96347 5.38829,-0.5394 6.56738,-1.76793 8.71559,-9.08106 1.36637,-4.6515 6.56264,-15.56115 11.54724,-24.24366 4.98461,-8.68252 11.04179,-20.29886 13.4604,-25.8141 5.80274,-13.23224 9.70799,-17.24641 16.77841,-17.24641 8.89714,0 16.84244,5.07793 20.71532,13.2394 5.27577,11.11788 2.8836,19.35129 -8.3121,28.60865 -29.13324,24.08932 -43.12125,40.91915 -43.12125,51.88182 0,10.17541 23.02996,27.57669 38.45879,29.05921 16.00807,1.53817 26.76666,-3.67304 43.50036,-21.07058 16.20731,-16.85024 23.5029,-19.35389 27.29937,-9.3684 2.86581,7.53764 0.7463,14.27672 -6.66868,21.20335 -5.63251,5.26154 -7.46287,5.80307 -17.87093,5.28725 -9.63948,-0.47773 -12.22527,0.13387 -15.32737,3.62531 -2.05239,2.30999 -7.59776,7.1436 -12.32305,10.74135 -11.2924,8.59782 -12.13761,13.03891 -5.67312,29.80883 7.5853,19.67741 7.50782,19.58945 19.51067,22.15198 l 10.91632,2.33058 -9.14692,0.19476 c -11.7894,0.25111 -17.18526,4.19894 -23.30922,17.05417 -2.72877,5.72813 -7.67939,15.29156 -11.00137,21.25207 -3.32199,5.96053 -6.03997,12.98076 -6.03997,15.60055 0,2.93423 4.46065,9.78939 11.61676,17.85271 l 11.61675,13.0895 14.5029,0.0994 c 16.001,0.10954 20.85244,2.77476 20.85244,11.45559 0,15.33218 -25.25076,37.13101 -43.01086,37.13101 -5.31783,0 -14.98355,-9.64205 -26.98873,-26.92261 -19.19326,-27.62725 -21.86558,-29.41471 -32.7241,-21.88829 -2.94944,2.04437 -10.57389,5.84145 -16.94322,8.43799 -23.74447,9.6797 -26.55592,18.36891 -16.0046,49.46428 l 6.16981,18.18274 9.59799,1.01016 c 8.12922,0.85558 10.16302,1.98119 13.29025,7.3556 3.06521,5.26783 3.28667,7.23561 1.30407,11.58694 -4.96545,10.89795 -33.33837,18.66832 -45.20334,12.37964 z M 487.23509,460.8808 c 1.99695,-2.99165 -1.96851,-9.34759 -5.83194,-9.34759 -3.60083,0 -10.6946,5.6112 -10.6946,8.45945 0,4.91243 13.36104,5.63046 16.52654,0.88814 z m 52.53967,-25.50663 c 43.85051,-14.54056 56.26923,-30.36333 43.89446,-55.92621 -7.67324,-15.85081 -10.23408,-16.80817 -44.95965,-16.80817 -18.44856,0 -38.07707,-1.27081 -49.80387,-3.22447 -22.96105,-3.82524 -33.51332,-1.97323 -43.04052,7.55396 -5.77668,5.77668 -5.97244,6.55448 -4.80258,19.08217 1.84223,19.72806 12.4345,40.52698 24.74806,48.5951 16.69394,10.9383 42.40847,11.19126 73.9641,0.72762 z M 415.7714,415.6728 c 0.53742,-7.42787 0.0799,-8.5863 -3.39123,-8.5863 -4.94139,0 -10.362,5.14847 -10.362,9.84178 0,4.88962 4.2552,8.60306 9.06778,7.91331 3.22295,-0.46192 4.1928,-2.35978 4.68545,-9.16879 z m -12.87911,-38.74056 c 4.18027,-4.61915 3.56564,-9.96712 -1.50161,-13.06576 -3.01292,-1.8424 -4.52699,-1.23728 -8.58629,3.43165 -6.89479,7.93026 -6.55584,13.52441 0.81944,13.52441 3.16129,0 7.33209,-1.75064 9.26846,-3.8903 z m 213.84702,-10.75692 c 1.26378,-3.52456 -2.18028,-9.59644 -5.44327,-9.59644 -3.93115,0 -7.89347,5.50375 -6.52664,9.06565 1.41238,3.68057 10.69293,4.09211 11.96991,0.53079 z m 14.08631,-20.20305 c 1.56216,-4.64288 -0.94271,-9.59645 -4.85263,-9.59645 -4.32297,0 -6.80142,4.47848 -5.03127,9.09138 1.40658,3.66548 8.69524,4.03794 9.8839,0.50507 z m -39.24024,-5.22695 c 1.08264,-7.64506 -5.55976,-33.83956 -10.40374,-41.02758 -5.1035,-7.57306 -16.9675,-12.91779 -24.48578,-11.03082 -14.87094,3.73237 -34.89968,35.56707 -22.37696,35.56707 1.41288,0 6.84073,-5.00025 12.06189,-11.11167 16.5211,-19.33817 29.33513,-12.00884 29.37235,16.80033 0.0162,12.02338 2.97712,16.93242 9.7436,16.1507 3.91014,-0.45172 5.60623,-1.94149 6.08864,-5.34803 z m -96.00342,-8.02336 c 1.52912,-7.6456 -1.87905,-21.91373 -6.92824,-29.00465 -8.02554,-11.27084 -23.88705,-15.08774 -36.2123,-8.7141 -7.93921,4.10552 -18.05495,21.96346 -18.07941,31.91668 -0.0168,6.8513 0.49081,7.64427 4.52673,7.07107 3.15761,-0.44845 6.39646,-4.10924 10.6066,-11.98837 8.23761,-15.41641 10.67706,-17.95165 17.27333,-17.95165 7.02623,0 13.4738,7.62821 15.11485,17.88263 2.50502,15.6529 2.88883,16.46256 7.80387,16.46256 3.60027,0 5.03618,-1.38223 5.89457,-5.67417 z m -9.3362,-76.42279 c 1.83696,-4.78704 -2.08568,-9.82692 -7.64851,-9.82692 -5.49743,0 -7.57168,5.61489 -3.76754,10.19858 3.26741,3.937 9.84484,3.72287 11.41605,-0.37166 z"
       id="path9436"
       inkscape:connector-curvature="0"
       transform="scale(0.26458333)" />
    <path
       style="fill:#ff2a2a;fill-opacity:1;stroke:#000000;stroke-width:3.81789947;stroke-miterlimit:4;stroke-dasharray:none;stroke-opacity:1"
       d="m 532.32785,412.41832 c -14.10213,-7.29629 -17.84233,-8.36228 -29.34061,-8.36228 -11.50725,0 -14.51786,0.85968 -23.74399,6.78007 -5.99492,3.84693 -11.91907,6.26078 -13.69392,5.5797 -3.91523,-1.50241 -11.13382,-17.53789 -12.50843,-27.78642 -1.39359,-10.38994 3.68538,-18.40189 11.10971,-17.52529 3.84932,0.45449 6.76606,3.12903 10.59855,9.71844 5.60272,9.63307 12.16304,12.3841 19.79363,8.30033 2.70983,-1.45026 4.54152,-1.33981 6.25873,0.37741 1.41905,1.41905 9.31201,2.59379 18.99732,2.82744 9.11329,0.21986 18.72023,0.53818 21.34876,0.70738 3.21592,0.20701 7.86441,-2.73123 14.21153,-8.98292 5.18782,-5.10981 10.09638,-9.29056 10.90792,-9.29056 2.94604,0 9.48244,13.28519 9.48981,19.28796 0.008,6.78086 -10.2175,18.21046 -21.20565,23.70198 -5.82358,2.91043 -6.69383,2.70158 -22.22336,-5.33324 z"
       id="path9438"
       inkscape:connector-curvature="0"
       transform="scale(0.26458333)" />
  </g>
</svg>
