<?xml version="1.0" encoding="UTF-8" standalone="no"?>
<!-- Created with Inkscape (http://www.inkscape.org/) -->

<svg
   xmlns:dc="http://purl.org/dc/elements/1.1/"
   xmlns:cc="http://creativecommons.org/ns#"
   xmlns:rdf="http://www.w3.org/1999/02/22-rdf-syntax-ns#"
   xmlns:svg="http://www.w3.org/2000/svg"
   xmlns="http://www.w3.org/2000/svg"
   xmlns:xlink="http://www.w3.org/1999/xlink"
   xmlns:sodipodi="http://sodipodi.sourceforge.net/DTD/sodipodi-0.dtd"
   xmlns:inkscape="http://www.inkscape.org/namespaces/inkscape"
   width="208.23109mm"
   height="208.23109mm"
   viewBox="0 0 208.23109 208.23109"
   version="1.1"
   id="svg8"
   inkscape:version="0.92.3 (2405546, 2018-03-11)"
   sodipodi:docname="sticker_print.svg"
   inkscape:export-filename="C:\Users\km18o949\OneDrive - Universitaet Bern\work\pandemic_game\stickers\sticker_print.png"
   inkscape:export-xdpi="899.96747"
   inkscape:export-ydpi="899.96747">
  <defs
     id="defs2">
    <circle
       style="fill:none;fill-opacity:1;stroke:none;stroke-width:0.69741321;stroke-miterlimit:4;stroke-dasharray:none;stroke-opacity:1"
       id="path4776-3"
       cx="55.3074"
       cy="-229.03575"
       r="87.78067"
       transform="rotate(131.20508)" />
    <circle
       style="fill:none;fill-opacity:1;stroke:none;stroke-width:0.69741321;stroke-miterlimit:4;stroke-dasharray:none;stroke-opacity:1"
       id="path4776-0"
       cx="55.3074"
       cy="-229.03575"
       r="87.78067"
       transform="rotate(131.20508)"
       inkscape:export-xdpi="100.009"
       inkscape:export-ydpi="100.009" />
    <ellipse
       style="fill:none;fill-opacity:1;stroke:none;stroke-width:0.76921844;stroke-miterlimit:4;stroke-dasharray:none;stroke-opacity:1"
       id="path4916-4"
       cx="-33.714458"
       cy="237.32933"
       transform="matrix(-0.90294308,0.42976016,0.44970104,0.89317914,0,0)"
       rx="95.897194"
       ry="94.257942"
       inkscape:export-xdpi="100.009"
       inkscape:export-ydpi="100.009" />
    <ellipse
       style="fill:none;fill-opacity:1;stroke:none;stroke-width:0.76921844;stroke-miterlimit:4;stroke-dasharray:none;stroke-opacity:1"
       id="path4916-6"
       cx="-33.714458"
       cy="237.32933"
       transform="matrix(-0.90294308,0.42976016,0.44970104,0.89317914,0,0)"
       rx="95.897194"
       ry="94.257942"
       inkscape:export-xdpi="100.009"
       inkscape:export-ydpi="100.009" />
    <circle
       style="display:inline;fill:none;fill-opacity:1;stroke:#ff0000;stroke-width:0.63475084;stroke-miterlimit:4;stroke-dasharray:none;stroke-opacity:1"
       id="path9687-4"
       cx="-415.90677"
       cy="-241.37009"
       transform="matrix(-0.83382211,-0.55203323,-0.55203323,0.83382211,0,0)"
       r="97.64772" />
  </defs>
  <sodipodi:namedview
     id="base"
     pagecolor="#ffffff"
     bordercolor="#666666"
     borderopacity="1.0"
     inkscape:pageopacity="0.0"
     inkscape:pageshadow="2"
     inkscape:zoom="0.7"
     inkscape:cx="502.98631"
     inkscape:cy="413.33724"
     inkscape:document-units="mm"
     inkscape:current-layer="layer1"
     showgrid="false"
     showguides="false"
     inkscape:window-width="1920"
     inkscape:window-height="1137"
     inkscape:window-x="1912"
     inkscape:window-y="-8"
     inkscape:window-maximized="1"
     fit-margin-top="0"
     fit-margin-left="0"
     fit-margin-right="0"
     fit-margin-bottom="0" />
  <metadata
     id="metadata5">
    <rdf:RDF>
      <cc:Work
         rdf:about="">
        <dc:format>image/svg+xml</dc:format>
        <dc:type
           rdf:resource="http://purl.org/dc/dcmitype/StillImage" />
        <dc:title></dc:title>
      </cc:Work>
    </rdf:RDF>
  </metadata>
  <g
     inkscape:label="Layer 1"
     inkscape:groupmode="layer"
     id="layer1"
     transform="translate(-33.072008,-88.400877)"
     style="display:inline">
    <circle
       style="fill:#fff44c;fill-opacity:1;stroke:none;stroke-width:0.48332855;stroke-miterlimit:4;stroke-dasharray:none;stroke-opacity:1"
       id="path4878"
       cx="93.368683"
       cy="-217.1757"
       transform="rotate(121.26231)"
       inkscape:export-xdpi="299.94849"
       inkscape:export-ydpi="299.94849"
       r="103.85992" />
    <flowRoot
       xml:space="preserve"
       id="flowRoot4768"
       style="font-style:normal;font-weight:normal;font-size:40px;line-height:1.25;font-family:sans-serif;letter-spacing:0px;word-spacing:0px;fill:#000000;fill-opacity:1;stroke:none"><flowRegion
         id="flowRegion4770"><rect
           id="rect4772"
           width="1624.2858"
           height="427.14285"
           x="-117.14286"
           y="275.12936" /></flowRegion><flowPara
         id="flowPara4774" /></flowRoot>    <circle
       style="fill:none;fill-opacity:1;stroke:none;stroke-width:0.69741321;stroke-miterlimit:4;stroke-dasharray:none;stroke-opacity:1"
       id="path4776"
       cx="55.3074"
       cy="-229.03575"
       r="87.78067"
       transform="rotate(131.20508)"
       inkscape:export-xdpi="299.94849"
       inkscape:export-ydpi="299.94849" />
    <text
       xml:space="preserve"
       style="font-style:normal;font-weight:normal;font-size:10.58333302px;line-height:1.25;font-family:sans-serif;letter-spacing:0px;word-spacing:0px;fill:#000000;fill-opacity:1;stroke:none;stroke-width:0.26458332"
       id="text4785"
       x="1.5119047"
       y="17.008928"
       transform="rotate(105.1233,137.14927,190.9818)"
       inkscape:export-xdpi="299.94849"
       inkscape:export-ydpi="299.94849"
       inkscape:transform-center-x="7.6963688"
       inkscape:transform-center-y="-84.28223"><textPath
         xlink:href="#path4776"
         id="textPath4787">Sie sind <tspan
   style="font-weight:bold"
   id="tspan4908">infiziert!</tspan></textPath></text>
    <rect
       style="fill:#fefefe;fill-opacity:1;stroke:#000000;stroke-width:0.5581615;stroke-miterlimit:4;stroke-dasharray:none;stroke-opacity:1"
       id="rect4876"
       width="67.46875"
       height="23.8125"
       x="102.9659"
       y="242.70631"
       ry="1.8737839"
       inkscape:export-xdpi="299.94849"
       inkscape:export-ydpi="299.94849" />
    <text
       xml:space="preserve"
       style="font-style:normal;font-weight:normal;font-size:10.58333302px;line-height:1.25;font-family:sans-serif;letter-spacing:0px;word-spacing:0px;fill:#000000;fill-opacity:1;stroke:none;stroke-width:0.26458332"
       x="359.07739"
       y="257.3125"
       id="text4886"><tspan
         sodipodi:role="line"
         id="tspan4884"
         x="359.07739"
         y="266.96799"
         style="stroke-width:0.26458332" /></text>
    <ellipse
       style="fill:none;fill-opacity:1;stroke:none;stroke-width:0.76921844;stroke-miterlimit:4;stroke-dasharray:none;stroke-opacity:1"
       id="path4916"
       cx="-33.714458"
       cy="237.32933"
       transform="matrix(-0.90294308,0.42976016,0.44970104,0.89317914,0,0)"
       rx="95.897194"
       ry="94.257942"
       inkscape:export-xdpi="299.94849"
       inkscape:export-ydpi="299.94849" />
    <flowRoot
       xml:space="preserve"
       id="flowRoot9719"
       style="font-style:normal;font-weight:normal;font-size:40px;line-height:1.25;font-family:sans-serif;letter-spacing:0px;word-spacing:0px;fill:#000000;fill-opacity:1;stroke:none"><flowRegion
         id="flowRegion9721"><rect
           id="rect9723"
           width="1062.8572"
           height="1144.2858"
           x="-12.857142"
           y="-237.72778" /></flowRegion><flowPara
         id="flowPara9725" /></flowRoot>    <g
       id="g9651"
       transform="translate(-85.322794,-105.92737)"
       inkscape:export-xdpi="299.94849"
       inkscape:export-ydpi="299.94849">
      <g
         id="g10174"
         transform="translate(-160.62898,61.739261)"
         inkscape:export-xdpi="299.94849"
         inkscape:export-ydpi="299.94849">
        <path
           style="display:inline;fill:#000000;fill-opacity:1;stroke:#000000;stroke-width:0.0812564;stroke-opacity:1"
           d="m 391.52167,161.84746 c -2.30395,-0.0367 -4.49587,0.54033 -6.47992,2.21182 -6.59992,3.07382 -3.07358,9.76226 1.46973,11.94141 0.48036,6.716 2.48874,12.94782 -8.34303,14.90713 -9.95544,2.00769 -9.62109,-8.65598 -13.20401,-13.40764 0.9853,-8.17927 -9.35077,-14.18741 -13.28984,-4.99047 -2.58141,6.16024 2.28986,11.62424 7.98573,11.2776 1.50663,5.26743 7.91164,11.70488 1.37037,14.27269 -4.57322,5.98712 -10.0211,5.35364 -12.88777,0.96355 4.06618,-7.72906 -2.30558,-10.7744 -7.19673,-9.25018 -5.48668,1.31623 -8.47624,6.97433 -7.69825,12.25193 0.38342,8.02737 9.80618,6.37093 14.71717,9.60739 1.61078,5.12138 -3.0993,13.12322 -9.73564,13.04654 -1.4915,0.63364 -3.43695,0.82391 -4.99354,1.52532 -0.52557,0.45763 -2.11501,0.69049 -2.75795,-0.41435 -3.44992,-5.83075 -11.02943,-4.54179 -11.90838,1.5913 -0.12616,1.32008 -0.79845,2.65304 -0.55197,4.04664 -0.28646,4.31052 6.40209,7.78321 9.27947,7.71422 2.4905,0.79351 14.17966,-1.99342 17.45258,-3.193 -0.0105,0.18001 0.0467,0.3894 0.158,0.57832 0.13887,0.23493 0.34377,0.40838 0.54231,0.45905 0.43153,2.12104 1.85636,5.88008 3.85899,7.6089 5.30046,5.27782 -3.8174,9.86093 -3.67346,15.85048 -8.10212,-3.35166 -7.48865,7.68967 -2.89228,11.85593 2.90189,4.8384 15.37013,6.98698 19.14405,0.75501 2.0559,-5.35757 -2.08691,-9.65656 3.66123,-13.91437 3.84118,-6.56106 17.97607,1.24901 18.9455,1.70311 1.4554,2.73482 5.2424,4.7637 4.76752,7.12816 -1.13131,5.63289 -1.79038,4.57427 -1.41941,6.26775 3.13415,7.86588 8.44204,6.0006 13.66661,4.19455 6.61465,-1.10324 8.35726,-11.63557 0.0629,-11.78522 -5.75259,-3.40917 -7.30911,-14.05003 1.33469,-14.63373 6.88324,-6.31135 9.12258,5.30449 12.31973,9.0282 6.44252,4.72463 15.12507,0.0971 18.50562,-6.20013 4.23627,-6.76242 -4.13071,-9.29205 -9.36305,-8.42562 -3.78582,-3.49501 -8.49697,-7.40091 -2.86508,-12.27523 0.3973,-0.62469 3.68552,-7.92894 9.02187,-5.30899 4.21838,1.51909 6.83976,7.67837 12.79442,4.85185 5.19538,-1.30018 6.81974,-11.74786 0.0113,-12.0163 -5.38908,2.48256 -10.76404,3.02749 -16.73224,0.54876 -3.44264,-2.30934 -5.64068,-9.4668 0.68807,-11.00238 4.98178,-1.80037 13.75183,-1.36516 12.3755,-9.59943 -0.86387,-9.47163 -10.10798,-2.50553 -12.62249,2.14543 -5.38366,3.08897 -9.61273,3.63805 -14.17187,0.027 -6.20144,-3.19986 1.74292,-9.08424 4.07738,-11.65791 9.54766,-3.38397 10.27448,-11.76075 4.00475,-16.88955 -1.60142,-1.04846 -3.0502,-1.49944 -4.35473,-1.49882 -5.11783,0.002 -8.01896,6.95169 -9.23615,12.01087 -3.91881,1.73161 -4.1317,7.93094 -5.66123,9.02854 -6.71079,-2.21223 -10.7245,-6.54163 -9.06115,-13.81413 -0.51763,-1.19659 -0.71248,-2.12006 -0.666,-2.84336 -0.75846,5.38021 -2.53315,13.1951 3.98811,14.78457 3.08797,0.89023 9.21569,6.67631 8.30708,-0.33827 2.39641,-4.58537 6.05522,-8.63363 7.12173,-14.31854 3.34387,-7.03784 13.37864,-2.02567 12.03975,4.84947 -0.40224,7.15109 -5.93621,3.88653 -12.29351,13.85993 -2.89139,2.77828 -3.74648,5.77733 0.80025,7.25792 2.47974,4.602 8.70353,4.76696 13.08397,2.25534 4.78896,-1.86479 4.42491,-9.67209 11.4677,-8.1822 6.24159,5.34093 -2.45749,13.56024 -8.36354,9.91468 -1.03909,4.12073 -11.00789,4.77618 -5.43128,10.33897 1.25733,3.46958 0.68647,7.1634 5.31983,5.4715 5.5983,3.09831 10.35149,1.20435 15.45056,-1.02421 10.0174,3.46299 -4.62365,16.59429 -8.81958,6.95718 -3.04808,-3.46107 -13.03589,-5.78502 -12.57773,1.90584 -3.77687,4.72026 -7.70247,9.2558 -0.33989,13.10104 1.42812,6.86426 9.40922,-1.62263 11.70356,5.39609 0.0207,7.19011 -8.70262,13.87372 -15.75773,11.18586 -4.08297,-4.09797 -2.65556,-4.17534 -4.98723,-7.22493 -3.65116,-4.53614 -2.63105,-4.76221 -5.25503,-6.64357 -2.86406,4.83135 -14.12852,3.02737 -11.74006,10.60008 0.47739,3.29509 3.67295,7.5286 2.351,9.45938 1.23769,-0.53239 2.36109,-0.5133 3.38692,-0.34023 4.98997,0.84189 6.86857,8.53939 -0.66555,10.25493 -6.47653,3.85445 -17.27035,-1.56166 -10.53074,-8.3391 -4.34494,-5.45292 -5.31105,-12.34807 -13.53516,-11.89126 -5.29979,-1.14921 -10.39267,-4.64873 -13.11382,1.99049 -1.37391,2.51749 -7.46817,8.34675 -2.85108,8.0932 0.13714,0.64419 0.21308,1.24844 0.23371,1.81389 0.25143,6.89058 -7.71069,8.01896 -13.24332,5.43133 -4.66136,-1.2056 -12.59539,-14.12586 -3.27727,-13.58103 4.49339,5.04443 1.93178,-5.37023 5.52937,-7.12008 6.49354,-5.01069 -1.52402,-10.28034 -2.69213,-15.49493 -0.82314,-1.93313 -1.36705,-2.83898 -1.67074,-3.04927 -0.004,-0.0226 -0.0305,-0.0405 -0.0809,-0.053 -0.0104,0.002 -0.0228,0.003 -0.0333,0.005 -0.0212,-0.002 -0.0411,-1.8e-4 -0.0585,0.008 -4.65375,0.59544 -13.61935,2.89845 -17.1923,2.88515 0.01,-0.0286 0.0202,-0.0566 0.0282,-0.0867 -0.20865,0.027 -0.41473,0.044 -0.61909,0.0554 -0.24029,-0.0262 -0.44358,-0.0684 -0.5943,-0.13285 -0.0394,0.0495 -0.0722,0.0966 -0.10125,0.14236 -7.35582,-0.21055 -11.44314,-10.32735 -4.491,-14.50321 4.07649,-3.29855 6.59357,3.77743 8.17261,3.64255 0.21027,0.096 0.45895,0.1638 0.72612,0.19809 -0.002,0.002 -0.004,0.005 -0.005,0.007 0.0178,2.7e-4 0.0362,-5.3e-4 0.054,-2.6e-4 0.11799,0.0136 0.23823,0.0205 0.35881,0.0207 0.1943,-5.3e-4 0.38707,-0.0185 0.57052,-0.0534 4.74426,-0.37516 9.08271,-1.51132 12.63966,-3.64432 -0.88282,2.90842 10.73748,-13.87673 -0.39707,-14.91937 -3.9277,-1.84521 -8.73674,-0.93098 -9.8559,-5.47355 -2.20133,-8.00952 6.78022,-14.57134 11.40502,-12.12605 6.1429,2.23966 -2.69029,7.48923 2.16479,10.22256 3.21333,1.02648 5.83232,4.74005 11.66172,0.0474 2.20452,-5.81668 6.6118,-2.38961 4.70593,-9.8982 -3.5724,-3.61797 -1.9688,-13.13451 -8.24109,-10.04518 -7.49283,-3.01308 -2.97634,-16.89452 4.51598,-12.07034 2.84977,2.72944 2.93621,7.13931 1.66055,8.76758 5.49347,0.55216 4.34485,12.71944 10.48861,13.58885 5.60992,-1.25166 15.53255,-1.38311 14.32823,-9.51512 0.43035,-5.41449 0.10173,-9.12882 -4.91869,-11.38008 -0.57798,-2.7268 0.86301,-4.8342 2.96067,-6.3381 3.54364,-2.54059 9.20905,-3.04919 11.98418,0.34238 5.34542,4.96732 1.44158,10.7327 -5.25145,9.36459 0.096,0.82541 0.002,1.91136 -0.16309,3.14407 0.84453,-3.79884 9.51247,-1.14981 9.25688,-7.07067 -0.5624,-5.36071 -5.04895,-8.70886 -9.76657,-8.78397 z m 0.50968,15.85456 c -0.0294,0.13235 -0.0505,0.27202 -0.0602,0.42067 0.0196,-0.13894 0.0421,-0.28515 0.0602,-0.42067 z m -15.81787,20.3425 c -0.3244,0.029 -0.6649,0.33926 -0.93882,1.13558 3.04768,2.24692 2.09742,-1.23887 0.93882,-1.13558 z m 22.12606,11.1264 c -3.75734,0.24588 -6.65391,4.01959 -7.84744,7.5953 0.68145,2.75101 4.61612,-11.2559 11.09141,-4.09072 2.15619,2.29646 -0.58258,12.56403 3.76078,9.95786 -1.4269,-4.40854 -0.51014,-11.96198 -7.00475,-13.46244 z m -25.74515,0.88786 c -1.90751,0.0193 -3.90838,1.06417 -5.59938,3.51444 -0.24337,-0.42912 -1.89625,3.90047 -1.8899,5.68603 1.63153,3.6588 2.55209,-8.31866 6.99965,-8.1811 8.74619,0.4046 4.42594,11.99892 7.44138,9.70031 0.99098,-5.84047 -2.7552,-10.76203 -6.95175,-10.71968 z m 42.44476,11.67109 c -0.029,-0.003 -0.059,-0.003 -0.09,2.6e-4 -0.22942,0.0248 -0.51518,0.2317 -0.84915,0.7336 1.72416,2.39125 1.83758,-0.64016 0.93918,-0.73395 z m -3.89397,5.67753 c -0.027,-0.002 -0.0544,-0.002 -0.0822,0.002 -0.2487,0.0295 -0.52712,0.28639 -0.78526,0.93375 2.1113,1.69865 1.70261,-0.8692 0.86749,-0.93546 z m -36.22458,0.0938 c -3.6951,-0.006 -8.5525,1.35125 -8.07849,5.93271 0.34649,6.50184 4.44529,14.15591 11.64933,14.94257 8.18186,0.78389 16.12868,-2.39645 23.15561,-6.23207 5.55337,-4.67347 0.58601,-15.75103 -7.00985,-13.10499 -6.3916,0.37727 -12.87712,0.66373 -18.9949,-1.51953 -0.23408,-0.012 -0.47537,-0.0183 -0.7217,-0.0187 z m 2.79815,0.95345 c 2.29479,-0.0115 5.08625,3.88988 0.68876,5.5202 -1.06278,0.07 -1.97662,-3.28276 -2.43867,-4.22358 0.3886,-0.91963 1.04559,-1.29306 1.74991,-1.29662 z m -5.53244,0.45736 c 1.82333,-0.0178 3.60537,1.29061 3.87666,4.23717 1.96843,4.69541 5.11896,-2.4993 6.74243,1.53345 0.62253,0.20098 1.03556,0.30163 1.30242,0.32859 0.11487,0.15314 0.64363,0.16463 1.23512,0.0268 0.38566,-0.09 0.73401,-0.22926 0.93239,-0.37275 1.48348,-0.22526 4.80651,-1.01019 5.62282,0.94291 4.25375,-0.34128 5.7624,-9.77669 9.65783,-3.48826 4.42299,6.12156 -4.25456,12.17484 -7.04029,12.40634 -4.14352,-1.86267 -11.26508,-8.11404 -17.21215,-3.22423 -6.13182,6.4077 -8.41168,-1.42592 -9.31669,-7.07781 -0.26191,-3.33708 1.99888,-5.29067 4.19946,-5.31225 z m -17.15663,0.20692 c -0.68177,0.0198 -1.58252,0.80635 -2.17364,3.10263 3.97794,-0.3835 3.47518,-3.14043 2.17364,-3.10263 z m 36.47568,0.81278 c 3.32449,-0.016 5.6297,0.59736 1.87121,3.80462 -2.23155,1.3979 -4.52904,-0.48038 -5.83281,-0.99116 0.11488,-0.31842 0.17972,-0.75583 0.17975,-1.21272 -1.8e-4,-0.56932 -0.10084,-1.10018 -0.26775,-1.4125 1.30809,-0.0811 2.75207,-0.18202 4.0496,-0.18824 z m -4.72001,0.22767 c -0.15541,0.31702 -0.24775,0.82816 -0.24805,1.37307 1.1e-4,0.45096 0.0633,0.88311 0.17567,1.20048 -0.17318,0.15426 -0.26163,0.48309 -0.24635,1.06728 -0.26009,0.18683 -0.45215,0.33538 -0.597,0.45804 -0.20642,0.006 -0.44596,0.0391 -0.68637,0.0951 -0.29743,0.0695 -0.57606,0.16918 -0.77983,0.27896 -0.65976,-1.08127 -4.51156,-4.07367 -0.13116,-4.44579 0.59393,0.0619 1.49041,0.0305 2.51309,-0.0271 z m -28.422,10.3041 c -0.4371,-0.0261 -1.09234,0.49256 -1.98607,2.00577 2.51441,3.97664 3.41392,-1.92061 1.98607,-2.00577 z m 25.14949,0.0448 c 1.98543,0.0188 3.93709,0.54877 5.51784,1.65987 7.27246,4.92877 -5.79897,5.25786 -9.57458,5.37275 -1.63538,-0.49113 -4.81931,0.22705 -5.33741,-2.03126 1.69055,-3.20901 5.60377,-5.03716 9.39415,-5.00136 z m -6.67856,12.12164 c -0.49339,-0.009 -1.16126,0.24566 -1.94155,0.99287 3.33211,1.42935 3.42175,-0.9665 1.94155,-0.99287 z"
           id="path4769-7"
           inkscape:connector-curvature="0"
           sodipodi:nodetypes="cccccccccccccccccccccccccccsccccccccccccccccccscccccccccccccccccccccccccscccccscccccccccccccccccccccccccccccccccsccccscccccscscccsccccsccccccccccccccccccccccccccccccscccccccccccccccccccccccccsccccccccc"
           inkscape:export-xdpi="100.009"
           inkscape:export-ydpi="100.009" />
        <path
           style="display:inline;fill:#008080;fill-opacity:1;stroke:#000000;stroke-width:1.01015258;stroke-miterlimit:4;stroke-dasharray:none;stroke-opacity:1"
           d="m 391.91348,277.74737 c -3.51797,-1.94572 -4.38222,-4.49253 -2.3858,-7.03057 l 1.08871,-1.38407 -3.09323,-4.69192 c -1.81869,-2.75863 -5.53148,-6.92077 -8.63199,-7.37648 -1.06963,-0.15722 -3.42752,-0.64416 -5.23976,-1.0821 -4.13805,-0.99999 -6.58499,-1.01035 -7.97921,-0.0338 -1.23227,0.8631 -6.09834,8.84491 -6.09834,10.00308 0,0.41619 0.4603,1.15084 1.02289,1.63254 0.84241,0.7213 0.9451,1.22071 0.58202,2.83057 -0.24248,1.07512 -0.85213,2.4092 -1.35479,2.96463 -2.19889,2.42975 -8.24252,2.7103 -12.4246,0.57676 -4.09335,-2.08827 -7.86753,-8.30675 -6.65576,-10.96629 0.77424,-1.69927 3.14322,-2.2573 4.47318,-1.0537 1.37985,1.24874 1.93358,0.55907 2.64619,-3.29581 0.46286,-2.50381 -0.33949,-1.78748 2.67468,-5.44234 2.41497,-2.9283 2.66059,-4.32485 0.47223,-8.22782 -0.88823,-1.58416 -2.30875,-4.35544 -3.15671,-6.15839 -0.84797,-1.80296 -1.75084,-3.40732 -2.00638,-3.56525 -0.25554,-0.15793 -3.46557,0.27717 -7.1334,0.9669 -11.00438,2.06935 -14.27787,2.08493 -17.10438,-0.39702 -3.47227,-3.7299 -3.30364,-8.27442 -0.8594,-10.8262 2.35282,-2.35282 4.18148,-3.39482 6.8421,0.042 0.88127,1.13836 2.32295,2.13203 2.98573,2.39308 1.67156,0.65838 8.75356,-0.65855 12.498,-2.32406 2.75134,-1.22379 3.15707,-1.63415 4.68379,-4.73726 3.1292,-6.3602 2.27302,-10.4405 -2.44365,-11.64567 -9.48509,-2.42354 -10.5978,-3.35239 -10.5978,-8.84657 0,-2.98101 0.44865,-3.49169 1.82233,-5.35917 2.58042,-3.50803 7.64361,-5.10634 10.61631,-2.13365 1.24617,1.24618 1.2244,1.30368 0.40151,3.36029 -1.38905,3.47159 -0.95988,4.96535 2.12694,6.64869 1.72662,0.94157 3.49497,1.46191 4.99565,1.46998 2.26372,0.0122 5.42786,-1.33298 5.42786,-2.3075 0,-0.26723 1.20272,-1.65122 2.6727,-3.07552 3.14471,-3.047 3.34439,-4.30927 1.29165,-8.16534 -0.75957,-1.42685 -1.72808,-3.57788 -2.15223,-4.78005 -1.16144,-3.29189 -3.48607,-4.01234 -5.49366,-3.93118 -3.9888,-0.28818 -5.99088,-6.99105 -1.68377,-11.11753 2.00399,-1.91994 4.31795,-2.02356 6.17748,-0.27662 1.71911,1.61502 2.59554,4.73878 1.86711,6.65471 -0.69065,1.81653 -0.6839,1.88818 0.17784,1.88818 1.22104,0 2.42708,1.78712 4.50929,6.68192 1.25354,2.94679 2.54373,5.11019 3.45197,5.78829 1.34872,1.00697 1.7039,1.0373 5.0713,0.43319 5.53298,-0.99263 8.37445,-2.08238 10.08278,-3.86691 1.50064,-1.56757 1.55631,-1.81171 1.55631,-6.82545 0,-5.76775 -0.51695,-7.24649 -3.38335,-8.87714 -4.76919,-2.71312 2.53619,-10.2998 8.84574,-9.11612 0.99972,0.18755 2.75869,1.19115 3.90882,2.23022 3.78227,3.41706 3.29435,7.56168 -1.02719,8.72535 -1.14529,0.3084 -2.43821,0.42416 -2.87315,0.25725 -1.01651,-0.39007 -1.33204,1.07739 -1.79035,8.32651 -0.47652,7.53702 -0.0794,8.2992 5.82704,11.18483 5.93356,2.89884 7.44853,2.6529 7.44853,-0.68862 0,-0.56051 1.18539,-2.98494 2.77857,-5.56083 1.59318,-2.5759 3.30657,-5.95211 3.80753,-7.50271 1.50832,-4.66857 4.87123,-6.18075 8.63784,-3.88411 2.13074,1.29919 3.37258,3.62713 3.34788,6.27592 -0.0275,2.95312 -0.99383,4.28836 -5.10155,7.04947 -2.38903,1.60584 -4.65124,3.75504 -6.48975,6.16555 -3.30333,4.33106 -3.39473,5.94534 -0.76175,8.01605 1.65893,1.9342 1.31728,1.24455 2.14121,2.05035 2.85711,2.79425 7.97217,3.08469 12.12696,0.74183 1.11694,-0.62984 3.1495,-2.58841 4.5168,-4.35239 1.92306,-2.48098 2.9459,-3.32302 4.51701,-3.71855 1.80915,-0.45545 2.1406,-0.37599 3.03406,0.7274 0.60937,0.75253 1.00305,2.08231 1.00305,3.38816 0,3.87475 -4.9867,7.20757 -8.68208,5.80259 -1.21413,-0.46162 -1.54191,-0.39008 -1.98219,0.43258 -0.29013,0.54211 -1.7398,1.76359 -3.2215,2.7144 -3.25645,2.08965 -3.79712,3.58635 -2.28974,6.33848 0.58885,1.0751 1.24125,2.67501 1.44977,3.55536 0.52903,2.23352 1.25349,2.94295 3.00524,2.94295 0.83166,0 2.85804,0.35057 4.50307,0.77905 3.23613,0.84291 7.00204,0.46096 10.70335,-1.08554 0.69677,-0.29113 1.31972,-0.57173 1.87768,-0.57174 1.14359,-3e-5 2.01417,0.75087 2.68768,2.00935 0.88508,1.65376 0.22648,3.32072 -2.16588,5.48208 -1.7334,1.56603 -2.56924,1.93941 -4.34129,1.93941 -1.91211,0 -2.47951,-0.30745 -4.4084,-2.38884 -3.79503,-4.09505 -9.23391,-5.33948 -11.85983,-2.71356 -0.72163,0.72163 -1.06519,1.88189 -1.31206,2.46744 -0.45101,1.06978 -0.8472,2.30951 -1.88266,3.72009 -3.50819,4.7791 -3.60933,7.61884 -0.34936,9.80984 0.81863,0.5502 1.89131,1.70234 2.38372,2.56031 0.8787,1.53105 0.97105,1.55753 4.98459,1.4294 3.68704,-0.1177 4.18567,-0.0115 5.06896,1.07927 1.69772,2.09661 0.4467,5.8624 -3.07855,9.26692 -2.48815,2.40295 -5.28041,3.63424 -8.24149,3.63424 -1.88557,0 -2.50938,-0.31061 -4.15986,-2.07129 -1.0679,-1.13921 -3.26462,-4.15701 -4.8816,-6.70623 -3.40595,-5.3696 -4.26606,-6.07393 -5.60737,-4.5918 -0.5121,0.56586 -2.64712,1.67053 -4.7445,2.45483 -6.77041,2.53172 -7.71507,4.71911 -4.91307,11.37638 0.75181,1.78622 1.5441,3.80969 1.5441,4.48215 0,1.11428 -0.0797,0.69027 2.02315,0.9556 1.70046,0.21455 2.5984,0.0788 3.85989,1.57801 1.57783,1.87515 1.74407,2.99343 0.76456,5.14323 -1.34273,2.94697 -9.75672,5.10433 -12.97197,3.32604 z m -14.16529,-24.20072 c 0,-0.42365 -0.23557,-0.91586 -0.52349,-1.09381 -0.71802,-0.44375 -2.78904,0.72671 -2.3999,1.35634 0.50582,0.81843 2.92339,0.60131 2.92339,-0.26253 z m 12.2944,-6.24232 c 5.23313,-1.41009 11.71473,-4.6304 13.04738,-6.48243 2.21309,-3.07561 0.97812,-8.69071 -2.47798,-11.26676 -1.2359,-0.9212 -2.04928,-1.05203 -5.34539,-0.85977 -7.05956,0.41177 -14.16012,0.0614 -17.44744,-0.86101 -5.24698,-1.47223 -10.19788,0.26281 -11.10904,3.89317 -0.46406,1.84894 0.54493,6.64141 1.98792,9.4422 3.7984,7.37253 10.06556,9.17376 21.34455,6.1346 z m -31.09957,-5.23574 c 0.13811,-1.40761 -0.005,-1.70787 -0.74452,-1.56245 -1.45681,0.28647 -2.16633,1.80563 -1.31974,2.82571 1.03647,1.24888 1.86769,0.7402 2.06426,-1.26326 z m -3.38727,-10.72683 c 0.76552,-0.8459 0.82813,-1.21605 0.31103,-1.83912 -0.84042,-1.01263 -1.87403,-0.58827 -2.63498,1.08184 -0.7944,1.74351 -0.77919,1.81633 0.37929,1.81633 0.54243,0 1.41752,-0.47657 1.94466,-1.05905 z m 56.40294,-2.91844 c 0,-1.09801 -1.10663,-1.6375 -1.62811,-0.79373 -0.24173,0.39112 -0.32091,0.90302 -0.17596,1.13756 0.44924,0.72688 1.80407,0.46867 1.80407,-0.34383 z m 3.74178,-5.64421 c 0,-0.59393 -0.35637,-1.06908 -0.80181,-1.06908 -0.81379,0 -1.09648,1.13077 -0.44545,1.7818 0.67768,0.67768 1.24726,0.35221 1.24726,-0.71272 z m -10.46728,0.0708 c 0.41168,-0.6661 -1.14042,-8.38227 -2.03345,-10.10919 -1.88691,-3.64889 -5.50561,-4.65939 -8.65498,-2.41684 -1.85132,1.31826 -4.79699,6.33 -4.00732,6.81804 0.28549,0.17644 1.49881,-1.00542 2.69627,-2.62636 2.43691,-3.29871 4.22292,-4.10817 6.38581,-2.89417 1.93243,1.08465 2.7005,2.93159 2.70959,6.51565 0.004,1.7098 0.25688,3.57401 0.56122,4.14267 0.57324,1.07111 1.84239,1.37999 2.34286,0.5702 z m -25.34684,-4.10114 c 0,-7.00069 -6.57526,-11.29299 -11.26037,-7.35073 -1.94003,1.63242 -3.6774,5.03589 -3.69499,7.23839 -0.0197,2.46557 1.31929,1.73537 2.71394,-1.38962 2.30596,-5.16691 3.36946,-6.78505 7.15963,-4.98992 1.55912,0.73844 2.94363,3.33333 2.94363,5.6148 0,2.14966 0.48682,3.3038 1.39354,3.3038 0.52712,0 0.74462,-0.70883 0.74462,-2.42672 z m -2.39096,-18.97826 c 0.37489,-0.60657 -0.64712,-2.11474 -1.43304,-2.11474 -0.8598,0 -1.1677,1.69564 -0.39657,2.18392 0.98318,0.62255 1.41213,0.60633 1.82961,-0.0692 z"
           id="path9420-4"
           inkscape:connector-curvature="0"
           sodipodi:nodetypes="sccscccscscscssssscsccssssssscscsssssccsssssssscscscssscsccsscccsscsscsccscsscsssssccssccscsscssscsssccsscccscsssccsscssssscssscsccsccscscsscsssssasca"
           inkscape:export-xdpi="100.009"
           inkscape:export-ydpi="100.009" />
        <path
           style="display:inline;fill:#ffffff;fill-opacity:1;stroke:#000000;stroke-width:1.01015258;stroke-miterlimit:4;stroke-dasharray:none;stroke-opacity:1"
           d="m 390.86633,242.47638 c -5.7952,-3.63783 -10.4794,-4.01949 -14.08803,-1.14787 -2.64761,2.10687 -3.51302,2.3607 -4.85172,1.42303 -1.49465,-1.04689 -2.4604,-3.01179 -3.26665,-6.64632 -0.5692,-2.56587 -0.5417,-3.207 0.19899,-4.63933 0.94015,-1.81804 2.42571,-2.53469 4.28622,-2.06774 1.15061,0.28879 1.6234,0.96937 2.92142,4.20537 0.65299,1.62793 1.76764,1.82939 3.81979,0.69038 1.14131,-0.63347 1.45752,-0.63251 2.16662,0.007 1.0784,0.97197 2.33109,1.09771 5.49075,0.55116 1.75356,-0.30332 2.77172,-0.25367 3.18051,0.15511 1.28604,1.28605 2.98395,0.61614 5.25015,-2.07142 1.2395,-1.46998 2.56457,-2.6727 2.94458,-2.6727 0.98446,0 3.35479,3.27732 3.70504,5.12275 0.45163,2.37963 -1.27706,5.03065 -4.58937,7.038 28.87486,-2.55217 45.42721,21.66918 9.93604,5.99955 -5.16001,-2.27818 -10.02157,-1.4593 -17.10434,-5.94657 z"
           id="path9422-1"
           inkscape:connector-curvature="0"
           sodipodi:nodetypes="csssccsscssssscscc"
           inkscape:export-xdpi="100.009"
           inkscape:export-ydpi="100.009" />
        <path
           style="display:inline;fill:#ff2a2a;fill-opacity:1;stroke:#000000;stroke-width:1.01015258;stroke-miterlimit:4;stroke-dasharray:none;stroke-opacity:1"
           d="m 376.78562,246.86591 c -2.38937,-0.60014 -2.53539,-0.84558 -1.47018,-2.47129 2.26527,-3.45724 9.879,-4.52851 13.5594,-1.90784 2.35354,1.67587 2.23908,3.09765 -0.30223,3.75403 -2.98335,0.77054 -9.77409,1.13068 -11.78699,0.6251 z"
           id="path9424-3"
           inkscape:connector-curvature="0"
           inkscape:export-xdpi="100.009"
           inkscape:export-ydpi="100.009" />
        <path
           style="display:inline;fill:#00ff00;fill-opacity:1;stroke:#000000;stroke-width:1.01015258;stroke-miterlimit:4;stroke-dasharray:none;stroke-opacity:1"
           d="m 428.32621,226.54617 c -3.11022,-0.20221 -5.51549,0.4377 -7.13579,3.83898 -0.72199,1.51556 -2.03184,4.04588 -2.91078,5.62293 -0.87895,1.57706 -1.59809,3.4345 -1.59809,4.12765 0,0.77635 1.18022,2.59011 3.07362,4.72353 l 3.07359,3.46326 3.83723,0.0263 c 4.2336,0.029 5.51721,0.73416 5.51721,3.03096 0,4.05664 -6.68093,9.82425 -11.37996,9.82425 -1.40701,0 -3.96441,-2.55113 -7.14078,-7.12328 -5.07821,-7.30971 -5.78527,-7.78264 -8.65825,-5.79128 -0.78037,0.54091 -2.79767,1.54556 -4.48289,2.23256 -6.28239,2.56108 -7.02626,4.8601 -4.23455,13.08742 l 1.63243,4.81085 2.53946,0.26727 c 2.15086,0.22637 2.68897,0.52419 3.51638,1.94617 0.81101,1.39378 0.8696,1.91442 0.34504,3.06571 -1.31378,2.88342 -8.82078,4.93933 -11.96005,3.27545 -3.12081,-1.65409 -3.69669,-3.58507 -1.84481,-6.18579 l 1.09515,-1.538 -2.63471,-3.88991 c -2.94343,-4.3457 -4.61722,-6.26905 -6.56797,-7.54723 -1.57848,-1.03426 -10.86927,-3.02442 -14.11911,-3.02442 -2.04007,0 -2.52223,0.25388 -4.19605,2.20936 -1.04012,1.21514 -2.68121,3.7332 -3.64686,5.59569 l -1.75573,4.28402 0.96622,0.89645 c 0.36973,0.34305 0.83912,0.88186 0.95011,1.31007 0.43835,1.69115 -0.54298,3.23289 -2.05436,4.42174 -1.63111,1.28303 -7.20469,1.47128 -9.92376,0.33518 -3.40258,-1.42169 -7.59933,-6.97735 -7.21476,-9.55089 0.25459,-1.70374 1.70897,-2.37391 3.30181,-1.52145 0.73429,0.39298 1.69715,0.57558 2.13967,0.40576 0.77483,-0.29732 1.93109,-3.43599 1.93725,-5.25865 0.002,-0.48497 0.96515,-2.1623 2.14113,-3.72739 2.97034,-3.95315 2.87116,-5.21826 -0.99667,-12.71279 -1.72415,-3.34082 -3.47194,-6.26289 -3.88398,-6.49348 -0.41203,-0.23059 -4.23316,0.16139 -8.4914,0.87105 -9.17147,1.52848 -11.36243,1.77824 -13.80788,0.61779 -2.12339,-1.00761 -4.22424,-5.13257 -4.22424,-6.96501 0,-2.41351 2.83959,-6.02138 4.62156,-6.02138 1.23411,-0.0697 2.5384,1.60382 3.65704,2.97337 1.73319,1.52562 2.90519,2.13551 4.09106,2.12888 2.78041,-0.0155 8.8002,-1.48022 11.88169,-2.89098 2.68076,-1.22728 3.04971,-1.62261 4.6319,-4.96292 1.24603,-2.63064 1.71911,-4.38983 1.71911,-6.39267 0,-3.7234 -1.3982,-5.18049 -6.38068,-6.64937 -7.36939,-2.17257 -8.31914,-3.09289 -8.31914,-8.0614 0,-2.54529 0.17026,-2.89416 2.59633,-5.32024 2.22526,-2.22525 2.89375,-2.59464 4.67722,-2.58445 1.1986,0.007 2.6337,0.43678 3.38471,1.01401 1.22073,0.93826 1.26331,1.13733 0.66817,3.12373 -1.25621,4.19285 -0.54998,5.77858 3.48048,7.81498 2.00448,1.01276 6.87948,1.11444 8.49684,0.17722 0.6162,-0.35708 2.48041,-2.18297 4.14267,-4.05754 3.75614,-4.23587 3.83285,-5.31795 0.8523,-12.02273 -2.45798,-5.52926 -3.5808,-6.75234 -6.19887,-6.75234 -3.79971,0 -5.51936,-3.75331 -3.58617,-7.82721 2.72675,-5.7462 9.28867,-2.79581 7.99053,3.59559 -0.45085,2.21973 0.45139,2.77724 1.40143,3.07877 0.69099,0.21932 2.15265,2.44317 4.07185,6.19518 1.64665,3.21918 2.83303,5.93196 3.44486,6.2594 1.38029,0.73872 6.52714,0.29304 10.53328,-0.91209 1.92047,-0.57772 3.61881,-1.57355 4.94449,-2.89922 l 2.01924,-2.01925 v -4.89091 c 0,-5.63767 -0.40574,-8.52214 -3.15808,-9.71561 -2.15777,-0.93564 -2.11424,-2.81731 -0.18278,-5.03188 2.75182,-3.15518 7.0844,-3.74777 10.1272,-1.89246 5.05048,3.07948 4.44365,8.57615 -0.94682,8.57615 -1.51125,0 -2.21217,0.28408 -2.63079,1.06629 -0.31386,0.58646 -0.71746,4.13535 -0.89689,7.88642 l -0.059,6.68651 1.53825,1.8281 c 1.91527,2.27617 8.40849,5.65027 10.75241,5.41563 1.42565,-0.14271 1.73762,-0.46776 2.306,-2.40269 0.36151,-1.23071 1.73636,-4.11722 3.0552,-6.41447 1.31885,-2.29725 2.92148,-5.37074 3.5614,-6.82998 1.53531,-3.50103 2.58038,-4.62217 4.4511,-4.62217 2.35404,0 4.60979,1.44984 5.63449,3.60923 1.39588,2.9416 0.76295,5.12002 -2.19924,7.56937 -7.70818,6.37363 -11.57454,10.77928 -11.57454,13.67982 0,2.69224 6.09334,7.29633 10.17556,7.68858 4.23547,0.40697 8.00506,-2.88198 12.50166,-7.41756 3.27237,-3.30074 5.72717,-3.08291 6.23077,-0.63609 0.75825,1.99433 0.19746,3.77738 -1.76442,5.61005 -1.49027,1.39212 -1.80919,1.72439 -4.56298,1.58791 -2.55045,-0.1264 -3.39997,-0.15357 -4.22074,0.77021 -0.54302,0.61118 -2.01024,1.89008 -3.26047,2.84198 -2.98778,2.27484 -3.21141,3.44988 -1.50101,7.88692 2.00694,5.20632 1.44592,4.58497 4.59523,5.37676 0.46287,0.11637 0.58961,-0.11183 2.05093,-0.0996 m -45.02695,29.90478 c 1.0558,-1.0347 -0.23535,-2.28833 -1.54303,-2.47321 -1.6404,-0.23194 -2.64063,0.53969 -2.64063,1.29328 0,1.29975 3.34612,2.43467 4.18366,1.17993 z m 8.84569,-7.21872 c 11.60211,-3.84719 14.8879,-8.03363 11.61374,-14.79714 -2.03021,-4.19386 -2.70776,-4.44716 -11.89557,-4.44716 -4.88118,0 -10.07456,-0.33623 -13.17728,-0.85314 -6.07511,-1.0121 -8.86706,-0.52209 -11.3878,1.99866 -1.52841,1.52841 -1.58021,1.7342 -1.27068,5.04881 0.48742,5.21971 3.28996,10.72276 6.54792,12.85745 4.41694,2.89409 11.22058,2.96102 19.56967,0.19252 z m -32.80922,-5.21266 c 0.14219,-1.96529 0.0211,-2.27179 -0.89726,-2.27179 -1.30741,0 -2.74162,1.3622 -2.74162,2.60397 0,1.29371 1.12586,2.27623 2.39919,2.09373 0.85274,-0.12221 1.10934,-0.62436 1.23969,-2.42591 z m -3.4076,-10.2501 c 1.10603,-1.22214 0.94341,-2.63714 -0.3973,-3.45698 -0.79717,-0.48747 -1.19777,-0.32736 -2.27179,0.90796 -1.82425,2.09821 -1.73457,3.57833 0.21681,3.57833 0.83643,0 1.93995,-0.46318 2.45228,-1.02931 z m 56.58036,-2.8461 c 0.33437,-0.93254 -0.57687,-2.53906 -1.4402,-2.53906 -1.04012,0 -2.08848,1.4562 -1.72684,2.39863 0.37369,0.97381 2.82917,1.0827 3.16704,0.14043 z m 3.727,-5.34539 c 0.41332,-1.22842 -0.24943,-2.53906 -1.28393,-2.53906 -1.14378,0 -1.79954,1.18493 -1.33119,2.40543 0.37216,0.96983 2.30062,1.06837 2.61512,0.13363 z m -10.38227,-1.38296 c 0.28644,-2.02276 -1.47102,-8.95338 -2.75266,-10.85521 -1.3503,-2.00371 -4.48932,-3.41784 -6.47853,-2.91857 -3.9346,0.98752 -9.23387,9.41045 -5.92057,9.41045 0.37383,0 1.80994,-1.32298 3.19138,-2.93996 4.3712,-5.11656 7.76158,-3.17734 7.77143,4.44508 0.004,3.18119 0.7877,4.48004 2.57799,4.27321 1.03456,-0.11952 1.48332,-0.51369 1.61096,-1.415 z m -25.40091,-2.12285 c 0.40458,-2.0229 -0.49716,-5.79801 -1.83309,-7.67415 -2.12343,-2.98207 -6.32012,-3.99196 -9.58118,-2.3056 -2.10058,1.08625 -4.77703,5.81117 -4.78351,8.44462 -0.004,1.81274 0.12986,2.02255 1.1977,1.87089 0.83545,-0.11865 1.6924,-1.08724 2.80633,-3.17192 1.79308,-3.35569 2.54785,-4.40469 3.73092,-4.67118 0.25498,-0.0574 0.52986,-0.0785 0.83932,-0.0785 1.85902,0 3.56494,2.01829 3.99913,4.73144 0.66279,4.1415 0.76434,4.35572 2.06478,4.35572 0.95257,0 1.33249,-0.36571 1.5596,-1.50129 z m -2.4702,-20.22019 c 0.48603,-1.26657 -0.55184,-2.60004 -2.02367,-2.60004 -1.45453,0 -2.00334,1.4856 -0.99683,2.69837 0.8645,1.04166 2.60478,0.98501 3.0205,-0.0983 z"
           id="path9436-2"
           inkscape:connector-curvature="0"
           sodipodi:nodetypes="ccsscccsssccscssssccssscccsssccsccsscsssccccssssscssscssssscscsscssssssscsscscscssssccscscsccsscsssssscssssssccssccscccsccscsscccsscsccssscsscscc"
           inkscape:export-xdpi="100.009"
           inkscape:export-ydpi="100.009" />
        <path
           style="display:inline;fill:#ff2a2a;fill-opacity:1;stroke:#000000;stroke-width:1.01015258;stroke-miterlimit:4;stroke-dasharray:none;stroke-opacity:1"
           d="m 390.22187,241.23317 c -3.73119,-1.93047 -4.72078,-2.21252 -7.76303,-2.21252 -3.04463,0 -3.84119,0.22746 -6.28227,1.7939 -1.58615,1.01783 -3.15359,1.65649 -3.62318,1.47629 -1.03591,-0.39751 -2.94582,-4.64023 -3.30952,-7.35182 -0.36872,-2.749 0.97808,-6.25894 2.94244,-6.02701 1.01846,0.12024 1.78719,2.218 2.8012,3.96145 1.48239,2.54875 3.21814,3.27662 5.23706,2.19612 0.71698,-0.38371 1.20162,-0.35449 1.65596,0.0999 0.37546,0.37546 2.4638,0.40279 5.02637,0.46461 3.11993,-0.60328 4.95307,0.42588 5.64853,0.47065 0.85088,0.0548 2.08079,-0.72264 3.76013,-2.37674 1.37262,-1.35196 2.67134,-2.45812 2.88606,-2.45812 0.77947,0 2.50889,3.51504 2.51084,5.10327 0.002,1.7941 -2.70338,4.81818 -5.61066,6.27115 -1.54082,0.77005 -1.77107,0.71479 -5.87993,-1.41109 z"
           id="path9438-9"
           inkscape:connector-curvature="0"
           sodipodi:nodetypes="ssscccssccscscss"
           inkscape:export-xdpi="100.009"
           inkscape:export-ydpi="100.009" />
        <path
           style="display:inline;fill:#000000;fill-opacity:1;stroke:#000000;stroke-width:0.02232143;stroke-miterlimit:4;stroke-dasharray:none;stroke-opacity:1"
           d="m 395.98623,245.01616 c -1.05697,-0.62517 -3.1292,-1.88445 -3.11853,-1.89512 0.002,-0.002 0.0663,0.0222 0.14237,0.0544 0.78247,0.33088 1.33421,0.45967 1.82093,0.42507 0.4346,-0.0309 0.76318,-0.13758 1.41732,-0.46017 0.4731,-0.23332 0.91521,-0.48722 1.35689,-0.77927 0.12901,-0.0853 0.23575,-0.1535 0.23722,-0.15155 0.002,0.002 0.0573,0.16034 0.12397,0.35199 0.0667,0.19164 0.12537,0.35284 0.13035,0.35823 0.005,0.005 0.15985,-0.009 0.34416,-0.0321 0.61376,-0.0767 1.13694,-0.13497 1.76434,-0.19644 0.24245,-0.0238 0.88629,-0.082 0.90928,-0.0823 0.0365,-5.3e-4 -0.71888,0.50957 -1.10776,0.74793 -0.56642,0.34719 -1.10772,0.64468 -1.82723,1.00422 -0.59062,0.29513 -1.24612,0.59931 -1.76809,0.82046 l -0.0849,0.036 z"
           id="path9440-6"
           inkscape:connector-curvature="0"
           inkscape:export-xdpi="100.009"
           inkscape:export-ydpi="100.009" />
        <path
           style="display:inline;fill:#000000;fill-opacity:1;stroke:#000000;stroke-width:0.02232143;stroke-miterlimit:4;stroke-dasharray:none;stroke-opacity:1"
           d="m 390.9035,245.36839 c 0,-0.002 0.0153,-0.0382 0.0341,-0.0797 0.0871,-0.19276 0.13121,-0.40482 0.13114,-0.63061 -5e-5,-0.1548 -0.0105,-0.24068 -0.0487,-0.39916 -0.0137,-0.0571 -0.0225,-0.1064 -0.0194,-0.1095 0.0102,-0.0102 0.0821,0.1756 0.11244,0.29015 0.0242,0.0914 0.0298,0.14064 0.0303,0.26576 5.3e-4,0.1714 -0.0158,0.25868 -0.0759,0.40301 -0.0439,0.10553 -0.16402,0.29595 -0.16402,0.26008 z"
           id="path9444-3"
           inkscape:connector-curvature="0"
           inkscape:export-xdpi="100.009"
           inkscape:export-ydpi="100.009" />
        <path
           style="display:inline;fill:#000000;fill-opacity:1;stroke:#000000;stroke-width:0.02232143;stroke-miterlimit:4;stroke-dasharray:none;stroke-opacity:1"
           d="m 382.6707,248.15097 v -1.64091 l 0.13879,-0.008 c 1.36502,-0.079 3.04159,-0.26039 4.22566,-0.45728 1.57589,-0.26204 2.41526,-0.54484 2.82201,-0.95079 0.14513,-0.14484 0.20142,-0.26699 0.20088,-0.4359 -0.001,-0.41387 -0.43885,-0.97793 -1.22751,-1.58251 -0.33505,-0.25685 -0.6047,-0.42871 -0.95675,-0.6098 -1.02979,-0.5297 -2.22889,-0.82703 -3.7148,-0.92115 -0.24255,-0.0154 -1.11796,-0.0169 -1.34358,-0.002 l -0.1447,0.009 v -1.51488 -1.51487 l 0.20966,1.9e-4 c 0.25074,2.2e-4 0.80259,0.0183 1.08964,0.0356 1.15831,0.07 2.05975,0.25776 3.08877,0.64343 0.87023,0.32616 1.72572,0.7283 3.54353,1.66569 2.20037,1.13468 2.99081,1.49987 3.57896,1.65351 0.36107,0.0943 0.60948,0.0991 0.90222,0.0174 0.27707,-0.0774 0.91797,-0.38591 1.44241,-0.69441 2.03877,-1.19928 3.93071,-3.165 4.51542,-4.69153 0.12015,-0.31366 0.16547,-0.52612 0.16694,-0.78252 l 10e-4,-0.17423 h 2.12739 2.12739 l 0.007,0.0679 c 0.038,0.36435 0.0392,1.06713 0.002,1.41446 -0.0572,0.54063 -0.15155,0.97831 -0.31857,1.47711 -0.45075,1.34616 -1.35917,2.5841 -2.73509,3.72723 -1.52031,1.26308 -3.62872,2.43413 -6.42992,3.57129 -1.40283,0.56948 -3.17601,1.19819 -4.71946,1.67336 -2.87248,0.88433 -5.65242,1.44274 -8.10378,1.62781 -0.17216,0.013 -0.35421,0.0268 -0.40455,0.0307 l -0.0915,0.007 z m 8.24001,-2.78525 c -0.0101,-0.011 -0.0155,-0.01 -0.0235,0.005 -0.006,0.0107 -0.0259,0.046 -0.0448,0.0785 l -0.0344,0.0591 0.0579,-0.0643 c 0.0435,-0.0483 0.0547,-0.0678 0.0448,-0.0785 z m 0.1109,-0.1348 c 0.007,-0.013 0.01,-0.0236 0.007,-0.0236 -0.003,0 -0.0116,0.0106 -0.0186,0.0236 -0.007,0.013 -0.01,0.0236 -0.007,0.0236 0.003,0 0.0116,-0.0106 0.0185,-0.0236 z m 0.12595,-0.39274 c -0.003,-0.008 -0.006,-0.002 -0.006,0.0148 0,0.0162 0.003,0.0229 0.006,0.0148 0.003,-0.008 0.003,-0.0214 0,-0.0295 z m 6.20516,-0.062 c 0.0162,-0.009 0.0242,-0.0169 0.0177,-0.0169 -0.007,0 -0.0251,0.008 -0.0413,0.0169 -0.0162,0.009 -0.0242,0.0169 -0.0177,0.0169 0.007,0 0.0251,-0.008 0.0413,-0.0169 z m -6.19274,-0.0977 c -0.003,-0.0178 -0.005,-2.6e-4 -0.005,0.0386 7e-5,0.039 0.002,0.0535 0.005,0.0323 0.003,-0.0212 0.003,-0.0531 -1.2e-4,-0.0709 z m 4.3501,0.0626 c 0,-0.003 -0.012,-0.0113 -0.0266,-0.0184 -0.0255,-0.0124 -0.0257,-0.0122 -0.004,0.005 0.0241,0.0193 0.0302,0.0219 0.0302,0.0129 z m -0.0591,-0.0354 c 0,-0.003 -0.012,-0.0113 -0.0266,-0.0184 -0.0255,-0.0123 -0.0257,-0.0121 -0.004,0.006 0.0241,0.0193 0.0302,0.0219 0.0302,0.0129 z m 2.1025,-0.0241 c 0.0292,-0.0157 0.0478,-0.0285 0.0413,-0.0285 -0.006,0 -0.0357,0.0128 -0.065,0.0285 -0.0292,0.0157 -0.0478,0.0285 -0.0413,0.0285 0.007,0 0.0357,-0.0128 0.065,-0.0285 z m -2.16155,-0.0114 c 0,-0.003 -0.012,-0.0113 -0.0266,-0.0184 -0.0255,-0.0124 -0.0257,-0.0122 -0.004,0.005 0.0241,0.0193 0.0302,0.0219 0.0302,0.0129 z m -0.0591,-0.0354 c 0,-0.003 -0.012,-0.0113 -0.0266,-0.0184 -0.0255,-0.0124 -0.0257,-0.0121 -0.004,0.006 0.0241,0.0193 0.0302,0.0219 0.0302,0.0129 z m 2.48048,-0.0772 c 0.0617,-0.0318 0.1069,-0.0579 0.10039,-0.0579 -0.006,0 -0.0623,0.026 -0.12401,0.0579 -0.0617,0.0318 -0.1069,0.0579 -0.10041,0.0579 0.007,0 0.0623,-0.026 0.12403,-0.0579 z m -6.66581,-0.003 c -0.003,-0.008 -0.006,-0.002 -0.006,0.0148 0,0.0162 0.003,0.0229 0.006,0.0148 0.003,-0.008 0.003,-0.0214 0,-0.0295 z m 4.06722,0.009 c 0,-0.003 -0.012,-0.0113 -0.0266,-0.0184 -0.0255,-0.0124 -0.0257,-0.0121 -0.004,0.006 0.0241,0.0193 0.0302,0.0219 0.0302,0.0129 z m -0.23623,-0.14175 c 0,-0.003 -0.012,-0.0113 -0.0266,-0.0184 -0.0255,-0.0123 -0.0257,-0.0121 -0.004,0.006 0.0241,0.0193 0.0302,0.0219 0.0302,0.0129 z m -0.0591,-0.0354 c 0,-0.003 -0.012,-0.0113 -0.0266,-0.0184 -0.0255,-0.0124 -0.0257,-0.0122 -0.004,0.005 0.0241,0.0193 0.0302,0.0219 0.0302,0.0129 z m -0.059,-0.0354 c 0,-0.003 -0.012,-0.0113 -0.0266,-0.0184 -0.0255,-0.0124 -0.0257,-0.0121 -0.004,0.005 0.0241,0.0193 0.0302,0.0219 0.0302,0.0129 z m -0.0591,-0.0354 c 0,-0.003 -0.012,-0.0113 -0.0266,-0.0184 -0.0255,-0.0124 -0.0257,-0.0122 -0.004,0.005 0.0241,0.0193 0.0302,0.0219 0.0302,0.0129 z m 3.90969,-0.21323 c 0,-0.003 -0.0585,0.0234 -0.12994,0.0593 -0.0715,0.0358 -0.12993,0.0678 -0.12993,0.0711 0,0.003 0.0585,-0.0234 0.12993,-0.0593 0.0715,-0.0358 0.12994,-0.0678 0.12994,-0.0711 z m -7.69971,0.0484 c 0.006,0.004 -0.008,-0.031 -0.0311,-0.0778 -0.0236,-0.0468 -0.0449,-0.083 -0.0474,-0.0805 -0.002,0.002 0.01,0.047 0.0273,0.099 0.0175,0.0519 0.0336,0.0849 0.0357,0.0733 0.002,-0.0117 0.009,-0.0179 0.0155,-0.0139 z m 3.51834,-5.3e-4 c 0,-0.003 -0.012,-0.0113 -0.0266,-0.0184 -0.0255,-0.0124 -0.0257,-0.0122 -0.004,0.005 0.0241,0.0193 0.0302,0.0219 0.0302,0.0129 z m -0.0591,-0.0354 c 0,-0.003 -0.012,-0.0113 -0.0266,-0.0184 -0.0255,-0.0123 -0.0257,-0.0121 -0.004,0.006 0.0241,0.0193 0.0302,0.0219 0.0302,0.0129 z m -0.0591,-0.0354 c 0,-0.003 -0.012,-0.0113 -0.0266,-0.0184 -0.0255,-0.0124 -0.0257,-0.0122 -0.004,0.005 0.0241,0.0193 0.0302,0.0219 0.0302,0.0129 z m 4.47665,-0.0717 c 0,-0.003 -0.0266,0.008 -0.059,0.024 -0.0325,0.0165 -0.0591,0.0326 -0.0591,0.0358 0,0.003 0.0266,-0.008 0.0591,-0.024 0.0325,-0.0165 0.059,-0.0326 0.059,-0.0358 z m -4.53571,0.0362 c 0,-0.003 -0.012,-0.0113 -0.0266,-0.0184 -0.0255,-0.0124 -0.0257,-0.0121 -0.004,0.006 0.0241,0.0193 0.0302,0.0219 0.0302,0.0129 z m -0.0591,-0.0354 c 0,-0.003 -0.012,-0.0113 -0.0266,-0.0184 -0.0255,-0.0123 -0.0257,-0.0121 -0.004,0.006 0.0241,0.0193 0.0302,0.0219 0.0302,0.0129 z m 4.74834,-0.0837 c 0,-0.003 -0.016,0.002 -0.0354,0.0124 -0.0195,0.0101 -0.0354,0.021 -0.0354,0.0242 0,0.003 0.016,-0.002 0.0354,-0.0124 0.0195,-0.0101 0.0354,-0.021 0.0354,-0.0242 z m 0.12992,-0.0709 c 0,-0.003 -0.016,0.002 -0.0354,0.0124 -0.0195,0.0101 -0.0354,0.021 -0.0354,0.0242 0,0.003 0.016,-0.002 0.0354,-0.0124 0.0195,-0.0101 0.0354,-0.021 0.0354,-0.0242 z m -5.36254,-0.14072 c 0,-0.003 -0.012,-0.0113 -0.0266,-0.0184 -0.0255,-0.0124 -0.0257,-0.0122 -0.004,0.005 0.0241,0.0193 0.0302,0.0219 0.0302,0.0129 z m 6.05944,-0.26111 c 0,-0.003 -0.0106,-2.1e-4 -0.0236,0.007 -0.013,0.007 -0.0236,0.0153 -0.0236,0.0186 0,0.003 0.0106,2.1e-4 0.0236,-0.007 0.013,-0.007 0.0236,-0.0153 0.0236,-0.0185 z m 0.41932,-0.25881 0.0236,-0.0192 -0.0236,0.0116 c -0.013,0.006 -0.0343,0.0203 -0.0473,0.0308 l -0.0236,0.0192 0.0236,-0.0116 c 0.013,-0.006 0.0343,-0.0202 0.0473,-0.0308 z m -7.34102,-0.0116 c 0,-0.003 -0.012,-0.0113 -0.0266,-0.0184 -0.0255,-0.0124 -0.0257,-0.0121 -0.004,0.005 0.0241,0.0193 0.0302,0.0219 0.0302,0.0129 z m -0.11013,-0.0931 c -0.15281,-0.0703 -0.16045,-0.0679 -0.035,0.0111 0.0597,0.0376 0.0817,0.0461 0.0931,0.0359 0.0115,-0.0104 -0.002,-0.021 -0.0581,-0.047 z m 7.73757,-0.081 c 0.10557,-0.0704 0.19194,-0.13059 0.19194,-0.13384 0,-0.007 -0.38904,0.25051 -0.4075,0.26933 -0.0197,0.0201 0.0127,-2.6e-4 0.21556,-0.13549 z m -2.17926,-0.1236 c -0.008,-0.003 -0.0214,-0.003 -0.0295,0 -0.008,0.003 -0.002,0.006 0.0148,0.006 0.0162,0 0.0229,-0.003 0.0148,-0.006 z m 0.0945,-0.0118 c -0.008,-0.003 -0.0214,-0.003 -0.0295,0 -0.008,0.003 -0.002,0.006 0.0148,0.006 0.0163,0 0.0229,-0.003 0.0148,-0.006 z m 0.0945,-0.0118 c -0.008,-0.003 -0.0214,-0.003 -0.0295,0 -0.008,0.003 -0.002,0.006 0.0148,0.006 0.0162,0 0.0229,-0.003 0.0148,-0.006 z m 0.0945,-0.0118 c -0.008,-0.003 -0.0214,-0.003 -0.0295,0 -0.008,0.003 -0.002,0.006 0.0148,0.006 0.0162,0 0.0229,-0.003 0.0148,-0.006 z m 0.0938,-0.0121 c -0.009,-0.003 -0.0187,-0.003 -0.0226,10e-4 -0.004,0.004 0.003,0.007 0.0155,0.006 0.0138,-5.3e-4 0.0166,-0.003 0.007,-0.007 z m 0.10631,-0.0118 c -0.009,-0.003 -0.0187,-0.003 -0.0226,0.001 -0.004,0.004 0.003,0.007 0.0155,0.006 0.0138,-5.3e-4 0.0166,-0.003 0.007,-0.007 z m 0.0945,-0.0118 c -0.009,-0.003 -0.0187,-0.003 -0.0226,0.001 -0.004,0.004 0.003,0.007 0.0155,0.006 0.0137,-5.3e-4 0.0166,-0.003 0.007,-0.007 z m 0.10705,-0.0116 c -0.008,-0.003 -0.0214,-0.003 -0.0295,0 -0.008,0.003 -0.002,0.006 0.0148,0.006 0.0162,0 0.0229,-0.003 0.0148,-0.006 z m 0.10556,-0.0121 c -0.009,-0.003 -0.0187,-0.003 -0.0226,0.001 -0.004,0.004 0.003,0.007 0.0155,0.006 0.0138,-5.3e-4 0.0166,-0.003 0.007,-0.007 z m 0.21335,-0.0234 c -0.008,-0.003 -0.0214,-0.003 -0.0295,0 -0.008,0.003 -0.002,0.006 0.0148,0.006 0.0162,0 0.0229,-0.003 0.0148,-0.006 z m 0.10631,-0.0118 c -0.008,-0.003 -0.0214,-0.003 -0.0295,0 -0.008,0.003 -0.002,0.006 0.0148,0.006 0.0162,0 0.0229,-0.003 0.0148,-0.006 z m 0.10629,-0.0118 c -0.008,-0.003 -0.0214,-0.003 -0.0295,0 -0.008,0.003 -0.002,0.006 0.0148,0.006 0.0162,0 0.0229,-0.003 0.0148,-0.006 z m 0.11813,-0.0118 c -0.008,-0.003 -0.0214,-0.003 -0.0295,0 -0.008,0.003 -0.002,0.006 0.0148,0.006 0.0162,0 0.0229,-0.003 0.0148,-0.006 z m 0.10557,-0.0121 c -0.009,-0.003 -0.0187,-0.003 -0.0226,0.001 -0.004,0.004 0.003,0.007 0.0155,0.006 0.0138,-5.3e-4 0.0166,-0.003 0.007,-0.007 z m 0.11884,-0.0116 c -0.008,-0.003 -0.0214,-0.003 -0.0295,0 -0.008,0.003 -0.002,0.006 0.0148,0.006 0.0162,0 0.0229,-0.003 0.0148,-0.006 z m 0.11813,-0.0118 c -0.008,-0.003 -0.0214,-0.003 -0.0295,0 -0.008,0.003 -0.002,0.006 0.0148,0.006 0.0162,0 0.0229,-0.003 0.0148,-0.006 z m 0.11738,-0.0121 c -0.009,-0.003 -0.0187,-0.003 -0.0226,0.001 -0.004,0.004 0.003,0.007 0.0155,0.006 0.0138,-5.3e-4 0.0166,-0.003 0.007,-0.007 z m 0.13067,-0.0116 c -0.008,-0.003 -0.0214,-0.003 -0.0295,0 -0.008,0.003 -0.002,0.006 0.0148,0.006 0.0162,0 0.0229,-0.003 0.0148,-0.006 z m 0.753,-0.01 c 0.008,-0.01 0.012,-0.0177 0.009,-0.0177 -0.003,0 -0.0125,0.008 -0.0206,0.0177 -0.008,0.01 -0.012,0.0177 -0.009,0.0177 0.003,0 0.0125,-0.008 0.0206,-0.0177 z m -0.6292,-0.002 c -0.0115,-0.003 -0.0274,-0.003 -0.0354,5.3e-4 -0.008,0.003 10e-4,0.006 0.0209,0.005 0.0195,-2.5e-4 0.026,-0.003 0.0145,-0.006 z m 0.12424,-0.0115 c -0.008,-0.003 -0.0214,-0.003 -0.0295,0 -0.008,0.003 -0.002,0.006 0.0148,0.006 0.0162,0 0.0229,-0.003 0.0148,-0.006 z m 0.12994,-0.0118 c -0.008,-0.003 -0.0214,-0.003 -0.0295,0 -0.008,0.003 -0.002,0.006 0.0148,0.006 0.0162,0 0.0229,-0.003 0.0148,-0.006 z m 0.4577,-0.0349 c 0,-0.002 -0.0226,-0.004 -0.0502,-0.003 -0.0366,0.001 -0.0412,0.003 -0.017,0.007 0.0289,0.004 0.0312,0.007 0.0177,0.0239 -0.0125,0.0153 -0.009,0.0148 0.017,-0.002 0.0179,-0.0116 0.0325,-0.0232 0.0325,-0.0257 z m -0.32779,0.0231 c -0.008,-0.003 -0.0214,-0.003 -0.0295,0 -0.008,0.003 -0.002,0.006 0.0148,0.006 0.0163,0 0.0229,-0.003 0.0148,-0.006 z m 0.14176,-0.0118 c -0.008,-0.003 -0.0214,-0.003 -0.0295,0 -0.008,0.003 -0.002,0.006 0.0148,0.006 0.0162,0 0.0229,-0.003 0.0148,-0.006 z m -3.11895,-0.39043 c 0.005,0.008 0.009,0.009 0.009,0.003 0,-0.0352 -0.0194,-0.0394 -0.0532,-0.0114 l -0.035,0.029 0.035,-0.0173 c 0.027,-0.0134 0.0371,-0.014 0.0441,-0.003 z m 2.85023,-2.62556 c 0.0117,-0.013 0.0187,-0.0236 0.0155,-0.0236 -0.003,0 -0.0155,0.0106 -0.0273,0.0236 -0.0118,0.013 -0.0187,0.0236 -0.0155,0.0236 0.003,0 0.0155,-0.0106 0.0273,-0.0236 z m 0.13875,-0.16855 c 0.18465,-0.22555 0.3849,-0.50158 0.52615,-0.72526 0.17059,-0.27011 0.14509,-0.24407 -0.054,0.0552 -0.16286,0.24479 -0.3473,0.49791 -0.50286,0.69015 -0.0522,0.0645 -0.0889,0.11356 -0.0815,0.10903 0.007,-0.005 0.0579,-0.0626 0.11226,-0.12909 z m 0.65854,-0.94176 c 0.007,-0.013 0.01,-0.0236 0.007,-0.0236 -0.003,0 -0.0116,0.0106 -0.0186,0.0236 -0.007,0.013 -0.01,0.0236 -0.007,0.0236 0.003,0 0.0116,-0.0106 0.0186,-0.0236 z m 0.0354,-0.0591 c 0.007,-0.013 0.01,-0.0236 0.007,-0.0236 -0.003,0 -0.0116,0.0106 -0.0185,0.0236 -0.007,0.013 -0.01,0.0236 -0.007,0.0236 0.003,0 0.0116,-0.0106 0.0186,-0.0236 z"
           id="path9446-7"
           inkscape:connector-curvature="0"
           inkscape:export-xdpi="100.009"
           inkscape:export-ydpi="100.009" />
        <path
           style="display:inline;fill:#000000;fill-opacity:1;stroke:#000000;stroke-width:0.02232143;stroke-miterlimit:4;stroke-dasharray:none;stroke-opacity:1"
           d="m 382.6707,248.15483 v -1.64679 l 0.0502,-0.006 c 0.0276,-0.003 0.14854,-0.012 0.26872,-0.0189 1.22491,-0.071 2.93258,-0.2598 4.06915,-0.44981 1.46387,-0.24472 2.29504,-0.51246 2.71564,-0.87479 0.24528,-0.21129 0.31727,-0.39738 0.25471,-0.65837 -0.0991,-0.4132 -0.55301,-0.93327 -1.30555,-1.49567 -0.54741,-0.40912 -1.20497,-0.74204 -1.94445,-0.98445 -0.7221,-0.23672 -1.51038,-0.38311 -2.46068,-0.45702 -0.26749,-0.0208 -1.32763,-0.0288 -1.53848,-0.0116 l -0.10926,0.009 v -1.52497 -1.52497 l 0.0679,1.7e-4 c 0.16835,5.3e-4 0.93952,0.0244 1.13688,0.0354 1.69699,0.0941 2.84737,0.4162 4.78967,1.34093 0.38605,0.1838 1.28179,0.63388 2.1143,1.06237 2.2518,1.159 3.00509,1.49435 3.62621,1.61434 0.0502,0.01 0.16148,0.0158 0.28349,0.0155 0.27831,-5.3e-4 0.40001,-0.0315 0.77943,-0.19747 0.75159,-0.32887 1.66871,-0.88905 2.42746,-1.48272 0.7281,-0.56968 1.42747,-1.241 1.98378,-1.90422 0.74397,-0.88694 1.2425,-1.81762 1.31103,-2.44753 0.007,-0.0631 0.0125,-0.16806 0.0125,-0.23328 v -0.11858 h 2.1318 2.13179 l 0.006,0.0266 c 0.0299,0.13581 0.0424,1.01885 0.0186,1.31996 -0.0917,1.16081 -0.47427,2.25129 -1.14321,3.2584 -0.76608,1.15335 -1.96112,2.25301 -3.53465,3.25253 -2.0415,1.29678 -4.77219,2.50651 -8.34059,3.69499 -3.40748,1.13489 -6.53654,1.80848 -9.37705,2.01859 -0.17865,0.0132 -0.34741,0.0266 -0.37502,0.0298 l -0.0502,0.006 z m 8.2301,-2.77699 c -0.004,-0.004 -0.0136,0.005 -0.0213,0.0204 -0.0135,0.0264 -0.0132,0.0267 0.007,0.007 0.0118,-0.0112 0.0181,-0.0236 0.0142,-0.0276 z m 0.0852,-1.2812 c -0.0191,-0.0357 -0.0268,-0.0216 -0.0106,0.0194 0.007,0.0188 0.0159,0.0278 0.0188,0.02 0.003,-0.008 -7.9e-4,-0.0255 -0.008,-0.0394 z m 1.89007,-0.97381 c 0,-0.003 -0.0173,-0.014 -0.0384,-0.0242 l -0.0384,-0.0186 0.0279,0.0242 c 0.0261,0.0227 0.0489,0.0313 0.0489,0.0186 z"
           id="path9448-6"
           inkscape:connector-curvature="0"
           inkscape:export-xdpi="100.009"
           inkscape:export-ydpi="100.009" />
        <path
           style="display:inline;fill:#000000;fill-opacity:1;stroke:#000000;stroke-width:0.06313454;stroke-miterlimit:4;stroke-dasharray:none;stroke-opacity:1"
           d="m 379.98028,249.79849 c -3.39934,-0.1941 -6.27172,-1.15364 -8.31264,-2.7769 -0.41978,-0.33387 -1.22255,-1.12636 -1.58707,-1.56673 -1.50659,-1.82011 -2.72825,-4.10925 -3.55391,-6.65931 -0.51393,-1.58727 -0.80843,-3.04883 -0.97052,-4.81658 -0.19632,-2.14114 -0.16219,-2.81479 0.17943,-3.54131 0.20252,-0.4307 0.48461,-0.78555 1.17013,-1.47195 0.6669,-0.66775 0.9686,-0.92121 1.58811,-1.33416 2.03507,-1.35657 4.50763,-1.69322 8.56933,-1.16672 0.34912,0.0453 1.06323,0.14937 1.58691,0.23137 1.90882,0.29889 3.56732,0.47653 5.91334,0.63337 2.37602,0.15884 4.24006,0.21541 8.31876,0.25243 1.88342,0.0171 3.68749,0.0461 4.00905,0.0645 2.19471,0.12534 3.34216,0.34708 4.32642,0.8361 1.20457,0.59848 1.94019,1.52695 3.03296,3.82813 0.65667,1.38281 0.95007,2.28061 1.16206,3.55587 0.24705,1.48617 0.0349,2.88311 -0.63942,4.20949 -1.50104,2.95272 -5.39291,5.3792 -12.32538,7.68457 -2.77755,0.92366 -5.55104,1.57805 -7.91786,1.86817 -0.63751,0.0781 -1.67771,0.17339 -1.82209,0.16683 -0.0544,-0.002 -0.57999,0.003 -1.16799,0.0132 -0.58799,0.01 -1.28982,0.005 -1.55962,-0.0103 z m 0.92486,-3.2074 c 0.66149,-0.0176 1.4658,-0.0547 1.78736,-0.0825 0.32156,-0.0278 0.8703,-0.0736 1.21942,-0.10183 1.33754,-0.10811 2.83176,-0.30475 3.8063,-0.50092 1.5637,-0.31476 2.3242,-0.72692 2.3242,-1.25962 0,-0.56524 -1.05777,-1.60457 -2.23589,-2.19692 -0.82698,-0.4158 -1.70056,-0.66657 -2.87564,-0.82548 -0.64492,-0.0872 -2.53294,-0.0872 -3.14042,1e-5 -2.42453,0.34808 -4.34067,1.17153 -5.51543,2.37021 -0.52973,0.54051 -1.16431,1.57777 -1.08758,1.77772 0.0304,0.0792 0.44631,0.26141 0.9077,0.39771 1.00228,0.29608 1.55213,0.37916 2.77205,0.41885 0.42262,0.0138 0.78343,0.0272 0.80181,0.0298 0.0184,0.003 0.57463,-0.01 1.23612,-0.0271 z m -6.68256,-1.19756 c -0.0298,-0.0319 -0.0762,0.12853 -0.0573,0.19791 0.0192,0.0707 0.0248,0.0641 0.0449,-0.0531 0.0126,-0.0735 0.0182,-0.13868 0.0125,-0.14485 z m -2.42131,-2.12534 c 0,-0.008 -0.0676,-0.0616 -0.15034,-0.11853 -0.0827,-0.0569 -0.15034,-0.096 -0.15034,-0.087 0,0.014 0.26788,0.21474 0.29233,0.2191 0.005,8e-4 0.008,-0.005 0.008,-0.0136 z m -0.33409,-0.23028 c 0,-0.006 -0.0338,-0.0402 -0.0752,-0.0752 l -0.0752,-0.0636 0.0636,0.0752 c 0.0598,0.0706 0.0867,0.0904 0.0867,0.0636 z m 2.17157,-0.30679 c 0.22177,-0.0511 0.95173,-0.39448 1.10249,-0.51859 0.0735,-0.0605 0.0634,-0.059 -0.0835,0.0124 -0.27647,0.1343 -0.91703,0.3813 -1.21941,0.4702 -0.24958,0.0734 -0.26779,0.0836 -0.15034,0.0848 0.0735,7.9e-4 0.23135,-0.0212 0.35079,-0.0488 z m 21.38727,-0.19806 c 0.66729,-0.17381 2.02871,-0.97019 3.03448,-1.77507 0.52867,-0.42306 1.55165,-1.43119 1.91242,-1.88464 0.5298,-0.6659 0.96939,-1.42028 1.13385,-1.94581 0.11415,-0.36473 0.10753,-0.95402 -0.0159,-1.4182 -0.26826,-1.00859 -0.81439,-2.25136 -1.3389,-3.04679 -0.22203,-0.3367 -0.47133,-0.63843 -0.52752,-0.63843 -0.12629,0 -1.29954,1.03014 -2.56523,2.25235 -1.68472,1.62684 -2.72871,2.32639 -3.72286,2.49456 -0.31438,0.0532 -0.55326,0.022 -1.19374,-0.1558 -0.79777,-0.22146 -1.16244,-0.30565 -1.65007,-0.38092 -0.86748,-0.13392 -1.89406,-0.12188 -2.80633,0.0329 -0.33713,0.0572 -0.46135,0.0598 -1.50339,0.0315 -2.50939,-0.0682 -3.49919,-0.16759 -3.97435,-0.39892 -0.0742,-0.0361 -0.21751,-0.13365 -0.31844,-0.21672 -0.31512,-0.25935 -0.47075,-0.2485 -1.16893,0.0815 -0.74107,0.35027 -1.20715,0.4694 -1.83342,0.46863 -1.19275,-0.002 -2.27513,-0.62835 -3.22472,-1.86764 -0.44991,-0.58719 -0.64912,-0.91998 -1.38154,-2.308 -0.75668,-1.434 -0.98826,-1.81272 -1.3221,-2.16205 -0.24502,-0.25638 -0.40855,-0.32816 -0.67245,-0.29519 -0.98312,0.12283 -1.8924,1.67774 -2.1598,3.69335 -0.0599,0.45183 -0.051,1.44041 0.0169,1.87089 0.13682,0.86755 0.40377,1.86129 0.77383,2.88062 0.58945,1.62367 1.41025,3.20389 1.96135,3.77606 0.17027,0.17679 0.19676,0.1921 0.33218,0.1921 0.47499,0 1.69714,-0.54699 2.93221,-1.31234 1.3751,-0.85213 1.87348,-1.13288 2.38873,-1.34563 1.10379,-0.45576 1.78455,-0.56693 3.77518,-0.6165 2.84669,-0.0709 4.04487,0.13368 6.11308,1.04366 0.25764,0.11336 1.5208,0.73418 2.80704,1.37962 1.28623,0.64543 2.50398,1.2389 2.7061,1.31883 0.71839,0.28407 1.11345,0.35081 1.4924,0.25211 z m 7.16081,-6.72496 c -0.0266,-0.28412 -0.11052,-0.64301 -0.22192,-0.94853 -0.0942,-0.25848 -0.1115,-0.23401 -0.0281,0.0399 0.0951,0.31243 0.23297,0.94134 0.23297,1.06302 0,0.0575 0.009,0.10456 0.0206,0.10456 0.0113,0 0.01,-0.11652 -0.004,-0.25892 z m -17.49171,-1.32822 c 0.22813,-0.0944 0.65518,-0.19632 0.98746,-0.23564 0.16106,-0.0191 0.23,-0.0477 0.35079,-0.14562 0.0827,-0.067 0.20672,-0.1635 0.27562,-0.21435 0.11379,-0.084 0.12531,-0.10685 0.12554,-0.24944 5.3e-4,-0.26183 0.0643,-0.5816 0.15274,-0.76463 0.0816,-0.16893 0.0825,-0.17827 0.0338,-0.36749 -0.15893,-0.61799 -0.13563,-1.56624 0.0519,-2.11229 0.0342,-0.0995 0.0571,-0.18592 0.0509,-0.19207 -0.006,-0.006 -0.35573,0.005 -0.77684,0.0249 -0.42109,0.0198 -0.98363,0.0261 -1.25006,0.0139 -0.52453,-0.024 -0.86493,0.007 -1.33634,0.12221 -1.13996,0.27833 -1.40358,0.89627 -0.8126,1.90465 0.18483,0.31537 0.57037,0.80896 1.13076,1.44768 0.29018,0.33075 0.5735,0.66564 0.6296,0.74422 0.0561,0.0786 0.11761,0.13614 0.1367,0.12795 0.0191,-0.008 0.13158,-0.055 0.24997,-0.10399 z m 7.63579,-0.34065 c 0.28028,-0.0618 0.64672,-0.20307 0.91003,-0.35071 0.25933,-0.14541 1.40075,-1.28501 1.64018,-1.63757 0.25141,-0.37022 0.37083,-0.64363 0.39522,-0.90487 0.0183,-0.19563 0.0104,-0.24146 -0.0693,-0.40433 -0.15188,-0.31043 -0.50913,-0.52203 -1.13586,-0.67276 -1.01104,-0.24318 -2.48866,-0.26948 -5.46538,-0.0973 -0.48693,0.0282 -0.9329,0.0586 -0.99103,0.0676 l -0.10571,0.0164 0.0637,0.18115 c 0.035,0.0996 0.088,0.32094 0.1177,0.4918 0.0728,0.41825 0.0495,1.30452 -0.0434,1.65312 l -0.0639,0.23997 1.07094,0.53605 c 1.29865,0.65002 1.84016,0.84704 2.57797,0.93799 0.29252,0.0361 0.79704,0.0101 1.09885,-0.0565 z m -13.74508,-0.2637 c 1.01771,-0.41144 1.707,-1.01173 1.99113,-1.73402 0.0846,-0.215 0.0921,-0.2716 0.0932,-0.70159 10e-4,-0.42553 -0.007,-0.49199 -0.0913,-0.73677 -0.40773,-1.18684 -1.59608,-2.1491 -2.73055,-2.21104 -0.73728,-0.0403 -1.3679,0.32522 -1.71788,0.99558 l -0.1309,0.25075 0.15258,0.38302 c 0.0839,0.21066 0.26123,0.66866 0.39406,1.01778 0.67612,1.77726 1.16723,2.59935 1.65713,2.77398 0.16626,0.0593 0.13512,0.0623 0.38254,-0.0377 z m 3.57787,-0.15773 c -0.04,-0.0426 -0.13659,-0.11092 -0.21463,-0.15186 -0.0922,-0.0484 -0.11329,-0.0534 -0.0602,-0.0144 0.0449,0.033 0.13512,0.10031 0.20045,0.14958 0.14803,0.11164 0.16772,0.11607 0.0744,0.0168 z m 16.70202,-2.83402 c 0.0972,-0.0462 0.14985,-0.0891 0.13162,-0.1073 -0.0448,-0.0448 -0.27192,0.10041 -0.64451,0.4121 -0.17916,0.14987 -0.32574,0.27853 -0.32574,0.28591 0,0.007 0.15224,-0.10522 0.33831,-0.2502 0.18607,-0.14498 0.41121,-0.29821 0.50032,-0.34051 z"
           id="path9450-9"
           inkscape:connector-curvature="0"
           inkscape:export-xdpi="100.009"
           inkscape:export-ydpi="100.009" />
        <path
           style="display:inline;fill:#000000;fill-opacity:1;stroke:#000000;stroke-width:0.06313454;stroke-miterlimit:4;stroke-dasharray:none;stroke-opacity:1"
           d="m 379.56879,249.7935 c -3.10596,-0.24689 -5.76095,-1.13957 -7.68305,-2.58326 -0.62099,-0.46642 -1.48593,-1.31817 -2.02234,-1.99149 -1.99659,-2.50618 -3.52032,-6.00877 -4.09028,-9.4023 -0.20791,-1.23791 -0.33261,-2.61417 -0.33449,-3.69165 -10e-4,-0.74432 0.005,-0.84577 0.0747,-1.11919 0.19309,-0.76291 0.6266,-1.36036 1.75408,-2.41735 1.44621,-1.35581 2.92594,-2.0393 4.96819,-2.29482 0.59649,-0.0746 1.89072,-0.0993 2.6894,-0.0512 1.12364,0.0676 1.81692,0.1478 3.64155,0.42111 2.28457,0.34222 3.67142,0.49018 6.08038,0.64871 2.27698,0.14984 3.65659,0.19307 7.51696,0.23554 4.37793,0.0482 5.27723,0.0807 6.51408,0.2355 1.76716,0.22122 2.87148,0.67504 3.72874,1.53232 0.51868,0.51868 0.9687,1.2076 1.58418,2.42518 0.7948,1.57232 1.19679,2.70686 1.42048,4.00904 0.31453,1.83091 -0.0252,3.49015 -1.02949,5.028 -0.58622,0.89768 -1.45984,1.78656 -2.56535,2.61015 -2.09421,1.56016 -5.26262,3.03786 -9.51252,4.43649 -3.28142,1.0799 -6.49722,1.76607 -9.22729,1.96887 -0.51519,0.0383 -3.02774,0.0385 -3.50791,2.6e-4 z m 1.82077,-3.23721 c 1.34909,-0.0523 3.14903,-0.20521 4.54359,-0.38589 1.66272,-0.21542 2.7621,-0.46343 3.39098,-0.76497 0.92344,-0.44279 0.91709,-0.96109 -0.023,-1.87512 -1.00993,-0.98194 -2.33588,-1.57443 -4.1531,-1.85576 -0.5521,-0.0855 -2.26759,-0.12338 -2.96017,-0.0654 -1.43744,0.12034 -3.16927,0.61563 -4.30621,1.23154 -1.07706,0.58346 -1.78156,1.23514 -2.35777,2.18093 -0.32102,0.52695 -0.37783,0.71857 -0.23976,0.80872 0.25728,0.16796 1.33621,0.49362 2.01287,0.60756 0.81414,0.13708 2.41634,0.18344 4.09257,0.11839 z m -7.71511,-3.86116 c 0.19837,-0.0586 0.70806,-0.28283 0.68817,-0.30272 -0.007,-0.007 -0.15368,0.0423 -0.32637,0.10917 -0.17269,0.0668 -0.38539,0.14288 -0.47267,0.16895 -0.15557,0.0465 -0.20211,0.0782 -0.11464,0.0782 0.0242,0 0.1257,-0.0241 0.22551,-0.0536 z m 21.50701,-0.23257 c 0.71591,-0.23936 2.1001,-1.08549 3.00196,-1.83503 0.44167,-0.36708 1.45659,-1.37418 1.74742,-1.73397 0.31683,-0.39195 0.72948,-1.02614 0.92756,-1.42553 0.38609,-0.77851 0.40822,-1.36184 0.0898,-2.36744 -0.35583,-1.12372 -1.06613,-2.53356 -1.55793,-3.09228 -0.073,-0.0829 -0.15349,-0.15078 -0.17888,-0.15078 -0.11266,0 -1.06559,0.834 -2.387,2.08909 -1.5112,1.43537 -2.17566,1.95462 -3.009,2.35144 -0.78487,0.37374 -1.16584,0.38921 -2.25721,0.0916 -0.83842,-0.2286 -1.22732,-0.30967 -1.80958,-0.37724 -0.6224,-0.0722 -1.59677,-0.0488 -2.35599,0.0566 -0.55918,0.0776 -0.56797,0.0778 -1.9043,0.0367 -1.80047,-0.0554 -2.57622,-0.11129 -3.14659,-0.22667 -0.38768,-0.0784 -0.53305,-0.14038 -0.8242,-0.35131 -0.27759,-0.20109 -0.27878,-0.20156 -0.47874,-0.18792 -0.1522,0.0104 -0.29292,0.0561 -0.58465,0.18978 -0.88381,0.40512 -1.29799,0.5125 -1.97111,0.51103 -0.37234,-7.9e-4 -0.50779,-0.0157 -0.77649,-0.0855 -0.85499,-0.22209 -1.56529,-0.70879 -2.28046,-1.56259 -0.50794,-0.60638 -0.73058,-0.96814 -1.6218,-2.6352 -0.75483,-1.41191 -0.92954,-1.69483 -1.26532,-2.04898 -0.22254,-0.23472 -0.36954,-0.3015 -0.61941,-0.28145 -1.21383,0.0974 -2.31357,2.51432 -2.20813,4.85278 0.0344,0.76374 0.17821,1.50402 0.50197,2.58447 0.54972,1.83457 1.6029,4.0267 2.27745,4.74039 0.15524,0.16425 0.17598,0.17539 0.32629,0.17539 0.47738,0 1.55643,-0.4764 2.84287,-1.25513 0.38586,-0.23359 0.8895,-0.53779 1.11919,-0.676 1.15077,-0.6925 1.95736,-1.01319 2.95666,-1.17552 0.68721,-0.11163 1.37103,-0.14599 2.92327,-0.14686 1.63475,-7.9e-4 1.97382,0.0238 2.90511,0.21218 1.2516,0.25311 2.02018,0.57598 5.42948,2.28086 0.95501,0.47757 1.93974,0.96211 2.18827,1.07677 0.98211,0.45304 1.47185,0.54278 1.9995,0.36636 z m -10.38421,-8.02969 c 0.15619,-0.0546 0.41928,-0.12367 0.58465,-0.15346 0.16538,-0.0298 0.35413,-0.068 0.41946,-0.0848 0.11021,-0.0284 0.59879,-0.37594 0.60009,-0.42682 0.007,-0.25535 0.0838,-0.68981 0.1537,-0.86464 l 0.0875,-0.21862 -0.0624,-0.27149 c -0.05,-0.21753 -0.0618,-0.39771 -0.0595,-0.90627 0.003,-0.56925 0.0118,-0.66752 0.0881,-0.95215 0.0468,-0.17456 0.0829,-0.32 0.0803,-0.32319 -0.003,-0.003 -0.66615,0.006 -1.47451,0.021 -1.43334,0.0261 -1.47802,0.029 -1.80383,0.11405 -1.10959,0.2898 -1.3962,0.81371 -0.93904,1.71658 0.19048,0.37619 0.53625,0.8297 1.30728,1.71462 0.18527,0.21264 0.40371,0.4726 0.48544,0.57769 0.0963,0.12388 0.1662,0.18505 0.1987,0.17395 0.0276,-0.009 0.1779,-0.0618 0.33408,-0.11641 z m 7.24482,-0.27152 c 0.33313,-0.0418 0.74324,-0.16668 1.0443,-0.31807 0.41517,-0.20877 1.50004,-1.27564 1.85743,-1.82661 0.38676,-0.59627 0.40919,-1.08 0.0651,-1.40364 -0.2493,-0.23449 -0.86047,-0.44136 -1.6256,-0.55025 -0.78024,-0.11104 -3.75052,-0.0687 -5.58928,0.0798 -0.22089,0.0178 -0.25736,0.0292 -0.23936,0.0746 0.0742,0.18688 0.15572,0.60721 0.17897,0.92215 0.0316,0.42769 -0.008,1.12304 -0.0784,1.38491 -0.027,0.10021 -0.0459,0.18497 -0.042,0.18837 0.0426,0.037 1.84077,0.91603 2.10318,1.02812 0.91373,0.39027 1.59117,0.51282 2.32572,0.42071 z m -13.42289,-0.31965 c 0.92663,-0.37653 1.58826,-0.94461 1.9083,-1.63851 0.0971,-0.21051 0.10668,-0.26309 0.12041,-0.66005 0.022,-0.63597 -0.0817,-0.99083 -0.45494,-1.5565 -0.57752,-0.87529 -1.5674,-1.47079 -2.44287,-1.46958 -0.74211,0.001 -1.29939,0.36456 -1.66384,1.08538 l -0.0676,0.13364 0.24757,0.63476 c 0.57166,1.46572 0.666,1.69391 0.89775,2.17157 0.37739,0.77777 0.64512,1.14533 0.95007,1.30424 0.19428,0.10124 0.245,0.10075 0.50512,-0.005 z"
           id="path9454-1"
           inkscape:connector-curvature="0"
           inkscape:export-xdpi="100.009"
           inkscape:export-ydpi="100.009" />
        <path
           style="display:inline;fill:#000000;fill-opacity:1;stroke:#000000;stroke-width:0.03156727;stroke-miterlimit:4;stroke-dasharray:none;stroke-opacity:1"
           d="m 402.73477,268.65499 c -0.27821,-0.1349 -0.81575,-0.28063 -1.31964,-0.35777 -0.37636,-0.0576 -0.37101,-0.0671 0.0334,-0.0594 0.64184,0.0123 0.9353,0.0945 1.2987,0.36386 0.17885,0.13254 0.17601,0.14465 -0.0125,0.0533 z"
           id="path9456-3"
           inkscape:connector-curvature="0"
           inkscape:export-xdpi="100.009"
           inkscape:export-ydpi="100.009" />
        <path
           style="display:inline;fill:#000000;fill-opacity:1;stroke:#000000;stroke-width:0.00558036;stroke-miterlimit:4;stroke-dasharray:none;stroke-opacity:1"
           d="m 401.0469,268.24685 -0.0576,-0.008 0.031,-0.002 c 0.0171,-10e-4 0.0476,-0.003 0.0679,-0.004 l 0.0369,-0.002 v 0.0121 c 0,0.0119 -1.5e-4,0.0121 -0.0104,0.0117 -0.006,-2.2e-4 -0.0362,-0.004 -0.0679,-0.008 z"
           id="path9458-2"
           inkscape:connector-curvature="0"
           inkscape:export-xdpi="100.009"
           inkscape:export-ydpi="100.009" />
        <path
           style="display:inline;fill:#000000;fill-opacity:1;stroke:#000000;stroke-width:0.00558036;stroke-miterlimit:4;stroke-dasharray:none;stroke-opacity:1"
           d="m 402.91565,268.74644 -0.0315,-0.0169 0.007,-0.008 0.007,-0.008 0.0268,0.0237 c 0.0372,0.0329 0.0364,0.0337 -0.009,0.009 z"
           id="path9460-1"
           inkscape:connector-curvature="0"
           inkscape:export-xdpi="100.009"
           inkscape:export-ydpi="100.009" />
        <path
           style="display:inline;fill:#000000;fill-opacity:1;stroke:#000000;stroke-width:0.08928572;stroke-miterlimit:4;stroke-dasharray:none;stroke-opacity:1"
           d="m 397.34448,278.73917 c 0.0157,-0.0157 0.0565,-0.0174 0.0906,-0.004 0.0377,0.0151 0.0265,0.0263 -0.0285,0.0285 -0.0498,0.002 -0.0777,-0.009 -0.062,-0.0248 z"
           id="path9468-3"
           inkscape:connector-curvature="0"
           inkscape:export-xdpi="100.009"
           inkscape:export-ydpi="100.009" />
        <path
           style="display:inline;fill:#000000;fill-opacity:1;stroke:#000000;stroke-width:0.01116071;stroke-miterlimit:4;stroke-dasharray:none;stroke-opacity:1"
           d="m 395.89048,278.87879 c 0.52592,-0.0346 0.8873,-0.0711 1.37641,-0.13912 l 0.0269,-0.004 10e-4,0.0272 c 8e-4,0.015 2.6e-4,0.0272 -10e-4,0.0272 -10e-4,0 -0.042,0.005 -0.0903,0.0116 -0.21496,0.0284 -0.49734,0.0544 -0.77583,0.0714 -0.0569,0.003 -0.21896,0.007 -0.36026,0.009 -0.18687,0.002 -0.23517,7.9e-4 -0.17718,-0.003 z"
           id="path9472-7"
           inkscape:connector-curvature="0"
           inkscape:export-xdpi="100.009"
           inkscape:export-ydpi="100.009" />
        <path
           style="display:inline;fill:#000000;fill-opacity:1;stroke:#000000;stroke-width:0.01116071;stroke-miterlimit:4;stroke-dasharray:none;stroke-opacity:1"
           d="m 397.50278,278.75086 c 0,-0.005 -0.004,-0.0162 -0.009,-0.0257 -0.005,-0.01 -0.008,-0.0175 -0.007,-0.0175 8e-4,-7e-5 0.0947,-0.0158 0.20833,-0.035 0.33369,-0.0563 0.6283,-0.11386 0.95604,-0.1868 0.1655,-0.0368 0.18565,-0.0408 0.18026,-0.0354 -0.005,0.005 -0.31916,0.0938 -0.45121,0.12737 -0.24029,0.0611 -0.52283,0.12117 -0.76039,0.16159 -0.0949,0.0162 -0.11664,0.0183 -0.11664,0.0115 z"
           id="path9476-5"
           inkscape:connector-curvature="0"
           inkscape:export-xdpi="100.009"
           inkscape:export-ydpi="100.009" />
        <ellipse
           style="display:inline;fill:#000000;fill-opacity:1;stroke:#000000;stroke-width:0.5;stroke-miterlimit:4;stroke-dasharray:none;stroke-opacity:1"
           id="path9478-0"
           cx="397.15369"
           cy="278.71753"
           rx="1.9784691"
           ry="0.34549385"
           inkscape:export-xdpi="100.009"
           inkscape:export-ydpi="100.009" />
        <ellipse
           style="display:inline;fill:#000000;fill-opacity:1;stroke:#000000;stroke-width:0.5;stroke-miterlimit:4;stroke-dasharray:none;stroke-opacity:1"
           id="path9480-2"
           cx="415.71866"
           cy="259.07687"
           rx="1.0857824"
           ry="1.5200955"
           inkscape:export-xdpi="100.009"
           inkscape:export-ydpi="100.009" />
        <ellipse
           style="display:inline;fill:#000000;fill-opacity:1;stroke:#000000;stroke-width:0.5;stroke-miterlimit:4;stroke-dasharray:none;stroke-opacity:1"
           id="path9482-1"
           cx="417.08841"
           cy="260.27121"
           rx="0.86862594"
           ry="0.81016076"
           inkscape:export-xdpi="100.009"
           inkscape:export-ydpi="100.009" />
        <ellipse
           style="display:inline;fill:#000000;fill-opacity:1;stroke:#000000;stroke-width:0.5;stroke-miterlimit:4;stroke-dasharray:none;stroke-opacity:1"
           id="path9484-8"
           cx="418.3663"
           cy="261.24011"
           rx="0.57629991"
           ry="0.35914341"
           inkscape:export-xdpi="100.009"
           inkscape:export-ydpi="100.009" />
        <ellipse
           style="display:inline;fill:#000000;fill-opacity:1;stroke:#000000;stroke-width:0.5;stroke-miterlimit:4;stroke-dasharray:none;stroke-opacity:1"
           id="path9486-5"
           cx="418.04056"
           cy="261.03961"
           rx="0.8018086"
           ry="0.39255211"
           inkscape:export-xdpi="100.009"
           inkscape:export-ydpi="100.009" />
        <ellipse
           style="display:inline;fill:#000000;fill-opacity:1;stroke:#000000;stroke-width:0.5;stroke-miterlimit:4;stroke-dasharray:none;stroke-opacity:1"
           id="path9488-7"
           cx="418.2243"
           cy="260.67215"
           rx="0.45101732"
           ry="0.59300429"
           inkscape:export-xdpi="100.009"
           inkscape:export-ydpi="100.009" />
        <path
           style="display:inline;fill:#1a1a1a;fill-opacity:1;stroke:#000000;stroke-width:0.08928572;stroke-miterlimit:4;stroke-dasharray:none;stroke-opacity:1"
           d="m 381.55414,254.50198 c -0.89785,-0.16566 -1.86626,-0.75934 -1.86626,-1.14411 0,-0.25431 0.30058,-0.54396 0.71558,-0.68957 0.83392,-0.2926 1.95287,-0.0764 2.51523,0.48595 0.28394,0.28393 0.34476,0.50265 0.21457,0.7716 -0.25559,0.52797 -0.78777,0.72213 -1.57912,0.57613 z"
           id="path4807-1"
           inkscape:connector-curvature="0"
           inkscape:export-xdpi="100.009"
           inkscape:export-ydpi="100.009" />
        <path
           style="display:inline;fill:#000000;fill-opacity:1;stroke:#000000;stroke-width:0.08928572;stroke-miterlimit:4;stroke-dasharray:none;stroke-opacity:1"
           d="m 381.61383,254.46008 c -0.73226,-0.12329 -1.64829,-0.6125 -1.8196,-0.97174 -0.0713,-0.14947 -0.0723,-0.18012 -0.01,-0.29196 0.0386,-0.0687 0.16155,-0.19468 0.27327,-0.27989 0.66484,-0.50708 2.06584,-0.39129 2.77249,0.22916 0.4114,0.36121 0.40639,0.70866 -0.0157,1.09002 -0.2711,0.24493 -0.65408,0.31649 -1.20091,0.22441 z"
           id="path4809-5"
           inkscape:connector-curvature="0"
           inkscape:export-xdpi="100.009"
           inkscape:export-ydpi="100.009" />
        <path
           style="display:inline;fill:#00ff00;stroke-width:0.03340869"
           d="m 438.97851,232.3942 c -0.68924,-0.0576 -1.14722,-0.22795 -1.68884,-0.62806 -0.18647,-0.13774 -0.71057,-0.63682 -1.44517,-1.37614 -0.63393,-0.63801 -1.26536,-1.25719 -1.40317,-1.37595 -1.76134,-1.51791 -3.89254,-2.589 -5.83817,-2.93412 l -0.24221,-0.043 v -0.44567 c 0,-0.28969 0.0123,-0.44566 0.0352,-0.44566 0.10544,0 1.36903,0.26695 2.13639,0.45134 0.98319,0.23626 1.42673,0.32365 2.02123,0.39826 1.30819,0.16417 2.61385,0.15857 4.02575,-0.0172 1.7596,-0.21913 3.33915,-0.65027 5.31298,-1.45018 1.05781,-0.42869 1.28923,-0.49694 1.66943,-0.49237 0.70034,0.008 1.3265,0.41059 1.85855,1.19373 0.7397,1.08875 0.82499,1.90092 0.30861,2.93855 -0.38559,0.77482 -1.1906,1.70902 -2.31577,2.68741 -1.13343,0.98559 -1.77904,1.34621 -2.66727,1.48986 -0.38211,0.0618 -1.30857,0.0876 -1.76751,0.0492 z"
           id="path70-9"
           inkscape:connector-curvature="0"
           inkscape:export-xdpi="100.009"
           inkscape:export-ydpi="100.009" />
        <ellipse
           style="display:inline;fill:#000000;fill-opacity:1;stroke:#000000;stroke-width:0.5;stroke-miterlimit:4;stroke-dasharray:none;stroke-opacity:1"
           id="path4802-7"
           cx="371.41586"
           cy="212.1376"
           rx="1.9371281"
           ry="0.68508184"
           inkscape:export-xdpi="100.009"
           inkscape:export-ydpi="100.009" />
        <ellipse
           style="display:inline;fill:#000000;fill-opacity:1;stroke:#000000;stroke-width:0.69258273;stroke-miterlimit:4;stroke-dasharray:none;stroke-opacity:1"
           id="path4805-5"
           cx="261.51367"
           cy="-372.02951"
           rx="1.3340466"
           ry="2.3794284"
           transform="matrix(0.10374424,0.99460401,-0.99140026,0.1308645,0,0)"
           inkscape:export-xdpi="100.009"
           inkscape:export-ydpi="100.009" />
      </g>
    </g>
    <text
       x="34.567093"
       xml:space="preserve"
       style="font-style:normal;font-weight:normal;font-size:10.69306564px;line-height:1.25;font-family:sans-serif;letter-spacing:0px;word-spacing:0px;display:inline;fill:#000000;fill-opacity:1;stroke:none;stroke-width:0.26732665"
       id="text67-4"
       y="-211.62239"
       transform="matrix(0.49360622,0.8682236,-0.86940342,0.49667817,429.18399,-160.84462)"
       inkscape:export-xdpi="100.009"
       inkscape:export-ydpi="100.009"
       inkscape:transform-center-x="-3.4457169"
       inkscape:transform-center-y="15.796063"><textPath
         xlink:href="#path4916-6"
         id="textPath69-3"
         style="font-size:10.69306564px;stroke-width:0.26732665"><tspan
   style="font-size:10.69306564px;stroke-width:0.26732665"
   id="tspan63-6"
   y="-699.97034"
   x="154.46518" /></textPath></text>
    <flowRoot
       xml:space="preserve"
       id="flowRoot9734"
       style="font-style:normal;font-weight:normal;font-size:40px;line-height:1.25;font-family:sans-serif;letter-spacing:0px;word-spacing:0px;fill:#000000;fill-opacity:1;stroke:none"><flowRegion
         id="flowRegion9736"><rect
           id="rect9738"
           width="591.42859"
           height="91.428574"
           x="988.57141"
           y="335.12936" /></flowRegion><flowPara
         id="flowPara9740" /></flowRoot>    <flowRoot
       xml:space="preserve"
       id="flowRoot9750"
       style="font-style:normal;font-weight:normal;font-size:40px;line-height:1.25;font-family:sans-serif;letter-spacing:0px;word-spacing:0px;fill:#000000;fill-opacity:1;stroke:none"><flowRegion
         id="flowRegion9752"><rect
           id="rect9754"
           width="1920"
           height="1382.8572"
           x="871.42859"
           y="-634.87067" /></flowRegion><flowPara
         id="flowPara9756" /></flowRoot>    <text
       y="111.72324"
       x="-382.25745"
       xml:space="preserve"
       style="font-style:normal;font-weight:normal;font-size:10.58333302px;line-height:1.25;font-family:sans-serif;letter-spacing:0px;word-spacing:0px;display:inline;fill:#000000;fill-opacity:1;stroke:none;stroke-width:0.26458332"
       id="text9842-1"
       transform="translate(-343.12446,164.30165)"
       inkscape:export-xdpi="299.94849"
       inkscape:export-ydpi="299.94849"><textPath
         style="stroke-width:0.26458332"
         xlink:href="#path9687-4"
         id="textPath10051-1"><tspan
   style="stroke-width:0.26458332"
   id="tspan9840-6"><tspan
     style="stroke-width:0.26458332"
     id="tspan9838-8"
     y="294.40244"
     x="-113.89451">Bitte gehen Sie ins <tspan
   style="font-weight:bold;stroke-width:0.26458332"
   id="tspan9850-0">Pandemie</tspan>-Kontrollzentrum im Erdgeschoss (<tspan
   style="font-weight:bold;stroke-width:0.26458332"
   id="tspan9848-1">Raum 019</tspan>) </tspan></tspan></textPath></text>
    <flowRoot
       xml:space="preserve"
       id="flowRoot10108"
       style="font-style:normal;font-weight:normal;font-size:40px;line-height:1.25;font-family:sans-serif;letter-spacing:0px;word-spacing:0px;fill:#000000;fill-opacity:1;stroke:none"><flowRegion
         id="flowRegion10110"><rect
           id="rect10112"
           width="1005.7143"
           height="915.71429"
           x="45.714287"
           y="-120.58492" /></flowRegion><flowPara
         id="flowPara10114" /></flowRoot>    <flowRoot
       xml:space="preserve"
       id="flowRoot4834"
       style="fill:black;fill-opacity:1;stroke:none;font-family:sans-serif;font-style:normal;font-weight:normal;font-size:40px;line-height:1.25;letter-spacing:0px;word-spacing:0px"><flowRegion
         id="flowRegion4836"><rect
           id="rect4838"
           width="1446.5385"
           height="1325.3202"
           x="-264.65997"
           y="-394.86334" /></flowRegion><flowPara
         id="flowPara4840"></flowPara></flowRoot>  </g>
  <g
     inkscape:groupmode="layer"
     id="layer3"
     inkscape:label="biohazard"
     style="display:none"
     transform="translate(-33.072008,-1.400877)">
    <path
       style="fill:#ea0808;fill-opacity:1;stroke:none;stroke-width:0.11533946"
       d="m 106.70229,149.30798 c -9.866993,-1.52047 -18.364063,-6.25349 -24.541283,-13.6699 -0.44796,-0.53783 -0.78921,-1.01875 -0.75833,-1.06871 0.0309,-0.05 0.29911,-0.21478 0.59608,-0.36625 l 0.53993,-0.2754 1.15519,1.1711 c 4.34763,4.40753 9.91722,7.12602 16.22638,7.92003 1.709563,0.21514 6.167423,0.0923 7.647083,-0.2107 2.21907,-0.45444 3.93577,-0.90186 4.49824,-1.17238 0.12687,-0.061 0.63277,-0.26762 1.12422,-0.45911 3.22652,-1.25722 6.25565,-3.2731 8.91973,-5.93605 1.72641,-1.72568 2.56554,-2.76372 3.73656,-4.62232 1.28239,-2.03534 2.67623,-5.08837 3.15945,-6.92036 0.81033,-3.07213 1.01377,-4.61289 1.01277,-7.67008 -7.9e-4,-2.74409 -0.0866,-3.53902 -0.64685,-5.99765 -0.43969,-1.92968 -1.38931,-4.65478 -2.06991,-5.93998 -0.21502,-0.40603 -0.19161,-0.43322 0.85388,-0.99218 0.3489,-0.18654 0.94578,-0.542 1.3264,-0.78993 0.38062,-0.24792 0.79958,-0.45442 0.93102,-0.45889 0.13613,-0.005 0.58291,0.29438 1.03806,0.6947 0.9945,0.87472 2.37406,1.5678 3.45993,1.73825 0.43988,0.069 1.42395,0.0989 2.18836,0.0665 1.97813,-0.084 3.05784,-0.53628 4.66047,-1.95222 0.34571,-0.30543 0.69812,-0.55533 0.78314,-0.55533 0.1917,0 0.88795,0.35141 1.54884,0.78173 0.27481,0.17893 0.68988,0.42304 0.92239,0.54247 0.23251,0.11942 0.52979,0.29853 0.66063,0.39801 l 0.23788,0.18088 -0.35174,0.73672 c -1.36173,2.85204 -2.28668,6.44285 -2.52873,9.81685 -0.19195,2.6757 -0.0772,4.03533 0.70094,8.30444 0.085,0.46639 0.41438,1.47829 1.14506,3.51785 0.83838,2.34021 2.95129,5.76434 5.03204,8.15479 3.22593,3.70608 8.61632,6.91805 13.59685,8.10194 2.76953,0.65832 3.14576,0.69823 6.57435,0.69731 l 3.2295,-10e-4 2.03443,-0.42248 c 5.39303,-1.11997 9.31321,-3.19292 13.66746,-7.22718 l 1.6019,-1.4842 0.54477,0.30024 c 0.29962,0.16513 0.54551,0.32796 0.54642,0.36183 10e-4,0.0339 -0.32273,0.45174 -0.71921,0.92858 -1.99597,2.40051 -4.04998,4.36627 -6.35388,6.08091 -0.70805,0.52695 -1.46901,1.09759 -1.69104,1.26808 -1.06853,0.82053 -4.05559,2.48644 -5.99871,3.3455 -3.25182,1.43767 -5.98388,2.25603 -9.97581,2.98816 -1.67297,0.30682 -1.86337,0.31738 -5.76697,0.3193 -3.69001,0.002 -4.17563,-0.021 -5.65163,-0.26603 -4.24218,-0.70421 -7.73286,-1.79333 -11.32749,-3.53432 -1.90386,-0.92209 -4.54141,-2.46791 -5.56306,-3.2604 -0.35258,-0.27347 -0.97137,-0.73841 -1.37509,-1.03316 -0.85349,-0.62311 -0.59641,-0.69772 -2.50113,0.72581 -3.87682,2.89741 -8.87353,5.19527 -14.00808,6.44199 -3.19132,0.77488 -4.25529,0.8933 -8.41977,0.93704 -3.61366,0.038 -3.97965,0.0227 -5.65164,-0.2349 z m 16.14752,-20.52751 c -4.75391,-2.04591 -9.28116,-5.32163 -12.44422,-9.00409 -2.60543,-3.03326 -4.56192,-6.12801 -5.8473,-9.24921 -0.23013,-0.5588 -0.52003,-1.24127 -0.64424,-1.5166 -0.29349,-0.65061 -1.4133,-4.58677 -1.58027,-5.55472 -0.64412,-3.733906 -0.77675,-8.961916 -0.28921,-11.399626 l 0.073,-0.364998 h 1.30399 c 1.76533,0 4.59227,0.382928 6.18326,0.837568 1.3017,0.37198 1.3073,0.37509 1.29195,0.71957 -0.008,0.19028 -0.0732,1.11366 -0.14386,2.05196 -0.38261,5.081406 1.12277,10.777716 4.05749,15.353486 1.17159,1.82673 2.28141,3.17193 3.91725,4.74807 2.05219,1.9773 4.39738,3.59281 6.89031,4.74649 1.30618,0.60446 1.3261,0.6195 1.30667,0.98597 -0.0624,1.17726 -1.45969,5.07094 -2.35036,6.54973 -0.25065,0.41615 -0.45688,0.80542 -0.45829,0.86505 -10e-4,0.0596 -0.0922,0.21983 -0.20184,0.35602 l -0.19928,0.24762 z m 26.21057,-0.0275 c -0.39713,-0.56164 -1.29351,-2.43491 -1.88911,-3.94793 -0.59114,-1.50165 -1.19482,-3.74805 -1.06408,-3.95959 0.0409,-0.0662 0.60043,-0.36852 1.24335,-0.67178 3.28445,-1.54927 5.45264,-3.17577 8.3843,-6.28959 1.92898,-2.04883 3.755,-5.00224 4.84304,-7.83309 0.68997,-1.79517 1.39586,-4.64877 1.60847,-6.502326 0.11812,-1.02974 0.0978,-5.24683 -0.0306,-6.35207 -0.0307,-0.26446 0.0442,-0.30574 1.1798,-0.64978 1.64969,-0.4998 3.38093,-0.751472 5.66658,-0.82375 l 1.91961,-0.0607 0.0698,0.33163 c 0.28215,1.33966 0.39565,6.16862 0.18807,8.00168 -0.44147,3.898536 -1.01009,6.253626 -2.3253,9.630846 -0.84374,2.16659 -2.56891,5.41901 -3.64015,6.86269 -2.94845,3.97358 -4.67059,5.74843 -7.97259,8.21656 -1.85953,1.38994 -3.32334,2.27331 -5.61456,3.38825 -2.17487,1.05835 -2.26742,1.08209 -2.56663,0.65895 z m -73.128523,-3.64315 c -0.3241,-0.68948 -1.44163,-4.3086 -1.73593,-5.62178 -1.2291,-5.48429 -1.20872,-11.94856 0.0546,-17.30092 2.12414,-8.999836 7.24266,-16.745226 14.84085,-22.457286 2.08886,-1.570329 5.97698,-3.741111 8.32614,-4.64856 0.99449,-0.38417 0.96136,-0.327679 0.79281,-1.35169 -0.30849,-1.874269 -0.43946,-5.198758 -0.29545,-7.499729 0.12507,-1.99836 0.50909,-4.936781 0.82526,-6.314662 0.6251,-2.724189 1.907863,-6.304619 3.137793,-8.758199 0.92057,-1.83647 1.08589,-2.1187 2.47038,-4.21749 3.01577,-4.57168 7.13923,-8.54013 12.12188,-11.66618 0.83127,-0.52153 3.77766,-2.01438 5.16861,-2.61878 1.79136,-0.77839 4.8817,-1.71579 7.05861,-2.14112 2.92134,-0.57077 2.6236,-0.59145 2.66428,0.18503 0.0411,0.78366 0.0332,0.78985 -1.35218,1.06743 -2.76246,0.5535 -7.02885,2.57772 -9.81246,4.65559 -1.04256,0.77824 -4.21341,3.9159 -5.09271,5.03941 -0.815,1.04134 -1.95366,2.82397 -2.64863,4.14654 -0.61663,1.17349 -1.64158,3.71544 -1.8858,4.67693 -0.99253,3.90751 -1.14685,4.95047 -1.1434,7.727742 0.003,2.506329 0.20136,4.039108 0.87056,6.730648 1.32499,5.32911 4.58003,10.568871 8.63194,13.89512 2.30617,1.89316 3.92508,2.933771 6.20675,3.989591 2.54513,1.17774 4.94074,1.872319 7.57562,2.19647 0.82467,0.10146 1.72,0.212051 1.9896,0.245769 l 0.4902,0.0613 v 1.999869 1.999869 l -0.60554,0.14434 c -0.83837,0.19984 -1.40364,0.45747 -2.27795,1.038231 -1.41047,0.9369 -2.57862,2.421601 -3.12226,3.968351 -0.39401,1.12103 -0.4128,3.33055 -0.0418,4.91753 0.0654,0.27961 -0.008,0.34356 -1.1223,0.973926 -0.65573,0.37107 -1.37298,0.79435 -1.59387,0.94064 -0.2209,0.14628 -0.45987,0.26597 -0.53105,0.26597 -0.0712,0 -0.625,-0.66176 -1.2307,-1.470576 -1.96811,-2.62805 -3.82648,-4.39679 -6.54475,-6.22904 -3.54313,-2.388261 -7.7747,-3.983151 -11.76463,-4.434112 -2.69453,-0.304559 -7.312073,-0.0901 -9.397833,0.436491 -2.60253,0.65705 -5.90539,1.974429 -7.48736,2.986401 -0.34942,0.22352 -0.66954,0.4064 -0.71139,0.4064 -0.0418,0 -0.57634,0.34565 -1.18777,0.7681 -2.1741,1.50215 -5.16171,4.44745 -6.6495,6.555336 -2.60281,3.68762 -4.38302,8.33765 -4.79119,12.51495 -0.3436,3.51649 -0.0952,7.31319 0.65264,9.97686 0.60999,2.1726 0.6053,2.08956 0.12939,2.28841 -0.22095,0.0923 -0.43708,0.22505 -0.48029,0.29497 -0.14044,0.22725 -0.26604,0.13599 -0.50111,-0.36411 z m 120.302683,0.18665 c -0.26961,-0.16256 -0.49019,-0.364 -0.49019,-0.44764 0,-0.0836 0.18247,-0.78605 0.40551,-1.56091 1.13827,-3.95467 1.23735,-8.97803 0.26264,-13.31539 -0.32603,-1.45078 -1.14605,-3.85805 -1.70052,-4.9921 -0.25687,-0.52536 -0.46705,-0.97563 -0.46705,-1.00059 0,-0.10164 -1.44779,-2.58903 -1.8663,-3.20639 -1.59195,-2.348336 -4.7819,-5.515996 -7.13017,-7.080346 -3.51099,-2.338921 -7.52052,-3.890728 -11.30327,-4.374709 -2.79553,-0.357661 -4.87367,-0.34212 -8.3071,0.0622 -1.84277,0.216979 -4.88889,1.191199 -7.23659,2.31444 -4.17,1.995099 -7.27929,4.539589 -10.03747,8.214159 -0.60711,0.808826 -1.14302,1.470586 -1.1909,1.470586 -0.0479,0 -0.82066,-0.42813 -1.71726,-0.95141 -1.50876,-0.880526 -1.62557,-0.972896 -1.56805,-1.239906 0.35714,-1.65789 0.36591,-3.47508 0.0228,-4.71603 -0.23904,-0.8645 -1.15871,-2.36901 -1.91444,-3.131901 -0.86852,-0.87674 -2.18306,-1.668169 -3.29665,-1.98477 l -0.91324,-0.259641 v -1.960258 -1.96025 l 0.46136,-0.0816 c 0.25375,-0.0449 1.16205,-0.165571 2.01844,-0.26819 1.96631,-0.23563 2.66829,-0.39353 4.67125,-1.050689 1.74643,-0.572993 3.97658,-1.553523 5.04989,-2.22028 2.86195,-1.777903 3.94972,-2.632192 5.91359,-4.644322 1.94228,-1.99 2.99671,-3.407029 4.40715,-5.9227 1.42626,-2.54389 2.62189,-6.155529 3.07861,-9.299631 0.23125,-1.5919 0.23623,-5.604299 0.009,-7.193909 -0.33731,-2.358979 -1.16172,-5.320639 -1.95845,-7.035709 -1.10654,-2.38195 -1.68524,-3.44236 -2.5807,-4.72892 -2.61337,-3.75468 -6.27607,-6.92919 -10.34677,-8.96763 -1.47219,-0.73722 -4.33483,-1.77154 -5.54256,-2.00263 -0.56568,-0.10824 -1.0934,-0.24678 -1.17269,-0.30786 -0.0863,-0.0665 -0.14417,-0.38219 -0.14417,-0.78609 v -0.67503 l 0.37485,0.0681 c 0.33325,0.0606 1.96042,0.38072 3.77737,0.74321 0.93964,0.18747 4.40241,1.33685 5.59396,1.85679 1.72272,0.75171 4.1162,1.95403 4.72892,2.37549 0.31718,0.21817 0.6805,0.43901 0.80737,0.49075 0.39584,0.16143 2.62884,1.74127 3.82064,2.70311 1.66059,1.34017 4.14698,3.81271 5.62884,5.59749 1.62885,1.96181 3.42921,4.62827 4.24423,6.286 0.15594,0.31718 0.52531,1.05337 0.82081,1.63598 0.2955,0.58261 0.53728,1.10743 0.53728,1.16628 0,0.0588 0.16127,0.46269 0.35839,0.89743 0.63618,1.40307 1.8777,5.447999 2.06652,6.73285 0.0517,0.35202 0.17736,1.10717 0.27918,1.678101 0.56016,3.14097 0.65742,7.56452 0.23555,10.71272 -0.10099,0.753618 -0.16792,1.472499 -0.14873,1.59752 0.0252,0.164478 0.28991,0.330809 0.95761,0.601829 4.08246,1.657051 7.86123,4.049411 11.41861,7.229189 4.79281,4.284073 9.03584,10.917161 10.83638,16.940391 0.84251,2.818386 1.12207,4.116796 1.52726,7.093376 0.27014,1.98456 0.27272,7.34562 0.004,9.16948 -0.47362,3.21922 -0.72921,4.40322 -1.46906,6.80503 -0.64123,2.0817 -1.09269,3.23661 -1.26064,3.22501 -0.0358,-0.002 -0.28574,-0.13751 -0.55534,-0.30006 z M 152.39125,76.426254 c -0.22009,-0.265189 -1.69192,-1.252738 -2.95569,-1.98316 -2.34496,-1.35531 -4.99447,-2.351199 -8.17774,-3.0738 -0.86904,-0.197279 -1.57477,-0.247801 -4.10591,-0.293931 -3.79545,-0.0692 -4.61979,0.0303 -7.90396,0.954252 -1.3368,0.376071 -1.76942,0.529061 -2.76494,0.977781 -0.25375,0.114379 -0.77278,0.344979 -1.1534,0.512447 -0.90529,0.398331 -2.00391,1.04344 -3.6193,2.125261 l -1.31251,0.87898 -1.55415,-1.611231 c -1.48247,-1.536919 -2.63256,-3.016419 -3.32011,-4.271089 -0.17382,-0.31718 -0.38716,-0.65863 -0.47409,-0.75878 -0.0869,-0.100161 -0.15806,-0.239451 -0.15806,-0.309539 0,-0.145081 1.96135,-1.58247 3.32814,-2.439061 1.37836,-0.863841 3.37776,-1.892139 4.86096,-2.50003 1.53229,-0.627999 4.91225,-1.716479 5.86518,-1.88882 5.32555,-0.963129 8.47475,-1.04639 13.05049,-0.34503 4.27899,0.65586 8.5777,2.206691 12.39899,4.47312 0.80579,0.477919 3.60384,2.41627 3.69062,2.556671 0.0739,0.119571 -0.9337,1.875129 -1.58671,2.764571 -0.75344,1.026239 -2.04401,2.505389 -3.05348,3.499627 -0.77122,0.759593 -0.9362,0.874102 -1.05433,0.731761 z"
       id="path4874"
       inkscape:connector-curvature="0" />
  </g>
  <g
     inkscape:groupmode="layer"
     id="layer2"
     inkscape:label="Layer 2"
     style="display:none"
     transform="translate(-33.072008,-1.400877)">
    <path
       style="fill:#000000;fill-opacity:1;stroke:#000000;stroke-width:0.08436446;stroke-miterlimit:4;stroke-dasharray:none;stroke-opacity:1"
       d=""
       id="path9442"
       inkscape:connector-curvature="0"
       transform="scale(0.26458333)" />
    <path
       style="fill:#000000;fill-opacity:1;stroke:#000000;stroke-width:0.23861872;stroke-miterlimit:4;stroke-dasharray:none;stroke-opacity:1"
       d=""
       id="path9452"
       inkscape:connector-curvature="0"
       transform="scale(0.26458333)" />
    <path
       style="fill:#000000;fill-opacity:1;stroke:#000000;stroke-width:0.04218223;stroke-miterlimit:4;stroke-dasharray:none;stroke-opacity:1"
       d=""
       id="path9464"
       inkscape:connector-curvature="0"
       transform="scale(0.26458333)" />
    <path
       style="fill:#000000;fill-opacity:1;stroke:#000000;stroke-width:0.04218223;stroke-miterlimit:4;stroke-dasharray:none;stroke-opacity:1"
       d=""
       id="path9466"
       inkscape:connector-curvature="0"
       transform="scale(0.26458333)" />
    <path
       style="fill:#000000;fill-opacity:1;stroke:#000000;stroke-width:0.33745784;stroke-miterlimit:4;stroke-dasharray:none;stroke-opacity:1"
       d=""
       id="path9470"
       inkscape:connector-curvature="0"
       transform="scale(0.26458333)" />
    <path
       style="fill:#000000;fill-opacity:1;stroke:#000000;stroke-width:0.04218223;stroke-miterlimit:4;stroke-dasharray:none;stroke-opacity:1"
       d=""
       id="path9474"
       inkscape:connector-curvature="0"
       transform="scale(0.26458333)" />
  </g>
</svg>
