<?xml version="1.0" encoding="UTF-8" standalone="no"?>
<!-- Created with Inkscape (http://www.inkscape.org/) -->

<svg
   xmlns:dc="http://purl.org/dc/elements/1.1/"
   xmlns:cc="http://creativecommons.org/ns#"
   xmlns:rdf="http://www.w3.org/1999/02/22-rdf-syntax-ns#"
   xmlns:svg="http://www.w3.org/2000/svg"
   xmlns="http://www.w3.org/2000/svg"
   xmlns:xlink="http://www.w3.org/1999/xlink"
   xmlns:sodipodi="http://sodipodi.sourceforge.net/DTD/sodipodi-0.dtd"
   xmlns:inkscape="http://www.inkscape.org/namespaces/inkscape"
   width="297mm"
   height="210mm"
   viewBox="0 0 297 210"
   version="1.1"
   id="svg8"
   inkscape:version="0.92.3 (2405546, 2018-03-11)"
   sodipodi:docname="sticker.svg">
  <defs
     id="defs2">
    <circle
       style="fill:none;fill-opacity:1;stroke:none;stroke-width:0.69741321;stroke-miterlimit:4;stroke-dasharray:none;stroke-opacity:1"
       id="path4776-3"
       cx="55.3074"
       cy="-229.03575"
       r="87.78067"
       transform="rotate(131.20508)" />
  </defs>
  <sodipodi:namedview
     id="base"
     pagecolor="#ffffff"
     bordercolor="#666666"
     borderopacity="1.0"
     inkscape:pageopacity="0.0"
     inkscape:pageshadow="2"
     inkscape:zoom="0.98994949"
     inkscape:cx="620.41926"
     inkscape:cy="425.06868"
     inkscape:document-units="mm"
     inkscape:current-layer="layer2"
     showgrid="false"
     showguides="false"
     inkscape:window-width="1920"
     inkscape:window-height="1147"
     inkscape:window-x="1920"
     inkscape:window-y="25"
     inkscape:window-maximized="1" />
  <metadata
     id="metadata5">
    <rdf:RDF>
      <cc:Work
         rdf:about="">
        <dc:format>image/svg+xml</dc:format>
        <dc:type
           rdf:resource="http://purl.org/dc/dcmitype/StillImage" />
        <dc:title />
      </cc:Work>
    </rdf:RDF>
  </metadata>
  <g
     inkscape:label="Layer 1"
     inkscape:groupmode="layer"
     id="layer1"
     transform="translate(0,-87)">
    <circle
       style="fill:#fff935;fill-opacity:1;stroke:#000000;stroke-width:0.48332855;stroke-miterlimit:4;stroke-dasharray:none;stroke-opacity:1"
       id="path4878"
       cx="93.821014"
       cy="-217.45032"
       transform="rotate(121.26231)"
       r="103.85992" />
    <flowRoot
       xml:space="preserve"
       id="flowRoot4768"
       style="fill:black;fill-opacity:1;stroke:none;font-family:sans-serif;font-style:normal;font-weight:normal;font-size:40px;line-height:1.25;letter-spacing:0px;word-spacing:0px"><flowRegion
         id="flowRegion4770"><rect
           id="rect4772"
           width="1624.2858"
           height="427.14285"
           x="-117.14286"
           y="275.12936" /></flowRegion><flowPara
         id="flowPara4774" /></flowRoot>    <circle
       style="fill:none;fill-opacity:1;stroke:none;stroke-width:0.69741321;stroke-miterlimit:4;stroke-dasharray:none;stroke-opacity:1"
       id="path4776"
       cx="55.3074"
       cy="-229.03575"
       r="87.78067"
       transform="rotate(131.20508)" />
    <text
       xml:space="preserve"
       style="font-style:normal;font-weight:normal;font-size:10.58333302px;line-height:1.25;font-family:sans-serif;letter-spacing:0px;word-spacing:0px;fill:#000000;fill-opacity:1;stroke:none;stroke-width:0.26458332"
       id="text4785"
       x="1.5119047"
       y="17.008928"
       transform="rotate(46.202852,136.97522,194.09489)"><textPath
         xlink:href="#path4776"
         id="textPath4787"><tspan
   style="fill:#000000;fill-opacity:1;stroke-width:0.26458332"
   id="tspan4781"
   y="143.22792"
   x="20.854984">Sie sind infiziert! Bitte melden Sie sich im Raum 116       </tspan></textPath></text>
    <rect
       style="fill:#fefefe;fill-opacity:1;stroke:#000000;stroke-width:0.5581615;stroke-miterlimit:4;stroke-dasharray:none;stroke-opacity:1"
       id="rect4876"
       width="67.46875"
       height="23.8125"
       x="103.49506"
       y="241.11884"
       ry="1.8737839" />
    <text
       xml:space="preserve"
       style="font-style:normal;font-weight:normal;font-size:10.58333302px;line-height:1.25;font-family:sans-serif;letter-spacing:0px;word-spacing:0px;fill:#000000;fill-opacity:1;stroke:none;stroke-width:0.26458332"
       x="359.07739"
       y="257.3125"
       id="text4886"><tspan
         sodipodi:role="line"
         id="tspan4884"
         x="359.07739"
         y="266.96799"
         style="stroke-width:0.26458332" /></text>
    <ellipse
       style="fill:none;fill-opacity:1;stroke:none;stroke-width:0.76921844;stroke-miterlimit:4;stroke-dasharray:none;stroke-opacity:1"
       id="path4916"
       cx="-33.714458"
       cy="237.32933"
       transform="matrix(-0.90294308,0.42976016,0.44970104,0.89317914,0,0)"
       rx="95.897194"
       ry="94.257942" />
    <text
       xml:space="preserve"
       style="font-style:normal;font-weight:normal;font-size:10.58333302px;line-height:1.25;font-family:sans-serif;letter-spacing:0px;word-spacing:0px;fill:#000000;fill-opacity:1;stroke:none;stroke-width:0.26458332"
       id="text67"
       y="-0.52916664"
       transform="translate(0,-3.7041668)"><textPath
         xlink:href="#path4916"
         id="textPath69"
         style="font-size:10.58333302px"><tspan
   style="font-size:10.58333302px;stroke-width:0.26458332"
   id="tspan63"
   y="-483.86569"
   x="118.66769">You are infected! Please go to room 116</tspan></textPath></text>
    <path
       style="fill:#00ff00;stroke-width:0.71428573"
       d="m 712.44641,377.82651 c -0.88871,-0.35706 -4.42442,-3.37734 -7.85714,-6.71173 -3.43273,-3.33438 -7.36632,-6.91753 -8.74132,-7.96254 -3.32209,-2.52483 -13.25215,-7.20159 -16.60714,-7.82148 -1.97508,-0.36492 -2.67857,-0.84922 -2.67857,-1.84398 0,-1.70611 0.69741,-1.69016 8.36519,0.19122 12.60844,3.09364 27.13539,1.81578 41.26137,-3.62954 6.96777,-2.68595 9.57712,-2.77431 12.37616,-0.41906 4.70946,3.96274 5.63419,9.61851 2.40183,14.68988 -2.52486,3.96135 -10.45408,11.42254 -13.85325,13.03555 -2.79614,1.32686 -11.81664,1.61695 -14.66713,0.47168 z"
       id="path64"
       inkscape:connector-curvature="0"
       transform="matrix(0.26458333,0,0,0.26458333,0,87)" />
    <path
       style="fill:#ffff00;stroke-width:0.71428573"
       d="m 712.44641,377.82651 c -0.88871,-0.35706 -4.42442,-3.37734 -7.85714,-6.71173 -3.43273,-3.33438 -7.36632,-6.91753 -8.74132,-7.96254 -3.32209,-2.52483 -13.25215,-7.20159 -16.60714,-7.82148 -1.97508,-0.36492 -2.67857,-0.84922 -2.67857,-1.84398 0,-1.70611 0.69741,-1.69016 8.36519,0.19122 12.60844,3.09364 27.13539,1.81578 41.26137,-3.62954 6.96777,-2.68595 9.57712,-2.77431 12.37616,-0.41906 4.70946,3.96274 5.63419,9.61851 2.40183,14.68988 -2.52486,3.96135 -10.45408,11.42254 -13.85325,13.03555 -2.79614,1.32686 -11.81664,1.61695 -14.66713,0.47168 z"
       id="path66"
       inkscape:connector-curvature="0"
       transform="matrix(0.26458333,0,0,0.26458333,0,87)" />
  </g>
  <g
     inkscape:groupmode="layer"
     id="layer3"
     inkscape:label="biohazard"
     style="display:none">
    <path
       style="fill:#ea0808;fill-opacity:1;stroke:none;stroke-width:0.11533946"
       d="m 106.70229,149.30798 c -9.866993,-1.52047 -18.364063,-6.25349 -24.541283,-13.6699 -0.44796,-0.53783 -0.78921,-1.01875 -0.75833,-1.06871 0.0309,-0.05 0.29911,-0.21478 0.59608,-0.36625 l 0.53993,-0.2754 1.15519,1.1711 c 4.34763,4.40753 9.91722,7.12602 16.22638,7.92003 1.709563,0.21514 6.167423,0.0923 7.647083,-0.2107 2.21907,-0.45444 3.93577,-0.90186 4.49824,-1.17238 0.12687,-0.061 0.63277,-0.26762 1.12422,-0.45911 3.22652,-1.25722 6.25565,-3.2731 8.91973,-5.93605 1.72641,-1.72568 2.56554,-2.76372 3.73656,-4.62232 1.28239,-2.03534 2.67623,-5.08837 3.15945,-6.92036 0.81033,-3.07213 1.01377,-4.61289 1.01277,-7.67008 -7.9e-4,-2.74409 -0.0866,-3.53902 -0.64685,-5.99765 -0.43969,-1.92968 -1.38931,-4.65478 -2.06991,-5.93998 -0.21502,-0.40603 -0.19161,-0.43322 0.85388,-0.99218 0.3489,-0.18654 0.94578,-0.542 1.3264,-0.78993 0.38062,-0.24792 0.79958,-0.45442 0.93102,-0.45889 0.13613,-0.005 0.58291,0.29438 1.03806,0.6947 0.9945,0.87472 2.37406,1.5678 3.45993,1.73825 0.43988,0.069 1.42395,0.0989 2.18836,0.0665 1.97813,-0.084 3.05784,-0.53628 4.66047,-1.95222 0.34571,-0.30543 0.69812,-0.55533 0.78314,-0.55533 0.1917,0 0.88795,0.35141 1.54884,0.78173 0.27481,0.17893 0.68988,0.42304 0.92239,0.54247 0.23251,0.11942 0.52979,0.29853 0.66063,0.39801 l 0.23788,0.18088 -0.35174,0.73672 c -1.36173,2.85204 -2.28668,6.44285 -2.52873,9.81685 -0.19195,2.6757 -0.0772,4.03533 0.70094,8.30444 0.085,0.46639 0.41438,1.47829 1.14506,3.51785 0.83838,2.34021 2.95129,5.76434 5.03204,8.15479 3.22593,3.70608 8.61632,6.91805 13.59685,8.10194 2.76953,0.65832 3.14576,0.69823 6.57435,0.69731 l 3.2295,-10e-4 2.03443,-0.42248 c 5.39303,-1.11997 9.31321,-3.19292 13.66746,-7.22718 l 1.6019,-1.4842 0.54477,0.30024 c 0.29962,0.16513 0.54551,0.32796 0.54642,0.36183 10e-4,0.0339 -0.32273,0.45174 -0.71921,0.92858 -1.99597,2.40051 -4.04998,4.36627 -6.35388,6.08091 -0.70805,0.52695 -1.46901,1.09759 -1.69104,1.26808 -1.06853,0.82053 -4.05559,2.48644 -5.99871,3.3455 -3.25182,1.43767 -5.98388,2.25603 -9.97581,2.98816 -1.67297,0.30682 -1.86337,0.31738 -5.76697,0.3193 -3.69001,0.002 -4.17563,-0.021 -5.65163,-0.26603 -4.24218,-0.70421 -7.73286,-1.79333 -11.32749,-3.53432 -1.90386,-0.92209 -4.54141,-2.46791 -5.56306,-3.2604 -0.35258,-0.27347 -0.97137,-0.73841 -1.37509,-1.03316 -0.85349,-0.62311 -0.59641,-0.69772 -2.50113,0.72581 -3.87682,2.89741 -8.87353,5.19527 -14.00808,6.44199 -3.19132,0.77488 -4.25529,0.8933 -8.41977,0.93704 -3.61366,0.038 -3.97965,0.0227 -5.65164,-0.2349 z m 16.14752,-20.52751 c -4.75391,-2.04591 -9.28116,-5.32163 -12.44422,-9.00409 -2.60543,-3.03326 -4.56192,-6.12801 -5.8473,-9.24921 -0.23013,-0.5588 -0.52003,-1.24127 -0.64424,-1.5166 -0.29349,-0.65061 -1.4133,-4.58677 -1.58027,-5.55472 -0.64412,-3.733906 -0.77675,-8.961916 -0.28921,-11.399626 l 0.073,-0.364998 h 1.30399 c 1.76533,0 4.59227,0.382928 6.18326,0.837568 1.3017,0.37198 1.3073,0.37509 1.29195,0.71957 -0.008,0.19028 -0.0732,1.11366 -0.14386,2.05196 -0.38261,5.081406 1.12277,10.777716 4.05749,15.353486 1.17159,1.82673 2.28141,3.17193 3.91725,4.74807 2.05219,1.9773 4.39738,3.59281 6.89031,4.74649 1.30618,0.60446 1.3261,0.6195 1.30667,0.98597 -0.0624,1.17726 -1.45969,5.07094 -2.35036,6.54973 -0.25065,0.41615 -0.45688,0.80542 -0.45829,0.86505 -10e-4,0.0596 -0.0922,0.21983 -0.20184,0.35602 l -0.19928,0.24762 z m 26.21057,-0.0275 c -0.39713,-0.56164 -1.29351,-2.43491 -1.88911,-3.94793 -0.59114,-1.50165 -1.19482,-3.74805 -1.06408,-3.95959 0.0409,-0.0662 0.60043,-0.36852 1.24335,-0.67178 3.28445,-1.54927 5.45264,-3.17577 8.3843,-6.28959 1.92898,-2.04883 3.755,-5.00224 4.84304,-7.83309 0.68997,-1.79517 1.39586,-4.64877 1.60847,-6.502326 0.11812,-1.02974 0.0978,-5.24683 -0.0306,-6.35207 -0.0307,-0.26446 0.0442,-0.30574 1.1798,-0.64978 1.64969,-0.4998 3.38093,-0.751472 5.66658,-0.82375 l 1.91961,-0.0607 0.0698,0.33163 c 0.28215,1.33966 0.39565,6.16862 0.18807,8.00168 -0.44147,3.898536 -1.01009,6.253626 -2.3253,9.630846 -0.84374,2.16659 -2.56891,5.41901 -3.64015,6.86269 -2.94845,3.97358 -4.67059,5.74843 -7.97259,8.21656 -1.85953,1.38994 -3.32334,2.27331 -5.61456,3.38825 -2.17487,1.05835 -2.26742,1.08209 -2.56663,0.65895 z m -73.128523,-3.64315 c -0.3241,-0.68948 -1.44163,-4.3086 -1.73593,-5.62178 -1.2291,-5.48429 -1.20872,-11.94856 0.0546,-17.30092 2.12414,-8.999836 7.24266,-16.745226 14.84085,-22.457286 2.08886,-1.570329 5.97698,-3.741111 8.32614,-4.64856 0.99449,-0.38417 0.96136,-0.327679 0.79281,-1.35169 -0.30849,-1.874269 -0.43946,-5.198758 -0.29545,-7.499729 0.12507,-1.99836 0.50909,-4.936781 0.82526,-6.314662 0.6251,-2.724189 1.907863,-6.304619 3.137793,-8.758199 0.92057,-1.83647 1.08589,-2.1187 2.47038,-4.21749 3.01577,-4.57168 7.13923,-8.54013 12.12188,-11.66618 0.83127,-0.52153 3.77766,-2.01438 5.16861,-2.61878 1.79136,-0.77839 4.8817,-1.71579 7.05861,-2.14112 2.92134,-0.57077 2.6236,-0.59145 2.66428,0.18503 0.0411,0.78366 0.0332,0.78985 -1.35218,1.06743 -2.76246,0.5535 -7.02885,2.57772 -9.81246,4.65559 -1.04256,0.77824 -4.21341,3.9159 -5.09271,5.03941 -0.815,1.04134 -1.95366,2.82397 -2.64863,4.14654 -0.61663,1.17349 -1.64158,3.71544 -1.8858,4.67693 -0.99253,3.90751 -1.14685,4.95047 -1.1434,7.727742 0.003,2.506329 0.20136,4.039108 0.87056,6.730648 1.32499,5.32911 4.58003,10.568871 8.63194,13.89512 2.30617,1.89316 3.92508,2.933771 6.20675,3.989591 2.54513,1.17774 4.94074,1.872319 7.57562,2.19647 0.82467,0.10146 1.72,0.212051 1.9896,0.245769 l 0.4902,0.0613 v 1.999869 1.999869 l -0.60554,0.14434 c -0.83837,0.19984 -1.40364,0.45747 -2.27795,1.038231 -1.41047,0.9369 -2.57862,2.421601 -3.12226,3.968351 -0.39401,1.12103 -0.4128,3.33055 -0.0418,4.91753 0.0654,0.27961 -0.008,0.34356 -1.1223,0.973926 -0.65573,0.37107 -1.37298,0.79435 -1.59387,0.94064 -0.2209,0.14628 -0.45987,0.26597 -0.53105,0.26597 -0.0712,0 -0.625,-0.66176 -1.2307,-1.470576 -1.96811,-2.62805 -3.82648,-4.39679 -6.54475,-6.22904 -3.54313,-2.388261 -7.7747,-3.983151 -11.76463,-4.434112 -2.69453,-0.304559 -7.312073,-0.0901 -9.397833,0.436491 -2.60253,0.65705 -5.90539,1.974429 -7.48736,2.986401 -0.34942,0.22352 -0.66954,0.4064 -0.71139,0.4064 -0.0418,0 -0.57634,0.34565 -1.18777,0.7681 -2.1741,1.50215 -5.16171,4.44745 -6.6495,6.555336 -2.60281,3.68762 -4.38302,8.33765 -4.79119,12.51495 -0.3436,3.51649 -0.0952,7.31319 0.65264,9.97686 0.60999,2.1726 0.6053,2.08956 0.12939,2.28841 -0.22095,0.0923 -0.43708,0.22505 -0.48029,0.29497 -0.14044,0.22725 -0.26604,0.13599 -0.50111,-0.36411 z m 120.302683,0.18665 c -0.26961,-0.16256 -0.49019,-0.364 -0.49019,-0.44764 0,-0.0836 0.18247,-0.78605 0.40551,-1.56091 1.13827,-3.95467 1.23735,-8.97803 0.26264,-13.31539 -0.32603,-1.45078 -1.14605,-3.85805 -1.70052,-4.9921 -0.25687,-0.52536 -0.46705,-0.97563 -0.46705,-1.00059 0,-0.10164 -1.44779,-2.58903 -1.8663,-3.20639 -1.59195,-2.348336 -4.7819,-5.515996 -7.13017,-7.080346 -3.51099,-2.338921 -7.52052,-3.890728 -11.30327,-4.374709 -2.79553,-0.357661 -4.87367,-0.34212 -8.3071,0.0622 -1.84277,0.216979 -4.88889,1.191199 -7.23659,2.31444 -4.17,1.995099 -7.27929,4.539589 -10.03747,8.214159 -0.60711,0.808826 -1.14302,1.470586 -1.1909,1.470586 -0.0479,0 -0.82066,-0.42813 -1.71726,-0.95141 -1.50876,-0.880526 -1.62557,-0.972896 -1.56805,-1.239906 0.35714,-1.65789 0.36591,-3.47508 0.0228,-4.71603 -0.23904,-0.8645 -1.15871,-2.36901 -1.91444,-3.131901 -0.86852,-0.87674 -2.18306,-1.668169 -3.29665,-1.98477 l -0.91324,-0.259641 v -1.960258 -1.96025 l 0.46136,-0.0816 c 0.25375,-0.0449 1.16205,-0.165571 2.01844,-0.26819 1.96631,-0.23563 2.66829,-0.39353 4.67125,-1.050689 1.74643,-0.572993 3.97658,-1.553523 5.04989,-2.22028 2.86195,-1.777903 3.94972,-2.632192 5.91359,-4.644322 1.94228,-1.99 2.99671,-3.407029 4.40715,-5.9227 1.42626,-2.54389 2.62189,-6.155529 3.07861,-9.299631 0.23125,-1.5919 0.23623,-5.604299 0.009,-7.193909 -0.33731,-2.358979 -1.16172,-5.320639 -1.95845,-7.035709 -1.10654,-2.38195 -1.68524,-3.44236 -2.5807,-4.72892 -2.61337,-3.75468 -6.27607,-6.92919 -10.34677,-8.96763 -1.47219,-0.73722 -4.33483,-1.77154 -5.54256,-2.00263 -0.56568,-0.10824 -1.0934,-0.24678 -1.17269,-0.30786 -0.0863,-0.0665 -0.14417,-0.38219 -0.14417,-0.78609 v -0.67503 l 0.37485,0.0681 c 0.33325,0.0606 1.96042,0.38072 3.77737,0.74321 0.93964,0.18747 4.40241,1.33685 5.59396,1.85679 1.72272,0.75171 4.1162,1.95403 4.72892,2.37549 0.31718,0.21817 0.6805,0.43901 0.80737,0.49075 0.39584,0.16143 2.62884,1.74127 3.82064,2.70311 1.66059,1.34017 4.14698,3.81271 5.62884,5.59749 1.62885,1.96181 3.42921,4.62827 4.24423,6.286 0.15594,0.31718 0.52531,1.05337 0.82081,1.63598 0.2955,0.58261 0.53728,1.10743 0.53728,1.16628 0,0.0588 0.16127,0.46269 0.35839,0.89743 0.63618,1.40307 1.8777,5.447999 2.06652,6.73285 0.0517,0.35202 0.17736,1.10717 0.27918,1.678101 0.56016,3.14097 0.65742,7.56452 0.23555,10.71272 -0.10099,0.753618 -0.16792,1.472499 -0.14873,1.59752 0.0252,0.164478 0.28991,0.330809 0.95761,0.601829 4.08246,1.657051 7.86123,4.049411 11.41861,7.229189 4.79281,4.284073 9.03584,10.917161 10.83638,16.940391 0.84251,2.818386 1.12207,4.116796 1.52726,7.093376 0.27014,1.98456 0.27272,7.34562 0.004,9.16948 -0.47362,3.21922 -0.72921,4.40322 -1.46906,6.80503 -0.64123,2.0817 -1.09269,3.23661 -1.26064,3.22501 -0.0358,-0.002 -0.28574,-0.13751 -0.55534,-0.30006 z M 152.39125,76.426254 c -0.22009,-0.265189 -1.69192,-1.252738 -2.95569,-1.98316 -2.34496,-1.35531 -4.99447,-2.351199 -8.17774,-3.0738 -0.86904,-0.197279 -1.57477,-0.247801 -4.10591,-0.293931 -3.79545,-0.0692 -4.61979,0.0303 -7.90396,0.954252 -1.3368,0.376071 -1.76942,0.529061 -2.76494,0.977781 -0.25375,0.114379 -0.77278,0.344979 -1.1534,0.512447 -0.90529,0.398331 -2.00391,1.04344 -3.6193,2.125261 l -1.31251,0.87898 -1.55415,-1.611231 c -1.48247,-1.536919 -2.63256,-3.016419 -3.32011,-4.271089 -0.17382,-0.31718 -0.38716,-0.65863 -0.47409,-0.75878 -0.0869,-0.100161 -0.15806,-0.239451 -0.15806,-0.309539 0,-0.145081 1.96135,-1.58247 3.32814,-2.439061 1.37836,-0.863841 3.37776,-1.892139 4.86096,-2.50003 1.53229,-0.627999 4.91225,-1.716479 5.86518,-1.88882 5.32555,-0.963129 8.47475,-1.04639 13.05049,-0.34503 4.27899,0.65586 8.5777,2.206691 12.39899,4.47312 0.80579,0.477919 3.60384,2.41627 3.69062,2.556671 0.0739,0.119571 -0.9337,1.875129 -1.58671,2.764571 -0.75344,1.026239 -2.04401,2.505389 -3.05348,3.499627 -0.77122,0.759593 -0.9362,0.874102 -1.05433,0.731761 z"
       id="path4874"
       inkscape:connector-curvature="0" />
  </g>
  <g
     inkscape:groupmode="layer"
     id="layer2"
     inkscape:label="Layer 2"
     style="display:inline">
    <path
       style="fill:#000000;fill-opacity:1;stroke:#000000;stroke-width:0.0812564;stroke-opacity:1"
       d="m 168.36062,11.930038 c -0.0886,0.0122 -0.20627,0.101023 -0.34047,0.326541 0.6087,0.288563 0.60618,-0.363216 0.34047,-0.326541 z m -26.21575,17.803253 c -2.30395,-0.03667 -4.49587,0.540337 -6.47992,2.211824 -6.59992,3.073818 -3.07358,9.762259 1.46973,11.941413 0.48036,6.715992 2.48874,12.94782 -8.34303,14.907122 -9.95544,2.007693 -9.62109,-8.655982 -13.20401,-13.407635 0.9853,-8.179268 -9.35077,-14.187415 -13.28984,-4.990471 -2.581411,6.16024 2.28986,11.624235 7.98573,11.277597 1.50663,5.267435 7.91164,11.704887 1.37037,14.272697 -4.57322,5.987112 -10.0211,5.353638 -12.887769,0.96355 4.066179,-7.729069 -2.305578,-10.774402 -7.196734,-9.25018 -5.486672,1.316228 -8.476239,6.974328 -7.698247,12.251927 0.383421,8.027366 9.806178,6.37093 14.717165,9.607388 1.610785,5.121381 -3.099291,13.123217 -9.735633,13.046537 -1.491505,0.63364 -3.436951,0.82391 -4.993541,1.52532 -0.525566,0.45763 -2.115006,0.69049 -2.757948,-0.41435 -3.449928,-5.83075 -11.029435,-4.541787 -11.908384,1.591303 -0.126155,1.32008 -0.798451,2.653044 -0.551969,4.046641 -0.286464,4.310526 6.402086,7.783216 9.279472,7.714226 2.490494,0.79351 14.179657,-1.99342 17.45258,-3.193 -0.01054,0.18001 0.04672,0.3894 0.158001,0.57832 0.138867,0.23493 0.343766,0.40838 0.54231,0.45905 0.431529,2.12104 1.856355,5.88008 3.858988,7.6089 5.300459,5.27782 -3.817401,9.86093 -3.673464,15.85048 -8.102116,-3.35166 -7.488646,7.68967 -2.892282,11.85593 2.901891,4.8384 15.370135,6.98698 19.144055,0.75501 2.0559,-5.35757 -2.08691,-9.65656 3.66123,-13.91437 3.84118,-6.56106 11.82887,1.68333 17.84301,0.53381 0.90629,5.20236 8.74766,9.36549 2.88039,13.89704 1.36349,6.89703 10.01225,6.66877 15.23682,4.86272 6.61465,-1.10324 8.35726,-11.63557 0.0629,-11.78522 -5.75259,-3.40917 -7.30911,-14.05003 1.33469,-14.63373 6.88324,-6.31135 9.12258,5.30449 12.31973,9.0282 6.44251,4.72463 15.12506,0.0971 18.50561,-6.20013 4.23627,-6.76242 -4.13071,-9.29205 -9.36305,-8.42562 -3.78582,-3.49501 -8.14261,-7.63715 -2.4871,-11.66102 2.0037,-3.97923 3.30754,-8.54316 8.64389,-5.92321 4.21838,1.51909 6.83976,7.67838 12.79442,4.85186 5.19538,-1.30019 6.81974,-11.74787 0.0113,-12.01631 -5.38909,2.48256 -10.76405,3.02749 -16.73224,0.54876 -3.44265,-2.309337 -5.64069,-9.466799 0.68807,-11.002372 4.98177,-1.80038 13.75183,-1.36517 12.37549,-9.599434 -0.86386,-9.471633 -10.10798,-2.505527 -12.62249,2.145433 -5.38365,3.088969 -9.61272,3.638048 -14.17186,0.02698 -6.20144,-3.199863 1.74292,-9.084246 4.07738,-11.657914 9.54765,-3.383971 10.27448,-11.760754 4.00475,-16.889554 -1.60142,-1.048458 -3.0502,-1.499437 -4.35473,-1.498815 -5.11783,0.0025 -8.01896,6.951692 -9.23615,12.010867 -3.91881,1.73161 -4.1317,7.93094 -5.66123,9.028537 -6.71079,-2.212228 -10.7245,-6.54162 -9.06115,-13.814126 -0.51763,-1.196586 -0.71248,-2.120059 -0.666,-2.843355 -0.75846,5.380207 -2.53315,13.195098 3.98811,14.784563 3.08797,0.890233 9.21569,6.676312 8.30708,-0.338266 2.39641,-4.58537 6.05522,-8.633632 7.12173,-14.31854 3.34387,-7.037836 13.37863,-2.025674 12.03975,4.849472 -0.40225,7.151089 -5.93621,3.886528 -12.29351,13.859928 -2.89139,2.778277 -3.74648,5.777325 0.80025,7.257919 2.47974,4.602006 8.70353,4.766956 13.08396,2.255345 4.78897,-1.864794 4.42491,-9.672093 11.46771,-8.182206 6.24158,5.340934 -2.45749,13.560245 -8.36355,9.914677 -1.03908,4.120734 -11.00788,4.776186 -5.43127,10.338971 1.25732,3.469586 0.68647,7.163404 5.31983,5.471504 5.5983,3.09831 10.35148,1.204349 15.45055,-1.024211 10.01741,3.46299 -4.62364,16.594297 -8.81958,6.95718 -3.04807,-3.46107 -13.03588,-5.78502 -12.57772,1.90584 -3.77688,4.720267 -7.70247,9.255807 -0.3399,13.101047 1.42813,6.86426 9.40923,-1.62263 11.70356,5.39609 0.0207,7.19011 -8.70261,13.87372 -15.75772,11.18586 -4.08297,-4.09797 -2.65556,-4.17534 -4.98723,-7.22493 -3.65116,-4.53614 -2.63105,-4.76221 -5.25503,-6.64357 -2.86406,4.83135 -14.12852,3.02737 -11.74006,10.60008 0.47739,3.29509 3.67295,7.5286 2.351,9.45938 1.23769,-0.53239 2.36109,-0.5133 3.38692,-0.34023 4.98997,0.84189 6.86857,8.53939 -0.66555,10.25493 -6.47653,3.85445 -17.27035,-1.56166 -10.53074,-8.3391 -4.34494,-5.45292 -5.31105,-12.34807 -13.53516,-11.89126 -5.29979,-1.14921 -10.39267,-4.64873 -13.11382,1.99049 -1.37391,2.51749 -7.46817,8.34675 -2.85108,8.0932 0.13714,0.64419 0.21308,1.24844 0.23371,1.81389 0.25143,6.89058 -7.71069,8.01896 -13.243318,5.43133 -4.661356,-1.2056 -12.595391,-14.12586 -3.277265,-13.58103 4.493383,5.04443 1.93178,-5.37023 5.529363,-7.12008 6.49354,-5.01069 -1.524015,-10.28034 -2.692124,-15.49493 -0.823148,-1.93313 -1.367059,-2.83898 -1.67074,-3.04927 -0.0041,-0.0226 -0.03054,-0.0405 -0.0809,-0.053 -0.01046,0.002 -0.02282,0.003 -0.03327,0.005 -0.02116,-0.002 -0.04107,-1.8e-4 -0.0585,0.008 -4.653755,0.59544 -13.619355,2.89845 -17.192303,2.88515 0.0097,-0.0286 0.02025,-0.0566 0.02821,-0.0867 -0.20865,0.027 -0.414727,0.044 -0.619095,0.0554 -0.240288,-0.0262 -0.443577,-0.0684 -0.594294,-0.13285 -0.03941,0.0495 -0.07219,0.0966 -0.101254,0.14236 -7.355814,-0.21055 -11.443133,-10.327357 -4.491002,-14.503217 4.076491,-3.298555 6.59357,3.77743 8.172614,3.64255 0.210267,0.096 0.458952,0.1638 0.726124,0.19809 -0.0017,0.002 -0.0041,0.005 -0.005,0.007 0.01784,3.5e-4 0.03618,-5.2e-4 0.05402,-3.5e-4 0.117982,0.0136 0.238222,0.0205 0.35881,0.0207 0.194294,-5.2e-4 0.387071,-0.0185 0.570512,-0.0534 C 87.711276,95.14556 92.04972,94.0094 95.606675,91.8764 94.723854,94.78482 106.34415,77.999671 95.209606,76.957028 c -3.9277,-1.84521 -8.736747,-0.930979 -9.855906,-5.473545 -2.201329,-8.009518 6.780218,-14.571342 11.40502,-12.126052 6.1429,2.239659 -2.690287,7.489229 2.164791,10.222559 3.213329,1.026486 5.832319,4.740052 11.661719,0.04738 2.20452,-5.816672 6.6118,-2.389604 4.70593,-9.8982 -3.5724,-3.61797 -1.9688,-13.13451 -8.24109,-10.045175 -7.49283,-3.013081 -2.97634,-16.894523 4.51598,-12.070342 2.84977,2.729446 2.93621,7.139314 1.66055,8.767579 5.49347,0.552159 4.34485,12.719442 10.48861,13.588848 5.60992,-1.251656 15.53255,-1.383106 14.32823,-9.515112 0.43035,-5.414491 0.10173,-9.128826 -4.91869,-11.380085 -0.57798,-2.726799 0.86301,-4.834203 2.96067,-6.338101 3.54364,-2.540591 9.20905,-3.049186 11.98418,0.342381 5.34542,4.967322 1.44158,10.732699 -5.25145,9.364595 0.096,0.825405 0.002,1.91136 -0.16309,3.144065 0.84453,-3.798839 9.51247,-1.149813 9.25688,-7.070669 -0.5624,-5.360633 -5.04896,-8.708784 -9.76657,-8.783893 z m 0.50968,15.854562 c -0.0294,0.132353 -0.0505,0.272026 -0.0602,0.420668 0.0196,-0.138934 0.0421,-0.285145 0.0602,-0.420668 z m 70.47533,-0.629625 c -0.0717,-0.0017 -0.17775,0.02929 -0.32687,0.114846 0.30057,0.516554 0.6376,-0.10732 0.32687,-0.114846 z m -86.2932,20.972127 c -0.3244,0.02896 -0.6649,0.339253 -0.93882,1.135574 3.04768,2.24692 2.09742,-1.23887 0.93882,-1.135574 z m 22.12606,11.1264 c -3.75734,0.245881 -6.65391,4.019587 -7.84744,7.595297 0.68145,2.751011 4.61612,-11.255899 11.09141,-4.090721 2.15619,2.296464 -0.58258,12.564029 3.76078,9.957859 -1.4269,-4.408533 -0.51014,-11.961977 -7.00475,-13.462435 z m -25.74515,0.88786 c -1.90751,0.01925 -3.90838,1.064166 -5.59938,3.514442 -0.24337,-0.429124 -1.89625,3.900467 -1.8899,5.686028 1.63153,3.658795 2.55209,-8.318659 6.99965,-8.181102 8.74619,0.404595 4.42594,11.998917 7.44138,9.700304 0.99098,-5.840462 -2.7552,-10.762023 -6.95175,-10.719672 z M 165.66235,89.6157 c -0.029,-0.003 -0.059,-0.003 -0.09,3.5e-4 -0.22942,0.0248 -0.51518,0.2317 -0.84915,0.7336 1.72416,2.39125 1.83758,-0.64016 0.93918,-0.73395 z m -3.89397,5.67753 c -0.027,-0.002 -0.0544,-0.002 -0.0822,0.002 -0.2487,0.0295 -0.52713,0.28639 -0.78526,0.93374 2.11129,1.69865 1.70261,-0.86919 0.86749,-0.93545 z m -36.22458,0.0938 c -3.6951,-0.006 -8.5525,1.35125 -8.07849,5.93272 0.34649,6.50184 4.44529,14.15591 11.64933,14.94257 8.18186,0.78389 16.12868,-2.39645 23.15561,-6.23207 5.55337,-4.67347 0.58601,-15.75104 -7.00985,-13.10499 -6.3916,0.37726 -12.87712,0.66373 -18.9949,-1.51954 -0.23408,-0.012 -0.47537,-0.0183 -0.7217,-0.0187 z m 2.79815,0.95345 c 2.29479,-0.0115 5.08625,3.88988 0.68876,5.52021 -1.06278,0.07 -1.97662,-3.28277 -2.43867,-4.22358 0.3886,-0.91964 1.04559,-1.29307 1.74991,-1.29663 z m -5.53244,0.45736 c 1.82333,-0.0178 3.60537,1.29061 3.87666,4.23718 1.96843,4.69541 5.11896,-2.49931 6.74243,1.53345 0.62253,0.20098 1.03556,0.30163 1.30242,0.32859 0.11487,0.15314 0.64363,0.16463 1.23512,0.0268 0.38566,-0.09 0.73401,-0.22926 0.93239,-0.37275 1.48348,-0.22526 4.80651,-1.01019 5.62282,0.94291 4.25375,-0.34128 5.7624,-9.7767 9.65783,-3.48827 4.42299,6.12157 -4.25456,12.17485 -7.04029,12.40635 -4.14352,-1.86267 -11.26508,-8.11404 -17.21215,-3.22423 -6.13182,6.4077 -8.41168,-1.42592 -9.31669,-7.07781 -0.26191,-3.33709 1.99888,-5.29068 4.19946,-5.31226 z m -17.15663,0.20692 c -0.68177,0.0198 -1.58252,0.80636 -2.17364,3.10263 3.97794,-0.3835 3.47518,-3.14043 2.17364,-3.10263 z m 36.47568,0.81279 c 3.32449,-0.016 5.6297,0.59735 1.87121,3.80462 -2.23155,1.3979 -4.52904,-0.48038 -5.83281,-0.99117 0.11488,-0.31842 0.17972,-0.75583 0.17975,-1.21271 -1.8e-4,-0.56933 -0.10084,-1.10019 -0.26775,-1.41251 1.30809,-0.0811 2.75207,-0.18201 4.0496,-0.18823 z m -4.72001,0.22766 c -0.15541,0.31702 -0.24775,0.82816 -0.24805,1.37308 1.1e-4,0.45095 0.0633,0.8831 0.17567,1.20048 -0.17318,0.15426 -0.26163,0.48309 -0.24635,1.06728 -0.26009,0.18683 -0.45215,0.33538 -0.597,0.45804 -0.20642,0.006 -0.44596,0.0391 -0.68637,0.0951 -0.29743,0.0695 -0.57606,0.16918 -0.77983,0.27896 -0.65976,-1.08127 -4.51156,-4.07368 -0.13116,-4.4458 0.59393,0.0619 1.49041,0.0305 2.51309,-0.0271 z m -28.422,10.30411 c -0.4371,-0.0261 -1.09234,0.49256 -1.98607,2.00577 2.51441,3.97664 3.41392,-1.92061 1.98607,-2.00577 z m 25.14949,0.0448 c 1.98543,0.0188 3.93709,0.54877 5.51784,1.65987 7.27246,4.92877 -5.79897,5.25786 -9.57458,5.37275 -1.63538,-0.49113 -4.81931,0.22705 -5.33741,-2.03126 1.69055,-3.20901 5.60377,-5.03716 9.39415,-5.00136 z m -6.67856,12.12164 c -0.49339,-0.009 -1.16126,0.24566 -1.94155,0.99287 3.33211,1.42935 3.42175,-0.9665 1.94155,-0.99287 z"
       id="path4769"
       inkscape:connector-curvature="0"
       sodipodi:nodetypes="ccccccccccccccccccccccccccccccccccccccccccccccccscccccccccccccccccccccccccscccccscccccccccccccccccccccccccccccccccsccccsccccscscscscccsccccsccccccccccccccccccccccccccccccscccccccccccccccccccccccccsccccccccc" />
    <path
       style="fill:#008080;fill-opacity:1;stroke:#000000;stroke-width:3.81789947;stroke-miterlimit:4;stroke-dasharray:none;stroke-opacity:1"
       d="m 538.72132,550.42472 c -13.29625,-7.35389 -16.5627,-16.97963 -9.01719,-26.57222 l 4.11482,-5.23112 -11.69096,-17.73323 c -12.51987,-18.99056 -20.90638,-26.15727 -32.62484,-27.87964 -4.04271,-0.59419 -12.95442,-2.43461 -19.8038,-4.0898 -15.6399,-3.77949 -24.88816,-3.81866 -30.15767,-0.12769 -4.65738,3.26211 -23.04882,33.42957 -23.04882,37.80692 0,1.57301 1.73971,4.34964 3.86603,6.17023 3.18392,2.72616 3.57203,4.61371 2.19975,10.69823 -0.91645,4.06342 -3.22066,9.10561 -5.12047,11.20489 -8.31077,9.1833 -31.15281,10.24364 -46.95911,2.17987 -15.47094,-7.89268 -29.73555,-31.3956 -25.15565,-41.44739 2.92626,-6.42242 11.87989,-8.53154 16.90653,-3.9825 5.21516,4.71965 7.30801,2.11303 10.00135,-12.4566 1.74937,-9.46321 -1.2831,-6.75581 10.10901,-20.56945 9.12747,-11.06762 10.05579,-16.34591 1.78482,-31.09728 -3.35708,-5.98738 -8.72598,-16.46151 -11.93089,-23.27582 -3.20492,-6.81432 -6.61734,-12.87805 -7.58316,-13.47497 -0.96582,-0.5969 -13.09821,1.04758 -26.96087,3.65443 -41.59137,7.82119 -53.9636,7.88007 -64.64649,-1.50053 -13.12354,-14.09732 -12.48621,-31.27342 -3.24813,-40.91797 8.89253,-8.89254 15.80401,-12.83082 25.85992,0.15869 3.33078,4.30246 8.77965,8.05807 11.28463,9.04472 6.3177,2.48839 33.08433,-2.48899 47.23656,-8.78386 10.39875,-4.62533 11.93221,-6.17629 17.7025,-17.90459 11.82691,-24.03853 8.59094,-39.46017 -9.23584,-44.01512 -35.84915,-9.15986 -40.05467,-12.67045 -40.05467,-33.43586 0,-11.26682 1.69569,-13.19696 6.88753,-20.25514 9.75279,-13.25868 28.88924,-19.29955 40.12461,-8.06419 4.70995,4.70996 4.62772,4.92729 1.51757,12.70032 -5.24996,13.12094 -3.62791,18.76669 8.03883,25.12889 6.5258,3.55871 13.20933,5.52535 18.88118,5.55584 8.5558,0.046 20.51477,-5.03803 20.51477,-8.72127 0,-1.01 4.54568,-6.24081 10.10152,-11.62401 11.88554,-11.51622 12.64022,-16.28701 4.88184,-30.8611 -2.87083,-5.39284 -6.53132,-13.5227 -8.13442,-18.06637 -4.38971,-12.44176 -13.17569,-15.16475 -20.76343,-14.858 -15.07578,-1.08917 -22.6427,-26.42287 -6.36385,-42.01899 7.57411,-7.25647 16.31981,-7.6481 23.34794,-1.04551 6.49743,6.10402 9.80992,17.91035 7.05678,25.15167 -2.61031,6.86563 -2.58481,7.13643 0.67217,7.13643 4.61495,0 9.17321,6.75449 17.04297,25.2545 4.7378,11.13748 9.61411,19.31409 13.04683,21.87699 5.09753,3.80586 6.43994,3.92053 19.16711,1.63725 20.91204,-3.75165 31.65146,-7.87039 38.10817,-14.61508 5.67168,-5.92465 5.88208,-6.84742 5.88208,-25.79697 0,-21.79939 -1.95379,-27.3883 -12.78746,-33.5514 -18.02526,-10.25431 9.5856,-38.92837 33.43273,-34.45462 3.77846,0.70884 10.42654,4.50198 14.77348,8.42919 14.29522,12.91487 12.4511,28.57957 -3.88227,32.97769 -4.32865,1.16558 -9.21528,1.60312 -10.85916,0.9723 -3.84194,-1.47429 -5.03448,4.07199 -6.76669,31.47024 -1.801,28.48638 -0.30022,31.36709 22.02348,42.27338 22.42604,10.95627 28.15193,10.02669 28.15193,-2.60263 0,-2.11851 4.48022,-11.28167 10.50166,-21.01734 6.02146,-9.73566 12.49727,-22.49616 14.39068,-28.35667 5.70073,-17.64502 18.41094,-23.36034 32.64691,-14.68014 8.0532,4.91032 12.74678,13.70886 12.6534,23.72004 -0.10405,11.1614 -3.75619,16.20798 -19.28145,26.64367 -9.02937,6.06931 -17.57944,14.19226 -24.52814,23.30284 -12.48504,16.36936 -12.83049,22.47059 -2.87907,30.2969 6.27,7.31034 4.9787,4.70382 8.09278,7.74936 10.79853,10.56092 30.13098,11.65866 45.83412,2.80376 4.22153,-2.38048 11.90364,-9.78298 17.07138,-16.44999 7.26825,-9.37693 11.1341,-12.55943 17.07216,-14.05434 6.83773,-1.7214 8.09046,-1.42107 11.46734,2.7492 2.30312,2.84424 3.79102,7.87018 3.79102,12.80564 0,14.64475 -18.84737,27.24121 -32.81416,21.93105 -4.58882,-1.74467 -5.82767,-1.47431 -7.49172,1.63498 -1.09654,2.04892 -6.57564,6.66552 -12.17577,10.25911 -12.30784,7.89792 -14.35132,13.55473 -8.65412,23.95648 2.22559,4.06338 4.69133,10.11027 5.47945,13.43757 1.9995,8.44167 4.73758,11.12297 11.3584,11.12297 3.14325,0 10.80201,1.325 17.01948,2.94446 12.23102,3.18578 26.4644,1.7422 40.45358,-4.10284 2.63346,-1.10033 4.98793,-2.16085 7.09677,-2.1609 4.32223,-1.1e-4 7.61258,2.83793 10.15815,7.59437 3.34516,6.25046 0.856,12.55078 -8.186,20.71968 -6.55146,5.91885 -9.71051,7.33012 -16.40803,7.33012 -7.22687,0 -9.37138,-1.16208 -16.66169,-9.02875 -14.34342,-15.47737 -34.89981,-20.18072 -44.82455,-10.25598 -2.72742,2.72742 -4.02589,7.11266 -4.95894,9.32577 -1.70463,4.04326 -3.20203,8.72887 -7.1156,14.06024 -13.25926,18.06272 -13.6415,28.79559 -1.32039,37.07653 3.09404,2.0795 7.14824,6.43405 9.00931,9.67678 3.32108,5.78664 3.67012,5.88674 18.83942,5.40246 13.93528,-0.44487 15.81986,-0.0436 19.15825,4.07911 6.41661,7.92419 1.68833,22.15713 -11.63544,35.0246 -9.40403,9.082 -19.95746,13.73571 -31.14896,13.73571 -7.12655,0 -9.48426,-1.17396 -15.72226,-7.8285 -4.03614,-4.30567 -12.33871,-15.71155 -18.45013,-25.3464 -12.8729,-20.29453 -16.12369,-22.95657 -21.19322,-17.35481 -1.93548,2.13868 -10.00486,6.31382 -17.93197,9.27807 -25.58896,9.56873 -29.15932,17.83604 -18.56907,42.99737 2.84148,6.75107 5.83597,14.3988 5.83597,16.94041 0,4.21144 -0.30144,2.60889 7.64654,3.6117 6.42693,0.8109 9.82072,0.29796 14.58856,5.96415 5.96346,7.08717 6.59175,11.31375 2.88966,19.43895 -5.07488,11.13816 -36.87578,19.29197 -49.02791,12.57086 z m -53.53809,-91.46729 c 0,-1.60117 -0.89034,-3.46149 -1.97854,-4.13405 -2.71378,-1.6772 -10.54125,2.74661 -9.07048,5.12632 1.91173,3.09325 11.04902,2.27266 11.04902,-0.99227 z m 46.46702,-23.59302 c 19.77875,-5.32947 44.27616,-17.50069 49.31294,-24.5005 8.36443,-11.62435 3.69684,-32.84681 -9.36559,-42.58307 -4.67114,-3.48171 -7.74534,-3.97618 -20.20305,-3.24953 -26.68182,1.5563 -53.51859,0.23195 -65.94308,-3.25419 -19.83113,-5.56435 -38.54318,0.9933 -41.98693,14.71433 -1.75392,6.98815 2.05957,25.10142 7.5134,35.68709 14.35614,27.86467 38.04305,34.67247 80.67231,23.18587 z M 414.10856,415.57582 c 0.52198,-5.32013 -0.0188,-6.45497 -2.81392,-5.90533 -5.50606,1.0827 -8.18772,6.82441 -4.98801,10.67984 3.91739,4.72016 7.05899,2.79762 7.80193,-4.77451 z m -12.80228,-40.54239 c 2.89332,-3.19709 3.12993,-4.59611 1.17556,-6.95098 -3.17638,-3.82731 -7.08295,-2.22341 -9.95899,4.08882 -3.00244,6.58964 -2.94496,6.86487 1.43353,6.86487 2.05012,0 5.35758,-1.80122 7.3499,-4.00271 z m 213.17648,-11.03034 c 0,-4.14993 -4.18254,-6.18896 -6.15349,-2.99991 -0.91362,1.47826 -1.21289,3.413 -0.66504,4.29943 1.6979,2.74729 6.81853,1.77137 6.81853,-1.29952 z m 14.14214,-21.33244 c 0,-2.24478 -1.34688,-4.04061 -3.03046,-4.04061 -3.07573,0 -4.14417,4.27375 -1.68358,6.73434 2.56132,2.56133 4.71404,1.3312 4.71404,-2.69373 z m -39.56134,0.26759 c 1.55594,-2.51754 -4.31028,-31.68101 -7.6855,-38.20795 -7.13164,-13.7911 -20.8086,-17.61028 -32.71173,-9.1345 -6.99712,4.98239 -18.13036,23.92439 -15.1458,25.76894 1.07904,0.66689 5.66483,-3.79999 10.19066,-9.92637 9.21035,-12.4676 15.96063,-15.52696 24.13533,-10.93862 7.30369,4.09945 10.20662,11.08005 10.24097,24.62606 0.0162,6.46226 0.9709,13.50808 2.12116,15.65736 2.16657,4.04827 6.96334,5.2157 8.85491,2.15508 z m -95.7991,-15.50037 c 0,-26.45929 -24.85137,-42.68218 -42.55889,-27.78228 -7.33238,6.16979 -13.89881,19.03327 -13.96529,27.3577 -0.0744,9.31869 5.21475,6.37509 10.07883,-5.60924 8.17971,-20.1535 14.52069,-24.57287 27.06003,-18.85957 5.9334,2.70344 11.30409,12.95558 11.30409,21.57844 0,8.12471 1.83994,12.48681 5.26692,12.48681 1.99226,0 2.81431,-2.67904 2.81431,-9.17186 z m -9.03669,-71.72884 c 1.41688,-2.29255 -2.44582,-7.99272 -5.41623,-7.99272 -3.24962,0 -4.41334,6.40873 -1.49885,8.25418 3.71597,2.35294 5.33718,2.29164 6.91508,-0.26146 z"
       id="path9420"
       inkscape:connector-curvature="0"
       sodipodi:nodetypes="sccscccscscscssssscsccssssssscscsssssccsssssssscscscssscsccsscccsscsscsccscsscsssssccssccscsscssscsssccsscccscsssccsscssssscssscsccsccscscsscsssssasca"
       transform="scale(0.26458333)" />
    <path
       style="fill:#ffffff;fill-opacity:1;stroke:#000000;stroke-width:3.81789947;stroke-miterlimit:4;stroke-dasharray:none;stroke-opacity:1"
       d="m 534.76361,417.11707 c -21.90312,-13.74928 -39.60721,-15.19179 -53.24611,-4.33842 -10.0067,7.96298 -13.27754,8.92233 -18.33722,5.37839 -5.64908,-3.95677 -9.29913,-11.38315 -12.3464,-25.11995 -2.15128,-9.69779 -2.04735,-12.12095 0.75211,-17.53449 3.5533,-6.87133 9.16803,-9.57996 16.19989,-7.81507 4.34876,1.09146 6.13568,3.66373 11.04157,15.8943 2.468,6.15281 6.68087,6.91423 14.43701,2.6093 4.31361,-2.3942 5.50875,-2.39056 8.18879,0.025 4.07584,3.67358 8.81043,4.14884 20.75244,2.08314 6.62763,-1.14643 10.47582,-0.95876 12.02082,0.58624 4.86064,4.86064 11.27794,2.32871 19.84309,-7.82905 4.68475,-5.55584 9.69286,-10.10153 11.12912,-10.10153 3.7208,0 12.67954,12.38677 14.00331,19.36162 1.70696,8.99387 -4.82666,19.01346 -17.34566,26.60032 109.1333,-9.64601 171.69338,81.89924 37.55354,22.67546 -19.5024,-8.61047 -37.87678,-5.51549 -64.6463,-22.47524 z"
       id="path9422"
       inkscape:connector-curvature="0"
       transform="scale(0.26458333)"
       sodipodi:nodetypes="csssccsscssssscscc" />
    <path
       style="fill:#ff8080;fill-opacity:1;stroke:#000000;stroke-width:3.81789947;stroke-miterlimit:4;stroke-dasharray:none;stroke-opacity:1"
       d="m 481.54518,433.7074 c -9.03072,-2.26825 -9.58258,-3.19589 -5.55659,-9.34032 8.56165,-13.06673 37.33795,-17.11561 51.2481,-7.21071 8.8953,6.33401 8.46268,11.70765 -1.14228,14.18844 -11.27563,2.9123 -36.94144,4.27344 -44.54923,2.36259 z"
       id="path9424"
       inkscape:connector-curvature="0"
       transform="scale(0.26458333)" />
    <path
       style="fill:#00ff00;fill-opacity:1;stroke:#000000;stroke-width:3.81789947;stroke-miterlimit:4;stroke-dasharray:none;stroke-opacity:1"
       d="m 676.34422,356.90835 c -11.75517,-0.76426 -20.84597,1.6543 -26.96993,14.50953 -2.72877,5.72813 -7.67939,15.29156 -11.00137,21.25207 -3.32199,5.96053 -6.03997,12.98076 -6.03997,15.60055 0,2.93423 4.46065,9.78939 11.61676,17.85271 l 11.61675,13.0895 14.5029,0.0994 c 16.001,0.10954 20.85244,2.77476 20.85244,11.45559 0,15.33218 -25.25076,37.13101 -43.01086,37.13101 -5.31783,0 -14.98355,-9.64205 -26.98873,-26.92261 -19.19326,-27.62725 -21.86558,-29.41471 -32.7241,-21.88829 -2.94944,2.04437 -10.57389,5.84145 -16.94322,8.43799 -23.74447,9.6797 -26.55592,18.36891 -16.0046,49.46428 l 6.16981,18.18274 9.59799,1.01016 c 8.12922,0.85558 10.16302,1.98119 13.29025,7.3556 3.06521,5.26783 3.28667,7.23561 1.30407,11.58694 -4.96545,10.89795 -33.33837,18.66832 -45.20334,12.37964 -11.79517,-6.25169 -13.97174,-13.54986 -6.97252,-23.37935 l 4.13916,-5.81293 -9.95796,-14.702 c -11.12477,-16.42472 -17.45091,-23.69408 -24.82381,-28.52499 -5.9659,-3.90901 -41.08073,-11.43085 -53.36356,-11.43085 -7.71053,0 -9.53286,0.95953 -15.85911,8.35031 -3.93115,4.59268 -10.13368,14.10975 -13.78338,21.14906 l -6.63584,16.19159 3.65183,3.38817 c 1.39744,1.29654 3.17148,3.333 3.59098,4.95143 1.65677,6.39176 -2.05221,12.21879 -7.7645,16.71208 -6.16483,4.84926 -27.23034,5.56075 -37.50717,1.26682 -12.8601,-5.37331 -28.72186,-26.37107 -27.26837,-36.09783 0.96226,-6.43935 6.45912,-8.97227 12.47929,-5.75037 2.77529,1.48529 6.41442,2.1754 8.08694,1.53359 2.92849,-1.12375 7.2986,-12.98642 7.32189,-19.87523 0.006,-1.83296 3.64782,-8.17246 8.09249,-14.08777 11.22647,-14.94103 10.8516,-19.72256 -3.76695,-48.04833 -6.51649,-12.62675 -13.12231,-23.67078 -14.67961,-24.54228 -1.5573,-0.87152 -15.99937,0.60995 -32.09348,3.29214 -34.66384,5.77695 -42.94464,6.72089 -52.18729,2.33497 -8.02539,-3.8083 -15.9656,-19.39871 -15.9656,-26.32449 0,-9.12192 10.73229,-22.75797 17.46728,-22.75797 4.66438,-0.26342 9.59397,6.06167 13.82188,11.23795 6.55067,5.76613 10.98027,8.07118 15.4623,8.04614 10.50864,-0.0586 33.26061,-5.59454 44.90718,-10.92653 10.13198,-4.63856 11.52645,-6.1327 17.50636,-18.75749 4.70944,-9.94258 6.49747,-16.59148 6.49747,-24.1613 0,-14.07269 -5.28456,-19.57977 -24.11597,-25.13145 -27.85282,-8.21129 -31.44242,-11.68968 -31.44242,-30.4683 0,-9.61999 0.64348,-10.93856 9.81291,-20.10799 8.4104,-8.41041 10.93698,-9.80649 17.67767,-9.76799 4.53014,0.0259 9.95414,1.65083 12.79259,3.83248 4.61379,3.54618 4.77473,4.29857 2.52538,11.80622 -4.74787,15.847 -2.07869,21.8403 13.15459,29.53692 7.57598,3.82777 26.00116,4.21207 32.11401,0.66981 2.32897,-1.34959 9.37479,-8.2506 15.65737,-15.33559 14.19642,-16.00958 14.48634,-20.09932 3.22128,-45.44022 -9.29001,-20.89801 -13.53375,-25.52065 -23.42879,-25.52065 -14.36113,0 -20.8606,-14.18577 -13.55406,-29.58317 10.30584,-21.71792 35.1068,-10.56686 30.20044,13.58962 -1.70398,8.38955 1.70606,10.49668 5.29676,11.63632 2.61162,0.8289 8.13598,9.23403 15.38964,23.41483 6.22356,12.16697 10.70754,22.42003 13.01995,23.6576 5.21687,2.79198 24.6695,1.10754 39.81084,-3.44728 7.25847,-2.1835 13.6774,-5.94727 18.68782,-10.95769 l 7.6318,-7.63181 v -18.48532 c 0,-21.30775 -1.53352,-32.20968 -11.93608,-36.72041 -8.15535,-3.5363 -7.99081,-10.64811 -0.69082,-19.01812 10.4006,-11.92511 26.77571,-14.16481 38.27603,-7.15262 19.08845,11.63897 16.7949,32.41378 -3.57851,32.41378 -5.71184,0 -8.36095,1.07372 -9.94315,4.03008 -1.18626,2.21654 -2.71167,15.62968 -3.38981,29.80697 l -0.22284,25.27182 5.81383,6.90934 c 7.23883,8.60286 31.78013,21.35538 40.63903,20.46855 5.38829,-0.5394 6.56738,-1.76793 8.71559,-9.08106 1.36637,-4.6515 6.56264,-15.56115 11.54724,-24.24366 4.98461,-8.68252 11.04179,-20.29886 13.4604,-25.8141 5.80274,-13.23224 9.75263,-17.46962 16.82305,-17.46962 8.89714,0 17.4228,5.47971 21.29568,13.64118 5.27577,11.11788 2.8836,19.35129 -8.3121,28.60865 -29.13324,24.08932 -43.74625,40.74058 -43.74625,51.70325 0,10.17541 23.02996,27.57669 38.45879,29.05921 16.00807,1.53817 30.25533,-10.89251 47.25036,-28.03487 12.36802,-12.47524 21.64598,-11.65193 23.54937,-2.40411 2.86581,7.53764 0.7463,14.27672 -6.66868,21.20335 -5.63251,5.26154 -6.83787,6.51736 -17.24593,6.00154 -9.63948,-0.47773 -12.85027,-0.58042 -15.95237,2.91102 -2.05239,2.30999 -7.59776,7.1436 -12.32305,10.74135 -11.2924,8.59782 -12.13761,13.03891 -5.67312,29.80883 7.5853,19.67741 5.4649,17.32901 17.36781,20.32162 1.74941,0.43983 2.22844,-0.42268 7.75155,-0.37644 M 506.34223,462.65754 c 3.99044,-3.91068 -0.88953,-8.6488 -5.83194,-9.34759 -6.19993,-0.87659 -9.98031,2.03977 -9.98031,4.88802 0,4.91243 12.64675,9.20189 15.81225,4.45957 z m 33.43253,-27.28337 c 43.85051,-14.54056 56.26923,-30.36333 43.89446,-55.92621 -7.67324,-15.85081 -10.23408,-16.80817 -44.95965,-16.80817 -18.44856,0 -38.07707,-1.27081 -49.80387,-3.22447 -22.96105,-3.82524 -33.51332,-1.97323 -43.04052,7.55396 -5.77668,5.77668 -5.97244,6.55448 -4.80258,19.08217 1.84223,19.72806 12.4345,40.52698 24.74806,48.5951 16.69394,10.9383 42.40847,11.19126 73.9641,0.72762 z M 415.7714,415.6728 c 0.53742,-7.42787 0.0799,-8.5863 -3.39123,-8.5863 -4.94139,0 -10.362,5.14847 -10.362,9.84178 0,4.88962 4.2552,8.60306 9.06778,7.91331 3.22295,-0.46192 4.1928,-2.35978 4.68545,-9.16879 z m -12.87911,-38.74056 c 4.18027,-4.61915 3.56564,-9.96712 -1.50161,-13.06576 -3.01292,-1.8424 -4.52699,-1.23728 -8.58629,3.43165 -6.89479,7.93026 -6.55584,13.52441 0.81944,13.52441 3.16129,0 7.33209,-1.75064 9.26846,-3.8903 z m 213.84702,-10.75692 c 1.26378,-3.52456 -2.18028,-9.59644 -5.44327,-9.59644 -3.93115,0 -7.89347,5.50375 -6.52664,9.06565 1.41238,3.68057 10.69293,4.09211 11.96991,0.53079 z m 14.08631,-20.20305 c 1.56216,-4.64288 -0.94271,-9.59645 -4.85263,-9.59645 -4.32297,0 -6.80142,4.47848 -5.03127,9.09138 1.40658,3.66548 8.69524,4.03794 9.8839,0.50507 z m -39.24024,-5.22695 c 1.08264,-7.64506 -5.55976,-33.83956 -10.40374,-41.02758 -5.1035,-7.57306 -16.9675,-12.91779 -24.48578,-11.03082 -14.87094,3.73237 -34.89968,35.56707 -22.37696,35.56707 1.41288,0 6.84073,-5.00025 12.06189,-11.11167 16.5211,-19.33817 29.33513,-12.00884 29.37235,16.80033 0.0162,12.02338 2.97712,16.93242 9.7436,16.1507 3.91014,-0.45172 5.60623,-1.94149 6.08864,-5.34803 z m -96.00342,-8.02336 c 1.52912,-7.6456 -1.87905,-21.91373 -6.92824,-29.00465 -8.02554,-11.27084 -23.88705,-15.08774 -36.2123,-8.7141 -7.93921,4.10552 -18.05495,21.96346 -18.07941,31.91668 -0.0168,6.8513 0.49081,7.64427 4.52673,7.07107 3.15761,-0.44845 6.39646,-4.10924 10.6066,-11.98837 8.23761,-15.41641 10.67706,-17.95165 17.27333,-17.95165 7.02623,0 13.4738,7.62821 15.11485,17.88263 2.50502,15.6529 2.88883,16.46256 7.80387,16.46256 3.60027,0 5.03618,-1.38223 5.89457,-5.67417 z m -9.3362,-76.42279 c 1.83696,-4.78704 -2.08568,-9.82692 -7.64851,-9.82692 -5.49743,0 -7.57168,5.61489 -3.76754,10.19858 3.26741,3.937 9.84484,3.72287 11.41605,-0.37166 z"
       id="path9436"
       inkscape:connector-curvature="0"
       sodipodi:nodetypes="ccsscccsssccscssssccssscccsssccsccsscsssccccssssscssscssssscscsscssssssscsscscscssssccscscsccsscsssssscssssssccssccscccsccscsscccsscsccsscsscscc"
       transform="scale(0.26458333)" />
    <path
       style="fill:#ff2a2a;fill-opacity:1;stroke:#000000;stroke-width:3.81789947;stroke-miterlimit:4;stroke-dasharray:none;stroke-opacity:1"
       d="m 532.32785,412.41832 c -14.10213,-7.29629 -17.84233,-8.36228 -29.34061,-8.36228 -11.50725,0 -14.51786,0.85968 -23.74399,6.78007 -5.99492,3.84693 -11.91907,6.26078 -13.69392,5.5797 -3.91523,-1.50241 -11.13382,-17.53789 -12.50843,-27.78642 -1.39359,-10.38994 3.6967,-23.65588 11.12103,-22.77928 3.84932,0.45449 6.75474,8.38302 10.58723,14.97243 5.60272,9.63307 12.16304,12.3841 19.79363,8.30033 2.70983,-1.45026 4.54152,-1.33981 6.25873,0.37741 1.41905,1.41905 9.31201,1.52236 18.99732,1.75601 11.79186,-2.28014 18.72023,1.60961 21.34876,1.77881 3.21592,0.20701 7.86441,-2.73123 14.21153,-8.98292 5.18782,-5.10981 10.09638,-9.29056 10.90792,-9.29056 2.94604,0 9.48244,13.28519 9.48981,19.28796 0.008,6.78086 -10.2175,18.21046 -21.20565,23.70198 -5.82358,2.91043 -6.69383,2.70158 -22.22336,-5.33324 z"
       id="path9438"
       inkscape:connector-curvature="0"
       transform="scale(0.26458333)"
       sodipodi:nodetypes="ssscccssccscscss" />
    <path
       style="fill:#000000;fill-opacity:1;stroke:#000000;stroke-width:0.08436446;stroke-miterlimit:4;stroke-dasharray:none;stroke-opacity:1"
       d="m 554.1144,426.71622 c -3.99486,-2.36283 -11.82688,-7.12233 -11.78656,-7.16266 0.009,-0.009 0.25067,0.0839 0.53807,0.20546 2.95739,1.25057 5.04268,1.73735 6.88227,1.60656 1.64257,-0.11678 2.88444,-0.51998 5.35679,-1.73923 1.7881,-0.88181 3.45907,-1.84144 5.12842,-2.94525 0.48757,-0.32239 0.89103,-0.58015 0.89656,-0.57279 0.006,0.007 0.21638,0.606 0.46855,1.33033 0.25216,0.72433 0.47386,1.3336 0.49266,1.35394 0.0188,0.0203 0.60415,-0.0343 1.30078,-0.12135 2.31971,-0.28996 4.29708,-0.51012 6.66838,-0.74246 0.91632,-0.0898 3.34975,-0.31002 3.43663,-0.31104 0.13784,-0.002 -2.71704,1.92592 -4.18679,2.82681 -2.14083,1.31224 -4.18669,2.43661 -6.90609,3.79549 -2.23226,1.11546 -4.70973,2.26511 -6.68253,3.10097 l -0.32092,0.13597 z"
       id="path9440"
       inkscape:connector-curvature="0"
       transform="scale(0.26458333)" />
    <path
       style="fill:#000000;fill-opacity:1;stroke:#000000;stroke-width:0.08436446;stroke-miterlimit:4;stroke-dasharray:none;stroke-opacity:1"
       d=""
       id="path9442"
       inkscape:connector-curvature="0"
       transform="scale(0.26458333)" />
    <path
       style="fill:#000000;fill-opacity:1;stroke:#000000;stroke-width:0.08436446;stroke-miterlimit:4;stroke-dasharray:none;stroke-opacity:1"
       d="m 534.90407,428.04749 c 0,-0.009 0.058,-0.14448 0.12887,-0.30134 0.3292,-0.72854 0.49587,-1.53004 0.49562,-2.3834 -1.8e-4,-0.5851 -0.0397,-0.90966 -0.18385,-1.50866 -0.0519,-0.21592 -0.0849,-0.40214 -0.0732,-0.41383 0.0384,-0.0384 0.31041,0.66367 0.42496,1.0966 0.0914,0.34558 0.11261,0.53155 0.11435,1.00446 0.002,0.64782 -0.0597,0.9777 -0.28683,1.52318 -0.16605,0.39888 -0.61991,1.11856 -0.61991,0.98299 z"
       id="path9444"
       inkscape:connector-curvature="0"
       transform="scale(0.26458333)" />
    <path
       style="fill:#000000;fill-opacity:1;stroke:#000000;stroke-width:0.08436446;stroke-miterlimit:4;stroke-dasharray:none;stroke-opacity:1"
       d="m 503.788,438.56433 v -6.20187 l 0.52455,-0.0303 c 5.15913,-0.29844 11.49577,-0.98417 15.97099,-1.72832 5.95614,-0.99039 9.12855,-2.05924 10.66589,-3.59353 0.54852,-0.54744 0.76125,-1.00908 0.75921,-1.64751 -0.005,-1.56422 -1.65865,-3.6961 -4.63939,-5.98111 -1.26635,-0.97078 -2.28548,-1.62034 -3.61607,-2.30476 -3.89211,-2.00201 -8.42417,-3.12581 -14.04018,-3.48151 -0.91673,-0.0581 -4.22538,-0.0638 -5.07812,-0.009 l -0.54688,0.0353 v -5.72552 -5.72552 l 0.79241,7.1e-4 c 0.94767,8.5e-4 3.03342,0.069 4.11831,0.13452 4.37789,0.26448 7.78489,0.97421 11.6741,2.43188 3.28906,1.23273 6.52241,2.75262 13.39286,6.29553 8.31636,4.28854 11.30385,5.66878 13.52679,6.24948 1.36467,0.3565 2.30353,0.37456 3.40995,0.0656 1.04722,-0.29242 3.46951,-1.45856 5.45165,-2.62453 7.70558,-4.53272 14.8562,-11.96222 17.06615,-17.73176 0.45409,-1.18551 0.6254,-1.98849 0.63096,-2.95759 l 0.004,-0.65848 h 8.04052 8.04052 l 0.0268,0.2567 c 0.14354,1.37706 0.14825,4.03326 0.009,5.34598 -0.21601,2.04334 -0.57277,3.69756 -1.20402,5.58277 -1.70363,5.08785 -5.13704,9.7667 -10.33736,14.08717 -5.74606,4.77387 -13.71486,9.19989 -24.30207,13.4978 -5.30203,2.15238 -12.00381,4.52861 -17.83731,6.32453 -10.85662,3.34235 -21.36349,5.45286 -30.62848,6.15232 -0.65067,0.0491 -1.33873,0.10134 -1.52902,0.11605 l -0.34598,0.0267 z m 31.14333,-10.52695 c -0.0383,-0.0415 -0.0585,-0.0371 -0.0889,0.0197 -0.0216,0.0404 -0.0978,0.17396 -0.16931,0.29673 l -0.13002,0.22321 0.21889,-0.24292 c 0.16441,-0.18245 0.20656,-0.25632 0.16932,-0.29673 z m 0.41917,-0.50945 c 0.0263,-0.0491 0.0377,-0.0893 0.0255,-0.0893 -0.0123,0 -0.0438,0.0402 -0.0701,0.0893 -0.0263,0.0491 -0.0377,0.0893 -0.0255,0.0893 0.0123,0 0.0438,-0.0402 0.0701,-0.0893 z m 0.476,-1.48438 c -0.0124,-0.0307 -0.0225,-0.006 -0.0225,0.0558 0,0.0614 0.0101,0.0865 0.0225,0.0558 0.0124,-0.0307 0.0124,-0.0809 0,-0.11161 z m 23.45257,-0.23437 c 0.0614,-0.0351 0.0915,-0.0638 0.067,-0.0638 -0.0246,0 -0.0949,0.0287 -0.15625,0.0638 -0.0614,0.0351 -0.0915,0.0638 -0.067,0.0638 0.0246,0 0.0949,-0.0287 0.15625,-0.0638 z m -23.4056,-0.36911 c -0.0102,-0.0671 -0.0183,-10e-4 -0.0181,0.14589 2.6e-4,0.14732 0.009,0.20221 0.0185,0.12197 0.01,-0.0802 0.01,-0.20077 -4.6e-4,-0.26786 z m 16.44132,0.23675 c 0,-0.0114 -0.0452,-0.0427 -0.10045,-0.0694 -0.0965,-0.0467 -0.097,-0.0459 -0.0138,0.0207 0.0911,0.073 0.11424,0.0828 0.11424,0.0487 z m -0.22322,-0.13393 c 0,-0.0114 -0.0452,-0.0426 -0.10044,-0.0694 -0.0965,-0.0467 -0.097,-0.0459 -0.0138,0.0208 0.0911,0.073 0.11423,0.0828 0.11423,0.0487 z m 7.94643,-0.0909 c 0.11049,-0.0592 0.1808,-0.10757 0.15625,-0.10757 -0.0245,0 -0.13504,0.0484 -0.24554,0.10757 -0.11049,0.0592 -0.1808,0.10758 -0.15625,0.10758 0.0246,0 0.13505,-0.0484 0.24554,-0.10758 z m -8.16964,-0.0431 c 0,-0.0114 -0.0452,-0.0426 -0.10045,-0.0694 -0.0965,-0.0467 -0.097,-0.0459 -0.0138,0.0208 0.0911,0.073 0.11424,0.0828 0.11424,0.0487 z m -0.22322,-0.13393 c 0,-0.0114 -0.0452,-0.0427 -0.10044,-0.0694 -0.0965,-0.0467 -0.097,-0.0459 -0.0138,0.0208 0.0911,0.073 0.11423,0.0828 0.11423,0.0487 z m 9.375,-0.29175 c 0.23326,-0.12027 0.40402,-0.21868 0.37947,-0.21868 -0.0246,0 -0.23549,0.0984 -0.46875,0.21868 -0.23326,0.12028 -0.40402,0.21868 -0.37947,0.21868 0.0246,0 0.23549,-0.0984 0.46875,-0.21868 z m -25.19364,-0.0112 c -0.0124,-0.0307 -0.0225,-0.006 -0.0225,0.0558 0,0.0614 0.0101,0.0865 0.0225,0.0558 0.0124,-0.0307 0.0124,-0.0809 0,-0.11161 z m 15.37222,0.0351 c 0,-0.0114 -0.0452,-0.0427 -0.10045,-0.0694 -0.0965,-0.0467 -0.097,-0.0459 -0.0138,0.0208 0.0911,0.073 0.11424,0.0828 0.11424,0.0487 z m -0.89286,-0.53572 c 0,-0.0114 -0.0452,-0.0426 -0.10045,-0.0694 -0.0965,-0.0467 -0.097,-0.0459 -0.0138,0.0208 0.0911,0.073 0.11424,0.0828 0.11424,0.0487 z m -0.22322,-0.13393 c 0,-0.0114 -0.0452,-0.0427 -0.10044,-0.0694 -0.0965,-0.0467 -0.097,-0.0459 -0.0138,0.0208 0.0911,0.073 0.11423,0.0828 0.11423,0.0487 z m -0.22321,-0.13393 c 0,-0.0114 -0.0452,-0.0426 -0.10045,-0.0694 -0.0965,-0.0468 -0.097,-0.0459 -0.0138,0.0207 0.0911,0.073 0.11424,0.0828 0.11424,0.0487 z m -0.22321,-0.13392 c 0,-0.0114 -0.0452,-0.0427 -0.10045,-0.0694 -0.0965,-0.0467 -0.097,-0.0459 -0.0138,0.0208 0.0911,0.073 0.11424,0.0828 0.11424,0.0487 z m 14.77678,-0.80589 c 0,-0.0123 -0.22098,0.0885 -0.49107,0.22396 -0.27009,0.13545 -0.49107,0.25632 -0.49107,0.2686 0,0.0123 0.22098,-0.0885 0.49107,-0.22396 0.27009,-0.13545 0.49107,-0.25633 0.49107,-0.2686 z m -29.10121,0.18298 c 0.0243,0.015 -0.0286,-0.11732 -0.11766,-0.29409 -0.089,-0.17677 -0.1696,-0.31366 -0.17906,-0.3042 -0.009,0.009 0.037,0.17777 0.10331,0.37403 0.0663,0.19626 0.12697,0.32087 0.13487,0.2769 0.008,-0.044 0.0342,-0.0677 0.0585,-0.0526 z m 13.29764,-0.002 c 0,-0.0114 -0.0452,-0.0427 -0.10045,-0.0694 -0.0965,-0.0467 -0.097,-0.0459 -0.0138,0.0208 0.0911,0.073 0.11424,0.0828 0.11424,0.0487 z m -0.22321,-0.13393 c 0,-0.0114 -0.0452,-0.0427 -0.10045,-0.0694 -0.0965,-0.0467 -0.097,-0.0459 -0.0138,0.0208 0.0911,0.073 0.11424,0.0828 0.11424,0.0487 z m -0.22322,-0.13393 c 0,-0.0114 -0.0452,-0.0427 -0.10045,-0.0694 -0.0965,-0.0467 -0.097,-0.0459 -0.0138,0.0207 0.0911,0.073 0.11423,0.0828 0.11423,0.0487 z m 16.91964,-0.27093 c 0,-0.0123 -0.10044,0.0286 -0.22321,0.0908 -0.12277,0.0622 -0.22322,0.12315 -0.22322,0.13543 0,0.0123 0.10045,-0.0286 0.22322,-0.0908 0.12277,-0.0622 0.22321,-0.12316 0.22321,-0.13543 z m -17.14285,0.137 c 0,-0.0114 -0.0452,-0.0426 -0.10045,-0.0694 -0.0965,-0.0467 -0.097,-0.0459 -0.0138,0.0208 0.0911,0.073 0.11424,0.0828 0.11424,0.0487 z m -0.22322,-0.13393 c 0,-0.0114 -0.0452,-0.0426 -0.10044,-0.0694 -0.0965,-0.0467 -0.097,-0.0459 -0.0138,0.0208 0.0911,0.073 0.11423,0.0828 0.11423,0.0487 z M 565.663,422.5926 c 0,-0.0123 -0.0603,0.009 -0.13393,0.0469 -0.0737,0.0381 -0.13393,0.0793 -0.13393,0.0916 0,0.0123 0.0603,-0.009 0.13393,-0.0469 0.0737,-0.0381 0.13393,-0.0793 0.13393,-0.0916 z m 0.49107,-0.26786 c 0,-0.0123 -0.0603,0.009 -0.13393,0.0469 -0.0737,0.0381 -0.13393,0.0793 -0.13393,0.0916 0,0.0123 0.0603,-0.009 0.13393,-0.0469 0.0737,-0.0381 0.13393,-0.0793 0.13393,-0.0916 z m -20.26785,-0.53185 c 0,-0.0114 -0.0452,-0.0426 -0.10045,-0.0694 -0.0965,-0.0467 -0.097,-0.0459 -0.0138,0.0208 0.0911,0.073 0.11424,0.0828 0.11424,0.0487 z m 22.90178,-0.98685 c 0,-0.0123 -0.0402,-8.2e-4 -0.0893,0.0255 -0.0491,0.0263 -0.0893,0.0578 -0.0893,0.0701 0,0.0123 0.0402,8.2e-4 0.0893,-0.0255 0.0491,-0.0263 0.0893,-0.0578 0.0893,-0.0701 z m 1.58482,-0.9782 0.0893,-0.0727 -0.0893,0.0438 c -0.0491,0.0241 -0.12946,0.0766 -0.17857,0.11653 l -0.0893,0.0727 0.0893,-0.0438 c 0.0491,-0.0241 0.12946,-0.0765 0.17857,-0.11653 z m -27.74553,-0.0439 c 0,-0.0114 -0.0452,-0.0426 -0.10045,-0.0694 -0.0965,-0.0467 -0.097,-0.0459 -0.0138,0.0208 0.0911,0.073 0.11424,0.0828 0.11424,0.0487 z m -0.41624,-0.35171 c -0.57755,-0.26588 -0.60642,-0.2567 -0.13225,0.0421 0.22551,0.1421 0.30875,0.17417 0.3517,0.13551 0.0435,-0.0392 -0.006,-0.0794 -0.21945,-0.17758 z m 29.24436,-0.30603 c 0.399,-0.26594 0.72545,-0.49357 0.72545,-0.50585 0,-0.0251 -1.47044,0.94681 -1.54018,1.01796 -0.0743,0.0758 0.048,-10e-4 0.81473,-0.51211 z m -8.23661,-0.46715 c -0.0307,-0.0124 -0.0809,-0.0124 -0.1116,0 -0.0307,0.0124 -0.006,0.0225 0.0558,0.0225 0.0614,0 0.0865,-0.0101 0.0558,-0.0225 z m 0.35715,-0.0446 c -0.0307,-0.0124 -0.0809,-0.0124 -0.11161,0 -0.0307,0.0124 -0.006,0.0225 0.0558,0.0225 0.0614,0 0.0865,-0.0101 0.0558,-0.0225 z m 0.35714,-0.0446 c -0.0307,-0.0124 -0.0809,-0.0124 -0.11161,0 -0.0307,0.0124 -0.006,0.0225 0.0558,0.0225 0.0614,0 0.0865,-0.0101 0.0558,-0.0225 z m 0.35714,-0.0446 c -0.0307,-0.0124 -0.0809,-0.0124 -0.1116,0 -0.0307,0.0124 -0.006,0.0225 0.0558,0.0225 0.0614,0 0.0865,-0.0101 0.0558,-0.0225 z m 0.35436,-0.0456 c -0.0322,-0.0129 -0.0707,-0.0113 -0.0856,0.004 -0.0148,0.0148 0.0115,0.0254 0.0586,0.0234 0.052,-0.002 0.0626,-0.0127 0.027,-0.027 z m 0.40178,-0.0446 c -0.0322,-0.0129 -0.0707,-0.0113 -0.0856,0.004 -0.0148,0.0148 0.0115,0.0254 0.0586,0.0235 0.052,-0.002 0.0626,-0.0127 0.027,-0.027 z m 0.35714,-0.0446 c -0.0322,-0.0129 -0.0707,-0.0113 -0.0856,0.004 -0.0148,0.0148 0.0115,0.0254 0.0586,0.0235 0.052,-0.002 0.0626,-0.0127 0.027,-0.027 z m 0.40458,-0.0437 c -0.0307,-0.0124 -0.0809,-0.0124 -0.11161,0 -0.0307,0.0124 -0.006,0.0225 0.0558,0.0225 0.0614,0 0.0865,-0.0101 0.0558,-0.0225 z m 0.399,-0.0456 c -0.0322,-0.0129 -0.0707,-0.0113 -0.0856,0.004 -0.0148,0.0148 0.0115,0.0254 0.0586,0.0234 0.052,-0.002 0.0626,-0.0127 0.027,-0.027 z m 0.80636,-0.0883 c -0.0307,-0.0124 -0.0809,-0.0124 -0.11161,0 -0.0307,0.0124 -0.006,0.0225 0.0558,0.0225 0.0614,0 0.0865,-0.0101 0.0558,-0.0225 z m 0.40178,-0.0446 c -0.0307,-0.0124 -0.0809,-0.0124 -0.1116,0 -0.0307,0.0124 -0.006,0.0225 0.0558,0.0225 0.0614,0 0.0865,-0.0101 0.0558,-0.0225 z m 0.40179,-0.0446 c -0.0307,-0.0124 -0.0809,-0.0124 -0.11161,0 -0.0307,0.0124 -0.006,0.0225 0.0558,0.0225 0.0614,0 0.0865,-0.0101 0.0558,-0.0225 z m 0.44643,-0.0446 c -0.0307,-0.0124 -0.0809,-0.0124 -0.11161,0 -0.0307,0.0124 -0.006,0.0225 0.0558,0.0225 0.0614,0 0.0865,-0.0101 0.0558,-0.0225 z m 0.39899,-0.0456 c -0.0322,-0.0129 -0.0707,-0.0113 -0.0856,0.004 -0.0148,0.0148 0.0115,0.0254 0.0586,0.0234 0.052,-0.002 0.0626,-0.0127 0.027,-0.027 z m 0.44922,-0.0437 c -0.0307,-0.0124 -0.0809,-0.0124 -0.11161,0 -0.0307,0.0124 -0.006,0.0225 0.0558,0.0225 0.0614,0 0.0865,-0.0101 0.0558,-0.0225 z m 0.44643,-0.0446 c -0.0307,-0.0124 -0.0809,-0.0124 -0.11161,0 -0.0307,0.0124 -0.006,0.0225 0.0558,0.0225 0.0614,0 0.0865,-0.0101 0.0558,-0.0225 z m 0.44364,-0.0456 c -0.0322,-0.0129 -0.0707,-0.0113 -0.0856,0.004 -0.0148,0.0148 0.0115,0.0254 0.0586,0.0235 0.052,-0.002 0.0626,-0.0127 0.027,-0.027 z m 0.49386,-0.0437 c -0.0307,-0.0124 -0.0809,-0.0124 -0.11161,0 -0.0307,0.0124 -0.006,0.0225 0.0558,0.0225 0.0614,0 0.0865,-0.0101 0.0558,-0.0225 z m 2.84598,-0.0374 c 0.0306,-0.0368 0.0455,-0.067 0.0333,-0.067 -0.0123,0 -0.0473,0.0301 -0.0779,0.067 -0.0306,0.0368 -0.0455,0.067 -0.0333,0.067 0.0123,0 0.0473,-0.0301 0.0779,-0.067 z m -2.37808,-0.009 c -0.0434,-0.0113 -0.1037,-0.0106 -0.13393,0.002 -0.0302,0.0122 0.005,0.0215 0.079,0.0206 0.0737,-9.2e-4 0.0984,-0.0109 0.0549,-0.0222 z m 0.4696,-0.0433 c -0.0307,-0.0124 -0.0809,-0.0124 -0.11161,0 -0.0307,0.0124 -0.006,0.0225 0.0558,0.0225 0.0614,0 0.0865,-0.0101 0.0558,-0.0225 z m 0.49107,-0.0446 c -0.0307,-0.0124 -0.0809,-0.0124 -0.11161,0 -0.0307,0.0124 -0.006,0.0225 0.0558,0.0225 0.0614,0 0.0865,-0.0101 0.0558,-0.0225 z m 1.72991,-0.13181 c 0,-0.009 -0.0854,-0.0142 -0.18973,-0.0105 -0.13832,0.005 -0.15571,0.0118 -0.0642,0.0256 0.1091,0.0164 0.11787,0.0282 0.067,0.0904 -0.0473,0.0577 -0.0349,0.0561 0.0642,-0.008 0.0675,-0.0439 0.12277,-0.0876 0.12277,-0.0971 z m -1.23884,0.0872 c -0.0307,-0.0124 -0.0809,-0.0124 -0.1116,0 -0.0307,0.0124 -0.006,0.0225 0.0558,0.0225 0.0614,0 0.0865,-0.0101 0.0558,-0.0225 z m 0.53572,-0.0446 c -0.0307,-0.0124 -0.0809,-0.0124 -0.11161,0 -0.0307,0.0124 -0.006,0.0225 0.0558,0.0225 0.0614,0 0.0865,-0.0101 0.0558,-0.0225 z m -11.78811,-1.47562 c 0.019,0.0299 0.0345,0.0342 0.0345,0.01 0,-0.13317 -0.0733,-0.14881 -0.20105,-0.0429 l -0.13241,0.10973 0.13223,-0.0654 c 0.10214,-0.0505 0.14008,-0.053 0.16672,-0.0111 z m 10.77248,-9.92339 c 0.0444,-0.0491 0.0708,-0.0893 0.0585,-0.0893 -0.0123,0 -0.0587,0.0402 -0.10312,0.0893 -0.0444,0.0491 -0.0708,0.0893 -0.0585,0.0893 0.0123,0 0.0587,-0.0402 0.10312,-0.0893 z m 0.52446,-0.63704 c 0.69784,-0.85246 1.45468,-1.89572 1.9886,-2.74114 0.64472,-1.02088 0.54837,-0.92244 -0.20411,0.20854 -0.61556,0.92518 -1.31262,1.88184 -1.90061,2.60844 -0.19728,0.24379 -0.33599,0.42921 -0.30822,0.41206 0.0278,-0.0172 0.21871,-0.23672 0.42434,-0.4879 z m 2.48893,-3.55938 c 0.0263,-0.0491 0.0377,-0.0893 0.0255,-0.0893 -0.0123,0 -0.0438,0.0402 -0.0701,0.0893 -0.0263,0.0491 -0.0377,0.0893 -0.0255,0.0893 0.0123,0 0.0438,-0.0402 0.0701,-0.0893 z m 0.13393,-0.22322 c 0.0263,-0.0491 0.0377,-0.0893 0.0255,-0.0893 -0.0123,0 -0.0438,0.0402 -0.0701,0.0893 -0.0263,0.0491 -0.0377,0.0893 -0.0255,0.0893 0.0123,0 0.0438,-0.0402 0.0701,-0.0893 z"
       id="path9446"
       inkscape:connector-curvature="0"
       transform="scale(0.26458333)" />
    <path
       style="fill:#000000;fill-opacity:1;stroke:#000000;stroke-width:0.08436446;stroke-miterlimit:4;stroke-dasharray:none;stroke-opacity:1"
       d="m 503.788,438.57891 v -6.22408 l 0.18973,-0.0237 c 0.10436,-0.013 0.56139,-0.0453 1.01563,-0.0716 4.62958,-0.26846 11.08377,-0.98192 15.37946,-1.70006 5.53273,-0.92495 8.67417,-1.9369 10.26382,-3.30628 0.92706,-0.7986 1.19916,-1.50192 0.96269,-2.48834 -0.37438,-1.56171 -2.0901,-3.5273 -4.93434,-5.65297 -2.06898,-1.54627 -4.55423,-2.8045 -7.34913,-3.72071 -2.72919,-0.89467 -5.70852,-1.44801 -9.30018,-1.7273 -1.01101,-0.0786 -5.01784,-0.10895 -5.81473,-0.044 l -0.41295,0.0337 v -5.76367 -5.76367 l 0.2567,6.5e-4 c 0.63626,0.002 3.55095,0.0923 4.29687,0.13364 6.41383,0.3558 10.7617,1.57305 18.10268,5.06809 1.45909,0.69467 4.84455,2.39576 7.99107,4.01527 8.51074,4.38045 11.3578,5.64793 13.70536,6.10144 0.18988,0.0367 0.6103,0.0597 1.07143,0.0587 1.05189,-0.002 1.51186,-0.11888 2.9459,-0.74636 2.84065,-1.24296 6.30693,-3.3602 9.17463,-5.60397 2.75188,-2.15314 5.39516,-4.69042 7.49778,-7.19708 2.81186,-3.35218 4.69604,-6.86972 4.95506,-9.25047 0.0259,-0.23843 0.0472,-0.6352 0.0472,-0.8817 v -0.44819 h 8.05719 8.05718 l 0.0222,0.10045 c 0.11318,0.51331 0.16026,3.8508 0.0704,4.98884 -0.34651,4.38732 -1.79254,8.5088 -4.32081,12.3152 -2.8954,4.35912 -7.4121,8.51533 -13.3593,12.29303 -7.71591,4.90121 -18.03662,9.47343 -31.5235,13.96534 -12.87867,4.28934 -24.70504,6.83519 -35.44079,7.62931 -0.67522,0.0499 -1.31305,0.10069 -1.41741,0.11275 l -0.18973,0.0219 z m 31.10587,-10.49571 c -0.015,-0.015 -0.0513,0.0197 -0.0807,0.0771 -0.0511,0.0997 -0.0499,0.10088 0.0272,0.0272 0.0444,-0.0424 0.0684,-0.0893 0.0535,-0.10427 z m 0.32198,-4.84234 c -0.0722,-0.13493 -0.1013,-0.0815 -0.0399,0.0733 0.0282,0.0709 0.0602,0.10496 0.0711,0.0756 0.0109,-0.0293 -0.003,-0.0963 -0.0313,-0.14892 z m 7.14358,-3.68054 c 0,-0.0116 -0.0653,-0.0528 -0.14509,-0.0915 l -0.14509,-0.0703 0.10539,0.0915 c 0.0987,0.0857 0.18479,0.11847 0.18479,0.0703 z"
       id="path9448"
       inkscape:connector-curvature="0"
       transform="scale(0.26458333)" />
    <path
       style="fill:#000000;fill-opacity:1;stroke:#000000;stroke-width:0.23861872;stroke-miterlimit:4;stroke-dasharray:none;stroke-opacity:1"
       d="m 493.61948,444.79117 c -12.84792,-0.73362 -23.70416,-4.36022 -31.41788,-10.49536 -1.58654,-1.26186 -4.62065,-4.2571 -5.99836,-5.92151 -5.69419,-6.87916 -10.31148,-15.53101 -13.4321,-25.16903 -1.94242,-5.99914 -3.05549,-11.52316 -3.6681,-18.20439 -0.74202,-8.09253 -0.61302,-10.63862 0.67814,-13.38452 0.76544,-1.62785 1.8316,-2.96901 4.42256,-5.56326 2.52057,-2.52378 3.66086,-3.48174 6.0023,-5.04253 7.69159,-5.12719 17.03673,-6.39954 32.38802,-4.40964 1.31951,0.17104 4.01851,0.56456 5.99778,0.87448 7.21444,1.12966 13.48276,1.80105 22.34962,2.39383 8.98023,0.60036 16.02542,0.81415 31.441,0.95406 7.11842,0.0646 13.93695,0.17426 15.15229,0.24366 8.29499,0.47372 12.63179,1.31183 16.35184,3.16008 4.55271,2.26195 7.33298,5.77114 11.46315,14.4685 2.48189,5.22642 3.59082,8.61966 4.39203,13.43954 0.93373,5.61702 0.13174,10.89681 -2.41671,15.9099 -5.67322,11.15989 -20.38263,20.33084 -46.5841,29.04404 -10.49782,3.49101 -20.98032,5.9643 -29.92577,7.06082 -2.40948,0.29535 -6.34094,0.65531 -6.88664,0.63053 -0.2056,-0.009 -2.1921,0.0131 -4.41444,0.0498 -2.22233,0.0367 -4.87492,0.0192 -5.89463,-0.039 z m 3.49552,-12.12244 c 2.50013,-0.0664 5.54005,-0.20667 6.75539,-0.3117 1.21534,-0.10503 3.28931,-0.27823 4.60883,-0.38488 5.05526,-0.40859 10.70271,-1.15181 14.38602,-1.89324 5.91002,-1.18965 8.78435,-2.74742 8.78435,-4.76076 0,-2.13636 -3.99784,-6.06452 -8.45061,-8.30333 -3.12559,-1.57152 -6.42731,-2.5193 -10.86856,-3.11992 -2.43747,-0.32963 -9.57329,-0.32962 -11.86929,2e-5 -9.16356,1.31561 -16.40568,4.42786 -20.84573,8.9583 -2.0021,2.04286 -4.40053,5.96323 -4.11054,6.71892 0.11483,0.29924 1.68685,0.98802 3.43069,1.50316 3.78814,1.11903 5.86632,1.43304 10.47704,1.58305 1.5973,0.052 2.96101,0.10273 3.03045,0.1128 0.0695,0.0101 2.17183,-0.036 4.67196,-0.10242 z m -25.2569,-4.52621 c -0.11249,-0.12043 -0.28811,0.48576 -0.2167,0.74801 0.0727,0.26706 0.0936,0.24238 0.16961,-0.20056 0.0477,-0.27779 0.0689,-0.52414 0.0471,-0.54745 z m -9.15142,-8.03278 c 0,-0.0314 -0.2557,-0.23299 -0.56821,-0.448 -0.31252,-0.21502 -0.56821,-0.36292 -0.56821,-0.32866 0,0.0528 1.01246,0.81162 1.10485,0.8281 0.0174,0.003 0.0316,-0.0201 0.0316,-0.0514 z m -1.26269,-0.87038 c 0,-0.024 -0.12785,-0.1518 -0.28411,-0.2841 l -0.2841,-0.24054 0.24054,0.2841 c 0.22605,0.26699 0.32767,0.34159 0.32767,0.24054 z m 8.20749,-1.15951 c 0.8382,-0.19322 3.59708,-1.49095 4.16688,-1.96002 0.27768,-0.2286 0.23969,-0.22297 -0.31568,0.0468 -1.04495,0.50759 -3.46595,1.44112 -4.60882,1.77714 -0.94326,0.27733 -1.01209,0.31614 -0.56821,0.32041 0.27779,0.003 0.87442,-0.0803 1.32583,-0.18434 z m 80.83378,-0.74857 c 2.52203,-0.65691 7.66756,-3.66686 11.46891,-6.70891 1.9981,-1.59899 5.86451,-5.40925 7.22805,-7.12307 2.00238,-2.51679 3.66383,-5.368 4.28542,-7.35423 0.43142,-1.37853 0.40639,-3.60575 -0.0602,-5.36013 -1.01388,-3.81199 -3.07798,-8.50907 -5.0604,-11.51546 -0.83915,-1.27259 -1.7814,-2.41296 -1.99376,-2.41296 -0.47734,0 -4.91166,3.89348 -9.69536,8.51285 -6.36744,6.14869 -10.31325,8.79265 -14.07066,9.42827 -1.1882,0.201 -2.09108,0.0832 -4.51179,-0.58885 -3.01519,-0.83704 -4.39347,-1.15522 -6.23647,-1.43973 -3.27867,-0.50613 -7.15866,-0.46062 -10.6066,0.12443 -1.27419,0.2162 -1.74369,0.22603 -5.68211,0.11892 -9.48429,-0.25794 -13.22527,-0.63343 -15.02116,-1.50772 -0.28046,-0.13654 -0.82207,-0.50514 -1.20357,-0.81912 -1.191,-0.98022 -1.77918,-0.93922 -4.41797,0.30801 -2.80092,1.32385 -4.56248,1.77411 -6.92947,1.77119 -4.50803,-0.006 -8.59894,-2.37488 -12.18791,-7.05881 -1.70048,-2.21929 -2.45339,-3.47709 -5.22158,-8.72317 -2.85989,-5.41985 -3.73518,-6.85122 -4.99693,-8.1715 -0.92606,-0.96902 -1.54411,-1.24033 -2.54155,-1.11571 -3.71573,0.46425 -7.15236,6.34109 -8.163,13.95917 -0.22654,1.70768 -0.19287,5.44405 0.0637,7.07106 0.51712,3.27892 1.52608,7.03481 2.92471,10.88737 2.22787,6.13672 5.33008,12.10922 7.41298,14.27175 0.64355,0.66816 0.74366,0.72604 1.25551,0.72604 1.79522,0 6.41436,-2.06735 11.08237,-4.96003 5.19721,-3.22063 7.08087,-4.28174 9.02824,-5.08583 4.17182,-1.72259 6.74476,-2.14276 14.2684,-2.33009 10.75916,-0.2679 15.28771,0.50524 23.10457,3.94455 0.97374,0.42843 5.74791,2.77486 10.60927,5.21429 4.86136,2.43942 9.46387,4.68247 10.2278,4.98456 2.71516,1.07367 4.20831,1.32591 5.64055,0.95286 z m 27.06447,-25.41717 c -0.10035,-1.07384 -0.41771,-2.43026 -0.83874,-3.58498 -0.35622,-0.97695 -0.42143,-0.88445 -0.10623,0.15067 0.35958,1.18086 0.8805,3.55783 0.8805,4.01772 0,0.21735 0.0351,0.39517 0.078,0.39517 0.0429,0 0.0368,-0.44036 -0.0135,-0.97858 z m -66.11041,-5.02004 c 0.86225,-0.35682 2.47628,-0.74199 3.73216,-0.89063 0.60873,-0.072 0.86927,-0.18021 1.32582,-0.55037 0.31252,-0.25339 0.78129,-0.61794 1.04172,-0.81012 0.43004,-0.31733 0.4736,-0.40387 0.47446,-0.94276 0.002,-0.98959 0.24303,-2.19821 0.57731,-2.88997 0.30854,-0.6385 0.31179,-0.67375 0.12785,-1.38896 -0.60069,-2.3357 -0.51262,-5.91966 0.19618,-7.98346 0.12913,-0.376 0.21574,-0.70267 0.19247,-0.72594 -0.0233,-0.0233 -1.34451,0.0191 -2.93608,0.0941 -1.59157,0.075 -3.71768,0.0987 -4.72467,0.0526 -1.98251,-0.0908 -3.26902,0.0269 -5.05076,0.46193 -4.30846,1.05194 -5.30488,3.38746 -3.0712,7.19864 0.69858,1.19195 2.15574,3.05752 4.27374,5.47158 1.09676,1.25007 2.16757,2.51582 2.37958,2.81278 0.21201,0.29697 0.44452,0.51458 0.51668,0.48359 0.0722,-0.031 0.4973,-0.20785 0.94474,-0.39302 z m 28.8597,-1.28751 c 1.05931,-0.23377 2.44428,-0.76751 3.43948,-1.32552 0.98016,-0.54958 5.29419,-4.85676 6.19909,-6.18926 0.95023,-1.39924 1.40158,-2.43259 1.49378,-3.41997 0.069,-0.7394 0.0394,-0.91263 -0.26178,-1.52818 -0.57404,-1.17329 -1.92429,-1.97303 -4.29302,-2.54274 -3.82126,-0.91906 -9.40597,-1.01847 -20.65655,-0.36768 -1.84037,0.10645 -3.52592,0.22138 -3.74565,0.25539 l -0.39953,0.0618 0.24064,0.68465 c 0.13235,0.37656 0.33254,1.21301 0.44486,1.85878 0.27496,1.58078 0.18704,4.93047 -0.16398,6.24801 l -0.24165,0.90699 4.04766,2.026 c 4.90828,2.45676 6.95493,3.20143 9.74351,3.54516 1.10558,0.13627 3.01242,0.0383 4.15314,-0.21347 z m -51.94992,-0.99667 c 3.84649,-1.55504 6.45168,-3.82383 7.52555,-6.55381 0.31965,-0.81259 0.34805,-1.02648 0.35208,-2.65165 0.004,-1.60831 -0.0271,-1.8595 -0.34496,-2.78467 -1.541,-4.48567 -6.0324,-8.12255 -10.32017,-8.35668 -2.78656,-0.15216 -5.17005,1.22917 -6.49277,3.76283 l -0.49477,0.94773 0.57666,1.44763 c 0.31717,0.79619 0.98738,2.52722 1.48937,3.84674 2.55546,6.71723 4.4116,9.82433 6.26321,10.48435 0.62838,0.22399 0.51066,0.23559 1.4458,-0.14247 z m 13.52265,-0.59611 c -0.1512,-0.16094 -0.51624,-0.41924 -0.8112,-0.57399 -0.34842,-0.18281 -0.42816,-0.20194 -0.22761,-0.0546 0.16977,0.12471 0.51069,0.37911 0.75761,0.56534 0.55945,0.42194 0.63388,0.43868 0.2812,0.0633 z m 63.12575,-10.71132 c 0.3675,-0.17448 0.56638,-0.3366 0.49747,-0.40552 -0.16936,-0.16936 -1.02774,0.37949 -2.43595,1.55755 -0.67712,0.56645 -1.23112,1.05272 -1.23112,1.08059 0,0.0279 0.57539,-0.39766 1.27865,-0.94562 0.70326,-0.54797 1.55418,-1.12712 1.89095,-1.287 z"
       id="path9450"
       inkscape:connector-curvature="0"
       transform="scale(0.26458333)" />
    <path
       style="fill:#000000;fill-opacity:1;stroke:#000000;stroke-width:0.23861872;stroke-miterlimit:4;stroke-dasharray:none;stroke-opacity:1"
       d=""
       id="path9452"
       inkscape:connector-curvature="0"
       transform="scale(0.26458333)" />
    <path
       style="fill:#000000;fill-opacity:1;stroke:#000000;stroke-width:0.23861872;stroke-miterlimit:4;stroke-dasharray:none;stroke-opacity:1"
       d="m 492.06424,444.77232 c -11.73908,-0.93314 -21.77369,-4.30706 -29.03832,-9.76351 -2.34702,-1.76285 -5.6161,-4.98206 -7.64348,-7.52688 -7.54618,-9.47219 -13.30516,-22.71033 -15.45933,-35.53625 -0.78581,-4.67873 -1.2571,-9.88035 -1.26419,-13.95274 -0.005,-2.81316 0.0207,-3.1966 0.28224,-4.23001 0.72977,-2.88344 2.36826,-5.1415 6.62958,-9.13644 5.46601,-5.12432 11.0587,-7.70759 18.77744,-8.67333 2.25443,-0.28206 7.14603,-0.3752 10.16466,-0.19353 4.24683,0.25559 6.86709,0.5586 13.76332,1.59162 8.6346,1.29341 13.87625,1.85263 22.98098,2.45179 8.6059,0.56633 13.82017,0.72972 28.41054,0.89022 16.54653,0.18203 19.94545,0.30491 24.62014,0.89011 6.67905,0.83611 10.85283,2.5513 14.09289,5.7914 1.96038,1.96039 3.66124,4.5642 5.98745,9.16608 3.00397,5.94264 4.5233,10.23069 5.36876,15.15229 1.18874,6.92001 -0.0953,13.19114 -3.89099,19.00349 -2.21563,3.39279 -5.51752,6.75233 -9.69581,9.86511 -7.91513,5.89669 -19.89025,11.4817 -35.95285,16.76785 -12.40221,4.08152 -24.55641,6.67492 -34.87478,7.44139 -1.9472,0.14464 -11.44344,0.1456 -13.25825,10e-4 z m 6.88166,-12.23512 c 5.09891,-0.19784 11.90182,-0.77562 17.17259,-1.45849 6.28431,-0.81418 10.43944,-1.75153 12.81631,-2.89123 3.49018,-1.67353 3.46616,-3.63245 -0.0869,-7.08705 -3.81704,-3.71127 -8.82854,-5.95061 -15.69672,-7.01392 -2.08675,-0.32307 -8.57046,-0.46631 -11.18805,-0.24717 -5.43288,0.45482 -11.97837,2.32677 -16.27547,4.65462 -4.07075,2.20523 -6.73347,4.66825 -8.91122,8.24291 -1.21333,1.99161 -1.42805,2.71586 -0.9062,3.05656 0.97241,0.63483 5.05021,1.86567 7.60771,2.2963 3.07706,0.51811 9.13262,0.6933 15.46796,0.44747 z m -29.1595,-14.59338 c 0.74977,-0.22158 2.67613,-1.06897 2.60096,-1.14413 -0.0258,-0.0258 -0.58082,0.15993 -1.23351,0.4126 -0.65268,0.25268 -1.4566,0.54003 -1.78648,0.63857 -0.58799,0.17564 -0.76387,0.29565 -0.43329,0.29565 0.0916,0 0.47511,-0.0912 0.85232,-0.20269 z m 81.28636,-0.879 c 2.70579,-0.90467 7.93737,-4.10262 11.34597,-6.93555 1.66932,-1.38739 5.50522,-5.19376 6.60443,-6.55359 1.19748,-1.48139 2.75709,-3.87831 3.50574,-5.38783 1.45925,-2.94239 1.54287,-5.14709 0.33936,-8.94779 -1.34487,-4.24712 -4.02948,-9.57571 -5.88823,-11.68738 -0.2759,-0.31344 -0.58014,-0.56989 -0.67608,-0.56989 -0.4258,0 -4.02745,3.15216 -9.02174,7.89581 -5.71163,5.425 -8.22298,7.38754 -11.3726,8.88733 -2.96645,1.41257 -4.40632,1.47103 -8.5312,0.34636 -3.16881,-0.86399 -4.63868,-1.17041 -6.83936,-1.4258 -2.35236,-0.27299 -6.03501,-0.18456 -8.90452,0.21384 -2.11344,0.29342 -2.14666,0.29406 -7.19734,0.13862 -6.80495,-0.20943 -9.7369,-0.42064 -11.89262,-0.85672 -1.46526,-0.29641 -2.01467,-0.53059 -3.11511,-1.32777 -1.04915,-0.76003 -1.05365,-0.7618 -1.80938,-0.71026 -0.57527,0.0392 -1.10712,0.21187 -2.20971,0.71727 -3.3404,1.53116 -4.90581,1.937 -7.44988,1.93146 -1.40728,-0.003 -1.91921,-0.0595 -2.93477,-0.32326 -3.23143,-0.8394 -5.91603,-2.67891 -8.61906,-5.90585 -1.91976,-2.29185 -2.76122,-3.65912 -6.12964,-9.95984 -2.85287,-5.33637 -3.5132,-6.40567 -4.78229,-7.74418 -0.8411,-0.88711 -1.39668,-1.13956 -2.34107,-1.06375 -4.58771,0.36826 -8.7442,9.50293 -8.34571,18.34125 0.13015,2.88655 0.67357,5.68447 1.89721,9.76806 2.07768,6.93383 6.0582,15.21904 8.60769,17.91643 0.58674,0.62079 0.66511,0.66291 1.23324,0.66291 1.80426,0 5.88256,-1.80059 10.74467,-4.74382 1.4584,-0.88284 3.36191,-2.03257 4.23001,-2.55496 4.34938,-2.61731 7.39793,-3.82935 11.17481,-4.4429 2.59731,-0.42192 5.18184,-0.55177 11.04855,-0.55506 6.17859,-0.003 7.46012,0.0901 10.97994,0.80194 4.73047,0.95664 7.63533,2.17693 20.5209,8.62058 3.60949,1.80499 7.33127,3.63633 8.27063,4.06966 3.71189,1.7123 5.56289,2.05145 7.55716,1.38468 z M 511.82535,386.7164 c 0.5903,-0.2064 1.58467,-0.46741 2.2097,-0.58003 0.62504,-0.11262 1.33845,-0.25688 1.58537,-0.32059 0.41653,-0.10748 2.26312,-1.42089 2.26803,-1.61318 0.0247,-0.96511 0.31657,-2.60717 0.58093,-3.26797 l 0.33056,-0.82627 -0.23587,-1.02614 c -0.18897,-0.82213 -0.23364,-1.50312 -0.22466,-3.42525 0.01,-2.15152 0.0444,-2.52291 0.33281,-3.59867 0.17688,-0.65976 0.31348,-1.20944 0.30355,-1.22151 -0.01,-0.0121 -2.51776,0.0236 -5.57297,0.0793 -5.41735,0.0988 -5.5862,0.10946 -6.81762,0.43107 -4.19371,1.09526 -5.27696,3.07545 -3.54912,6.48785 0.71992,1.42181 2.02678,3.13589 4.94088,6.48049 0.70023,0.80367 1.52586,1.78618 1.83473,2.18336 0.36413,0.46823 0.62818,0.6994 0.75099,0.65746 0.10417,-0.0356 0.67238,-0.23355 1.26269,-0.43995 z m 27.38198,-1.02622 c 1.25907,-0.15787 2.8091,-0.62998 3.94696,-1.20216 1.56915,-0.78905 5.66947,-4.82135 7.02022,-6.90375 1.46178,-2.25359 1.54656,-4.08189 0.246,-5.30512 -0.94225,-0.88623 -3.25216,-1.6681 -6.14401,-2.07966 -2.94892,-0.41969 -14.17521,-0.25949 -21.12485,0.30145 -0.83483,0.0674 -0.97269,0.11032 -0.90466,0.28178 0.28025,0.7063 0.58856,2.29495 0.67639,3.48529 0.11928,1.61649 -0.0296,4.24452 -0.29645,5.23429 -0.10212,0.37873 -0.17357,0.69913 -0.15876,0.71199 0.16106,0.13994 6.95723,3.46215 7.94904,3.88578 3.45346,1.47506 6.01386,1.93823 8.79012,1.59011 z m -50.73219,-1.20813 c 3.50225,-1.4231 6.00287,-3.5702 7.21248,-6.19284 0.36695,-0.79561 0.4032,-0.99435 0.4551,-2.49466 0.0831,-2.40367 -0.30888,-3.74488 -1.71947,-5.88283 -2.18273,-3.30822 -5.92403,-5.55892 -9.23289,-5.55434 -2.80481,0.004 -4.91108,1.37789 -6.28852,4.10225 l -0.25537,0.50508 0.93569,2.39911 c 2.16059,5.53973 2.51714,6.40218 3.39307,8.20749 1.4263,2.93963 2.43824,4.32883 3.59079,4.92943 0.73432,0.38266 0.92599,0.38079 1.90912,-0.0187 z"
       id="path9454"
       inkscape:connector-curvature="0"
       transform="scale(0.26458333)" />
    <path
       style="fill:#000000;fill-opacity:1;stroke:#000000;stroke-width:0.11930936;stroke-miterlimit:4;stroke-dasharray:none;stroke-opacity:1"
       d="m 579.62071,516.05983 c -1.05153,-0.50986 -3.08318,-1.06066 -4.98763,-1.35219 -1.42247,-0.21774 -1.40224,-0.2537 0.12627,-0.22433 2.42582,0.0466 3.53496,0.35735 4.90849,1.37524 0.67594,0.50091 0.66522,0.54668 -0.0471,0.20128 z"
       id="path9456"
       inkscape:connector-curvature="0"
       transform="scale(0.26458333)" />
    <path
       style="fill:#000000;fill-opacity:1;stroke:#000000;stroke-width:0.02109111;stroke-miterlimit:4;stroke-dasharray:none;stroke-opacity:1"
       d="m 573.24133,514.51727 -0.21763,-0.0302 0.11718,-0.007 c 0.0645,-0.004 0.17997,-0.0103 0.2567,-0.014 l 0.13951,-0.007 v 0.0456 c 0,0.045 -5.5e-4,0.0456 -0.0391,0.0441 -0.0215,-8.1e-4 -0.137,-0.015 -0.2567,-0.0316 z"
       id="path9458"
       inkscape:connector-curvature="0"
       transform="scale(0.26458333)" />
    <path
       style="fill:#000000;fill-opacity:1;stroke:#000000;stroke-width:0.02109111;stroke-miterlimit:4;stroke-dasharray:none;stroke-opacity:1"
       d="m 580.30434,516.40547 -0.11891,-0.064 0.026,-0.0302 0.026,-0.0302 0.10132,0.0895 c 0.14077,0.12439 0.13771,0.1275 -0.0343,0.0349 z"
       id="path9460"
       inkscape:connector-curvature="0"
       transform="scale(0.26458333)" />
    <path
       style="fill:#000000;fill-opacity:1;stroke:#000000;stroke-width:0.04218223;stroke-miterlimit:4;stroke-dasharray:none;stroke-opacity:1"
       d=""
       id="path9464"
       inkscape:connector-curvature="0"
       transform="scale(0.26458333)" />
    <path
       style="fill:#000000;fill-opacity:1;stroke:#000000;stroke-width:0.04218223;stroke-miterlimit:4;stroke-dasharray:none;stroke-opacity:1"
       d=""
       id="path9466"
       inkscape:connector-curvature="0"
       transform="scale(0.26458333)" />
    <path
       style="fill:#000000;fill-opacity:1;stroke:#000000;stroke-width:0.33745784;stroke-miterlimit:4;stroke-dasharray:none;stroke-opacity:1"
       d="m 559.24794,554.17329 c 0.0593,-0.0593 0.21336,-0.0657 0.34227,-0.0141 0.14245,0.057 0.10013,0.0993 -0.10789,0.10788 -0.18824,0.008 -0.29371,-0.0344 -0.23438,-0.0938 z"
       id="path9468"
       inkscape:connector-curvature="0"
       transform="scale(0.26458333)" />
    <path
       style="fill:#000000;fill-opacity:1;stroke:#000000;stroke-width:0.33745784;stroke-miterlimit:4;stroke-dasharray:none;stroke-opacity:1"
       d=""
       id="path9470"
       inkscape:connector-curvature="0"
       transform="scale(0.26458333)" />
    <path
       style="fill:#000000;fill-opacity:1;stroke:#000000;stroke-width:0.04218223;stroke-miterlimit:4;stroke-dasharray:none;stroke-opacity:1"
       d="m 553.75251,554.70098 c 1.98774,-0.13064 3.35358,-0.2687 5.20217,-0.52582 l 0.10173,-0.0141 0.005,0.10289 c 0.003,0.0566 10e-4,0.10289 -0.004,0.10289 -0.005,0 -0.15892,0.0197 -0.34143,0.0438 -0.81246,0.1073 -1.87972,0.20547 -2.93228,0.26971 -0.21485,0.0131 -0.82757,0.0276 -1.36161,0.0322 -0.70626,0.006 -0.88883,0.003 -0.66964,-0.0115 z"
       id="path9472"
       inkscape:connector-curvature="0"
       transform="scale(0.26458333)" />
    <path
       style="fill:#000000;fill-opacity:1;stroke:#000000;stroke-width:0.04218223;stroke-miterlimit:4;stroke-dasharray:none;stroke-opacity:1"
       d=""
       id="path9474"
       inkscape:connector-curvature="0"
       transform="scale(0.26458333)" />
    <path
       style="fill:#000000;fill-opacity:1;stroke:#000000;stroke-width:0.04218223;stroke-miterlimit:4;stroke-dasharray:none;stroke-opacity:1"
       d="m 559.84626,554.21747 c 0,-0.0173 -0.0153,-0.0611 -0.0341,-0.0973 -0.0187,-0.0362 -0.0313,-0.0661 -0.0279,-0.0663 0.003,-2.4e-4 0.35772,-0.0598 0.7874,-0.13224 1.26119,-0.21279 2.37466,-0.43035 3.61337,-0.70602 0.62552,-0.13921 0.70165,-0.15416 0.6813,-0.13381 -0.0194,0.0194 -1.20629,0.35442 -1.70538,0.48138 -0.90816,0.23102 -1.97602,0.45795 -2.87389,0.61074 -0.35875,0.0611 -0.44084,0.0692 -0.44084,0.0436 z"
       id="path9476"
       inkscape:connector-curvature="0"
       transform="scale(0.26458333)" />
    <ellipse
       style="fill:#000000;fill-opacity:1;stroke:#000000;stroke-width:0.5;stroke-miterlimit:4;stroke-dasharray:none;stroke-opacity:1"
       id="path9478"
       cx="147.77689"
       cy="146.60336"
       rx="1.9784691"
       ry="0.34549385" />
    <ellipse
       style="fill:#000000;fill-opacity:1;stroke:#000000;stroke-width:0.5;stroke-miterlimit:4;stroke-dasharray:none;stroke-opacity:1"
       id="path9480"
       cx="166.34186"
       cy="126.96269"
       rx="1.0857824"
       ry="1.5200955" />
    <ellipse
       style="fill:#000000;fill-opacity:1;stroke:#000000;stroke-width:0.5;stroke-miterlimit:4;stroke-dasharray:none;stroke-opacity:1"
       id="path9482"
       cx="167.71162"
       cy="128.15706"
       rx="0.86862594"
       ry="0.81016076" />
    <ellipse
       style="fill:#000000;fill-opacity:1;stroke:#000000;stroke-width:0.5;stroke-miterlimit:4;stroke-dasharray:none;stroke-opacity:1"
       id="path9484"
       cx="168.9895"
       cy="129.12592"
       rx="0.57629991"
       ry="0.35914341" />
    <ellipse
       style="fill:#000000;fill-opacity:1;stroke:#000000;stroke-width:0.5;stroke-miterlimit:4;stroke-dasharray:none;stroke-opacity:1"
       id="path9486"
       cx="168.66377"
       cy="128.92546"
       rx="0.8018086"
       ry="0.39255211" />
    <ellipse
       style="fill:#000000;fill-opacity:1;stroke:#000000;stroke-width:0.5;stroke-miterlimit:4;stroke-dasharray:none;stroke-opacity:1"
       id="path9488"
       cx="168.84752"
       cy="128.55797"
       rx="0.45101732"
       ry="0.59300429" />
    <path
       style="fill:#1a1a1a;fill-opacity:1;stroke:#000000;stroke-width:0.33745784;stroke-miterlimit:4;stroke-dasharray:none;stroke-opacity:1"
       d="m 499.56792,462.56813 c -3.39346,-0.6261 -7.05358,-2.86992 -7.05358,-4.32417 0,-0.96117 1.13604,-2.05593 2.70455,-2.60627 3.15184,-1.10589 7.38091,-0.28883 9.5064,1.83666 1.07315,1.07315 1.30302,1.8998 0.81095,2.91628 -0.96599,1.99548 -2.97741,2.72932 -5.96832,2.1775 z"
       id="path4807"
       inkscape:connector-curvature="0"
       transform="scale(0.26458333)" />
    <path
       style="fill:#000000;fill-opacity:1;stroke:#000000;stroke-width:0.33745784;stroke-miterlimit:4;stroke-dasharray:none;stroke-opacity:1"
       d="m 499.79352,462.4098 c -2.76759,-0.46601 -6.22976,-2.31497 -6.87724,-3.67275 -0.2694,-0.56493 -0.27317,-0.68075 -0.0359,-1.10346 0.1458,-0.25975 0.61057,-0.73579 1.03282,-1.05785 2.51275,-1.91654 7.80791,-1.47888 10.47868,0.8661 1.5549,1.36521 1.53595,2.67842 -0.0594,4.11977 -1.02466,0.92572 -2.4721,1.19621 -4.5389,0.84819 z"
       id="path4809"
       inkscape:connector-curvature="0"
       transform="scale(0.26458333)" />
    <path
       style="fill:#00ff00;stroke-width:0.12626907"
       d="m 716.60486,379.01116 c -2.605,-0.21787 -4.33592,-0.86158 -6.383,-2.37376 -0.70477,-0.52062 -2.68564,-2.40687 -5.46208,-5.20118 -2.39596,-2.41138 -4.78244,-4.75158 -5.3033,-5.20045 -6.65703,-5.73698 -14.71198,-9.78519 -22.06552,-11.08957 l -0.91545,-0.16238 v -1.68442 c 0,-1.09491 0.0465,-1.68441 0.13291,-1.68441 0.39853,0 5.17429,1.00896 8.07457,1.70588 3.71599,0.89294 5.39236,1.22324 7.63928,1.50522 4.94435,0.62048 9.87912,0.59933 15.21543,-0.0652 6.65048,-0.82821 12.62043,-2.4577 20.08055,-5.48097 3.99803,-1.62024 4.87271,-1.87821 6.30968,-1.86094 2.64693,0.0318 5.01352,1.55184 7.02444,4.51172 2.79569,4.11499 3.11807,7.18461 1.1664,11.10634 -1.45736,2.92847 -4.49991,6.45931 -8.75253,10.15718 -4.28382,3.72502 -6.72394,5.088 -10.08103,5.63096 -1.44419,0.23358 -4.94578,0.33108 -6.68035,0.18601 z"
       id="path70"
       inkscape:connector-curvature="0"
       transform="scale(0.26458333)" />
  </g>
</svg>
