<?xml version="1.0" encoding="UTF-8" standalone="no"?>
<svg
   xmlns:dc="http://purl.org/dc/elements/1.1/"
   xmlns:cc="http://creativecommons.org/ns#"
   xmlns:rdf="http://www.w3.org/1999/02/22-rdf-syntax-ns#"
   xmlns:svg="http://www.w3.org/2000/svg"
   xmlns="http://www.w3.org/2000/svg"
   xmlns:sodipodi="http://sodipodi.sourceforge.net/DTD/sodipodi-0.dtd"
   xmlns:inkscape="http://www.inkscape.org/namespaces/inkscape"
   height="1792"
   viewBox="0 0 1792 1792"
   width="1792"
   version="1.1"
   id="svg4"
   sodipodi:docname="female_f0.svg"
   inkscape:version="0.92.3 (2405546, 2018-03-11)"
   inkscape:export-filename="E:\kdev\documents\workunibe\onedrive2\OneDrive - Universitaet Bern\work\pandemic_game\icons\female_f0.png"
   inkscape:export-xdpi="96"
   inkscape:export-ydpi="96">
  <metadata
     id="metadata10">
    <rdf:RDF>
      <cc:Work
         rdf:about="">
        <dc:format>image/svg+xml</dc:format>
        <dc:type
           rdf:resource="http://purl.org/dc/dcmitype/StillImage" />
      </cc:Work>
    </rdf:RDF>
  </metadata>
  <defs
     id="defs8" />
  <sodipodi:namedview
     pagecolor="#ffffff"
     bordercolor="#666666"
     borderopacity="1"
     objecttolerance="10"
     gridtolerance="10"
     guidetolerance="10"
     inkscape:pageopacity="0"
     inkscape:pageshadow="2"
     inkscape:window-width="1920"
     inkscape:window-height="1001"
     id="namedview6"
     showgrid="false"
     inkscape:zoom="0.45254834"
     inkscape:cx="1160.0025"
     inkscape:cy="2020.1996"
     inkscape:window-x="-9"
     inkscape:window-y="-9"
     inkscape:window-maximized="1"
     inkscape:current-layer="svg4" />
  <path
     d="m 1153.0169,577.18644 q 0,221 -147.5,384.5 -147.49995,163.49996 -364.49995,187.49996 v 260 h 224 q 14,0 23,9 9,9 9,23 v 64 q 0,14 -9,23 -9,9 -23,9 h -224 v 224 q 0,14 -9,23 -9,9 -23,9 h -64 q -14,0 -23,-9 -9,-9 -9,-23 v -224 h -224 q -14,0 -23,-9 -9,-9 -9,-23 v -64 q 0,-14 9,-23 9,-9 23,-9 h 224 v -260 q -150,-16 -271.5,-103 -121.5,-86.99996 -186.000001,-223.99996 -64.5,-137 -52.5,-292 11,-134 80.5,-249 69.500001,-115 182.000001,-188 112.5,-72.999999 245.5,-87.999999 170,-19 319,54 149,72.999999 235.99995,211.999999 87,139 87,306 z m -1023.99995,0 q 0,185 131.5,316.5 131.5,131.49996 316.5,131.49996 185,0 316.5,-131.49996 131.49995,-131.5 131.49995,-316.5 0,-185 -131.49995,-316.5 -131.5,-131.5 -316.5,-131.5 -185,0 -316.5,131.5 -131.5,131.5 -131.5,316.5 z"
     id="path2"
     style="fill:#ff826c;fill-opacity:1"
     inkscape:connector-curvature="0" />
  <flowRoot
     xml:space="preserve"
     id="flowRoot825"
     style="font-style:normal;font-weight:normal;font-size:192px;line-height:1.25;font-family:sans-serif;letter-spacing:0px;word-spacing:0px;fill:#ff826c;fill-opacity:1;stroke:none;stroke-opacity:1;"
     transform="matrix(6.0205867,0,0,5.6275015,-6023.9009,-4922.7138)"><flowRegion
       id="flowRegion827"
       style="font-size:192px;fill:#ff826c;fill-opacity:1;stroke:none;stroke-opacity:1;"><rect
         id="rect829"
         width="588"
         height="750"
         x="1188"
         y="1020"
         style="font-size:192px;fill:#ff826c;fill-opacity:1;stroke:none;stroke-opacity:1;" /></flowRegion><flowPara
       id="flowPara831">0</flowPara></flowRoot></svg>
