<?xml version="1.0" encoding="UTF-8" standalone="no"?>
<svg
   xmlns:dc="http://purl.org/dc/elements/1.1/"
   xmlns:cc="http://creativecommons.org/ns#"
   xmlns:rdf="http://www.w3.org/1999/02/22-rdf-syntax-ns#"
   xmlns:svg="http://www.w3.org/2000/svg"
   xmlns="http://www.w3.org/2000/svg"
   xmlns:sodipodi="http://sodipodi.sourceforge.net/DTD/sodipodi-0.dtd"
   xmlns:inkscape="http://www.inkscape.org/namespaces/inkscape"
   height="1792"
   viewBox="0 0 1792 1792"
   width="1792"
   version="1.1"
   id="svg4"
   sodipodi:docname="male_f3.svg"
   inkscape:version="0.92.3 (2405546, 2018-03-11)"
   inkscape:export-filename="E:\kdev\documents\workunibe\onedrive2\OneDrive - Universitaet Bern\work\pandemic_game\icons\male_f3.png"
   inkscape:export-xdpi="96"
   inkscape:export-ydpi="96">
  <metadata
     id="metadata10">
    <rdf:RDF>
      <cc:Work
         rdf:about="">
        <dc:format>image/svg+xml</dc:format>
        <dc:type
           rdf:resource="http://purl.org/dc/dcmitype/StillImage" />
      </cc:Work>
    </rdf:RDF>
  </metadata>
  <defs
     id="defs8" />
  <sodipodi:namedview
     pagecolor="#ffffff"
     bordercolor="#666666"
     borderopacity="1"
     objecttolerance="10"
     gridtolerance="10"
     guidetolerance="10"
     inkscape:pageopacity="0"
     inkscape:pageshadow="2"
     inkscape:window-width="1920"
     inkscape:window-height="1001"
     id="namedview6"
     showgrid="false"
     inkscape:zoom="0.25"
     inkscape:cx="-1713.0042"
     inkscape:cy="421.70974"
     inkscape:window-x="-9"
     inkscape:window-y="-9"
     inkscape:window-maximized="1"
     inkscape:current-layer="svg4" />
  <path
     d="m 1472.8814,0.101695 q 26,0 45,19 19,19 19,45 V 480.10169 q 0,14 -9,23 -9,9 -23,9 h -64 q -14,0 -23,-9 -9,-9 -9,-23 v -262 l -382,383 q 126,156 126,359 0,117.00001 -45.5,223.50001 -45.5,106.5 -123,184 -77.50004,77.5 -184.00004,123 -106.5,45.5 -223.5,45.5 -117,0 -223.5,-45.5 -106.5,-45.5 -184,-123 -77.5,-77.5 -123.000004,-184 -45.5,-106.5 -45.5,-223.50001 0,-117 45.5,-223.5 45.500004,-106.5 123.000004,-184 77.5,-77.5 184,-123 106.5,-45.5 223.5,-45.5 203,0 359,126 l 382.00004,-382 h -261 q -14,0 -23,-9 -9,-9 -9,-23 V 32.101695 q 0,-14 9,-23 9,-9 23,-9 z M 576.88136,1408.1017 q 185,0 316.5,-131.5 131.50004,-131.5 131.50004,-316.50001 0,-185 -131.50004,-316.5 -131.5,-131.5 -316.5,-131.5 -185,0 -316.5,131.5 -131.5,131.5 -131.5,316.5 0,185.00001 131.5,316.50001 131.5,131.5 316.5,131.5 z"
     id="path2"
     style="fill:#6b9bc3;fill-opacity:1;stroke:none;stroke-opacity:1"
     inkscape:connector-curvature="0" />
  <flowRoot
     xml:space="preserve"
     id="flowRoot817"
     style="fill:black;fill-opacity:1;stroke:none;font-family:sans-serif;font-style:normal;font-weight:normal;font-size:192px;line-height:1.25;letter-spacing:0px;word-spacing:0px;"><flowRegion
       id="flowRegion819"
       style="font-size:192px;"><rect
         id="rect821"
         width="360"
         height="358"
         x="1204"
         y="996"
         style="font-size:192px;" /></flowRegion><flowPara
       id="flowPara823" /></flowRoot>  <flowRoot
     xml:space="preserve"
     id="flowRoot825"
     style="font-style:normal;font-weight:normal;font-size:192px;line-height:1.25;font-family:sans-serif;letter-spacing:0px;word-spacing:0px;fill:#6b9bc3;fill-opacity:1;stroke:none;stroke-opacity:1"
     transform="matrix(6.0205867,0,0,5.6275015,-6021.9988,-4922.7294)"><flowRegion
       id="flowRegion827"
       style="font-size:192px;fill:#6b9bc3;fill-opacity:1;stroke:none;stroke-opacity:1"><rect
         id="rect829"
         width="588"
         height="750"
         x="1188"
         y="1020"
         style="font-size:192px;fill:#6b9bc3;fill-opacity:1;stroke:none;stroke-opacity:1" /></flowRegion><flowPara
       id="flowPara831">3</flowPara></flowRoot></svg>
