<?xml version="1.0" encoding="UTF-8" standalone="no"?>
<svg
   xmlns:dc="http://purl.org/dc/elements/1.1/"
   xmlns:cc="http://creativecommons.org/ns#"
   xmlns:rdf="http://www.w3.org/1999/02/22-rdf-syntax-ns#"
   xmlns:svg="http://www.w3.org/2000/svg"
   xmlns="http://www.w3.org/2000/svg"
   xmlns:sodipodi="http://sodipodi.sourceforge.net/DTD/sodipodi-0.dtd"
   xmlns:inkscape="http://www.inkscape.org/namespaces/inkscape"
   height="520"
   id="Layer_1"
   version="1.1"
   viewBox="0 0 392 520"
   width="392"
   xml:space="preserve"
   sodipodi:docname="female_fundefined.svg"
   inkscape:version="0.92.3 (2405546, 2018-03-11)"><metadata
     id="metadata13"><rdf:RDF><cc:Work
         rdf:about=""><dc:format>image/svg+xml</dc:format><dc:type
           rdf:resource="http://purl.org/dc/dcmitype/StillImage" /><dc:title /></cc:Work></rdf:RDF></metadata><defs
     id="defs11" /><sodipodi:namedview
     pagecolor="#ffffff"
     bordercolor="#666666"
     borderopacity="1"
     objecttolerance="10"
     gridtolerance="10"
     guidetolerance="10"
     inkscape:pageopacity="0"
     inkscape:pageshadow="2"
     inkscape:window-width="1920"
     inkscape:window-height="1001"
     id="namedview9"
     showgrid="false"
     inkscape:zoom="1.28"
     inkscape:cx="126.31495"
     inkscape:cy="273.13029"
     inkscape:window-x="-9"
     inkscape:window-y="-9"
     inkscape:window-maximized="1"
     inkscape:current-layer="Layer_1"
     units="in" /><g
     id="g6"
     transform="matrix(1.1716847,0,0,1.1175338,-182.8139,-23.445605)"
     style="fill:#ff826c;fill-opacity:1"><path
       d="M 190.4,148.6 161,252.9 c -6.3,22.8 20.7,31.7 27.3,10.3 L 214.6,167 H 222 L 176.8,336 H 219 v 127 c 0,23 32,23 32,0 V 336 h 10 v 127 c 0,23 31,23 31,0 V 336 h 43.4 L 289.2,167 h 8.4 l 26.3,96.2 c 6.5,21.9 33.3,12.5 27.3,-10.2 L 321.8,148.6 c -4,-11.8 -18.2,-32.6 -42,-33.6 h -47.3 c -24.6,1 -38.7,21.6 -42.1,33.6 z"
       id="path2"
       inkscape:connector-curvature="0"
       style="fill:#ff826c;fill-opacity:1" /><path
       d="m 292.6,69.2 c 0,-20.6 -16.4,-37.3 -36.6,-37.3 -20.2,0 -36.6,16.7 -36.6,37.3 0,20.6 16.4,37.3 36.6,37.3 20.2,0 36.6,-16.7 36.6,-37.3 z"
       id="path4"
       inkscape:connector-curvature="0"
       style="fill:#ff826c;fill-opacity:1" /></g><flowRoot
     xml:space="preserve"
     id="flowRoot820"
     style="font-style:normal;font-weight:normal;font-size:40px;line-height:1.25;font-family:sans-serif;letter-spacing:0px;word-spacing:0px;fill:#000000;fill-opacity:1;stroke:none"
     transform="matrix(8.1485792,0,0,7.7719819,-2774.8799,-271.55775)"><flowRegion
       id="flowRegion822"><rect
         id="rect824"
         width="127.05825"
         height="134.79224"
         x="369.02136"
         y="30.283504" /></flowRegion><flowPara
       id="flowPara826">?</flowPara></flowRoot><g
     aria-label="?"
     transform="matrix(8.1485792,0,0,7.7719819,-2774.8799,-271.55775)"
     style="font-style:normal;font-weight:normal;font-size:40px;line-height:1.25;font-family:sans-serif;letter-spacing:0px;word-spacing:0px;fill:#000000;fill-opacity:1;stroke:none"
     id="flowRoot834"><path
       d="m 376.6582,60.712891 h 3.96485 v 4.960937 h -3.96485 z m 3.84766,-2.871094 h -3.73047 v -3.007813 q 0,-1.972656 0.54688,-3.242187 0.54687,-1.269531 2.30468,-2.949219 l 1.75782,-1.738281 q 1.11328,-1.035156 1.60156,-1.953125 0.50781,-0.917969 0.50781,-1.875 0,-1.738281 -1.28906,-2.8125 -1.26953,-1.074219 -3.37891,-1.074219 -1.54297,0 -3.30078,0.683594 -1.73828,0.683594 -3.63281,1.992187 v -3.671875 q 1.83594,-1.113281 3.71094,-1.660156 1.89453,-0.546875 3.90625,-0.546875 3.59375,0 5.76171,1.894531 2.1875,1.894532 2.1875,5 0,1.484375 -0.70312,2.832032 -0.70313,1.328125 -2.46094,3.007812 l -1.71875,1.679688 q -0.91797,0.917968 -1.30859,1.445312 -0.3711,0.507813 -0.52735,0.996094 -0.11718,0.410156 -0.17578,0.996094 -0.0586,0.585937 -0.0586,1.601562 z"
       style=""
       id="path825" /></g></svg>