<?xml version="1.0" encoding="UTF-8" standalone="no"?>
<svg
   xmlns:dc="http://purl.org/dc/elements/1.1/"
   xmlns:cc="http://creativecommons.org/ns#"
   xmlns:rdf="http://www.w3.org/1999/02/22-rdf-syntax-ns#"
   xmlns:svg="http://www.w3.org/2000/svg"
   xmlns="http://www.w3.org/2000/svg"
   xmlns:sodipodi="http://sodipodi.sourceforge.net/DTD/sodipodi-0.dtd"
   xmlns:inkscape="http://www.inkscape.org/namespaces/inkscape"
   height="520"
   id="Layer_1"
   version="1.1"
   viewBox="0 0 392 520"
   width="392"
   xml:space="preserve"
   sodipodi:docname="female_f3.svg"
   inkscape:version="0.92.3 (2405546, 2018-03-11)"><metadata
     id="metadata13"><rdf:RDF><cc:Work
         rdf:about=""><dc:format>image/svg+xml</dc:format><dc:type
           rdf:resource="http://purl.org/dc/dcmitype/StillImage" /><dc:title /></cc:Work></rdf:RDF></metadata><defs
     id="defs11" /><sodipodi:namedview
     pagecolor="#ffffff"
     bordercolor="#666666"
     borderopacity="1"
     objecttolerance="10"
     gridtolerance="10"
     guidetolerance="10"
     inkscape:pageopacity="0"
     inkscape:pageshadow="2"
     inkscape:window-width="1920"
     inkscape:window-height="1001"
     id="namedview9"
     showgrid="false"
     inkscape:zoom="1.28"
     inkscape:cx="126.31495"
     inkscape:cy="273.13029"
     inkscape:window-x="-9"
     inkscape:window-y="-9"
     inkscape:window-maximized="1"
     inkscape:current-layer="Layer_1"
     units="in" /><g
     id="g6"
     transform="matrix(1.1716847,0,0,1.1175338,-182.8139,-23.445605)"
     style="fill:#ff826c;fill-opacity:1"><path
       d="M 190.4,148.6 161,252.9 c -6.3,22.8 20.7,31.7 27.3,10.3 L 214.6,167 H 222 L 176.8,336 H 219 v 127 c 0,23 32,23 32,0 V 336 h 10 v 127 c 0,23 31,23 31,0 V 336 h 43.4 L 289.2,167 h 8.4 l 26.3,96.2 c 6.5,21.9 33.3,12.5 27.3,-10.2 L 321.8,148.6 c -4,-11.8 -18.2,-32.6 -42,-33.6 h -47.3 c -24.6,1 -38.7,21.6 -42.1,33.6 z"
       id="path2"
       inkscape:connector-curvature="0"
       style="fill:#ff826c;fill-opacity:1" /><path
       d="m 292.6,69.2 c 0,-20.6 -16.4,-37.3 -36.6,-37.3 -20.2,0 -36.6,16.7 -36.6,37.3 0,20.6 16.4,37.3 36.6,37.3 20.2,0 36.6,-16.7 36.6,-37.3 z"
       id="path4"
       inkscape:connector-curvature="0"
       style="fill:#ff826c;fill-opacity:1" /></g><g
     aria-label="3"
     transform="matrix(8.1485792,0,0,7.7719819,-2800.8799,-271.55775)"
     style="font-style:normal;font-weight:normal;font-size:40px;line-height:1.25;font-family:sans-serif;letter-spacing:0px;word-spacing:0px;fill:#000000;fill-opacity:1;stroke:none"
     id="flowRoot820"><path
       d="m 385.25195,49.951172 q 2.83203,0.605469 4.41407,2.519531 1.60156,1.914063 1.60156,4.726563 0,4.316406 -2.96875,6.679687 -2.96875,2.363281 -8.4375,2.363281 -1.83594,0 -3.78906,-0.371093 -1.9336,-0.351563 -4.00391,-1.074219 v -3.808594 q 1.64062,0.957031 3.59375,1.445313 1.95312,0.488281 4.08203,0.488281 3.71094,0 5.64453,-1.464844 1.95313,-1.464844 1.95313,-4.257812 0,-2.578125 -1.81641,-4.023438 -1.79687,-1.464844 -5.01953,-1.464844 h -3.39844 v -3.242187 h 3.55469 q 2.91016,0 4.45312,-1.152344 1.54297,-1.171875 1.54297,-3.359375 0,-2.246094 -1.60156,-3.4375 -1.58203,-1.210937 -4.55078,-1.210937 -1.62109,0 -3.47656,0.351562 -1.85547,0.351563 -4.08203,1.09375 v -3.515625 q 2.24609,-0.625 4.19921,-0.9375 1.97266,-0.3125 3.71094,-0.3125 4.49219,0 7.10938,2.050781 2.61718,2.03125 2.61718,5.507813 0,2.421875 -1.38671,4.101562 -1.38672,1.660157 -3.94532,2.304688 z"
       style=""
       id="path825" /></g><flowRoot
     transform="matrix(8.1485792,0,0,7.7719819,-2774.8799,-271.55775)"
     style="font-style:normal;font-weight:normal;font-size:40px;line-height:1.25;font-family:sans-serif;letter-spacing:0px;word-spacing:0px;fill:#000000;fill-opacity:1;stroke:none"
     id="flowRoot834"
     xml:space="preserve"><flowRegion
       id="flowRegion830"><rect
         y="30.283504"
         x="369.02136"
         height="134.79224"
         width="127.05825"
         id="rect828" /></flowRegion><flowPara
       id="flowPara832" /></flowRoot></svg>