<?xml version="1.0" encoding="UTF-8" standalone="no"?>
<svg
   xmlns:dc="http://purl.org/dc/elements/1.1/"
   xmlns:cc="http://creativecommons.org/ns#"
   xmlns:rdf="http://www.w3.org/1999/02/22-rdf-syntax-ns#"
   xmlns:svg="http://www.w3.org/2000/svg"
   xmlns="http://www.w3.org/2000/svg"
   xmlns:sodipodi="http://sodipodi.sourceforge.net/DTD/sodipodi-0.dtd"
   xmlns:inkscape="http://www.inkscape.org/namespaces/inkscape"
   height="520"
   id="Layer_1"
   version="1.1"
   viewBox="0 0 392 520"
   width="392"
   xml:space="preserve"
   sodipodi:docname="male_fundefined.svg"
   inkscape:version="0.92.3 (2405546, 2018-03-11)"><metadata
     id="metadata13"><rdf:RDF><cc:Work
         rdf:about=""><dc:format>image/svg+xml</dc:format><dc:type
           rdf:resource="http://purl.org/dc/dcmitype/StillImage" /><dc:title /></cc:Work></rdf:RDF></metadata><defs
     id="defs11" /><sodipodi:namedview
     pagecolor="#ffffff"
     bordercolor="#666666"
     borderopacity="1"
     objecttolerance="10"
     gridtolerance="10"
     guidetolerance="10"
     inkscape:pageopacity="0"
     inkscape:pageshadow="2"
     inkscape:window-width="1920"
     inkscape:window-height="1001"
     id="namedview9"
     showgrid="false"
     inkscape:zoom="0.65186406"
     inkscape:cx="-335.38895"
     inkscape:cy="250.89563"
     inkscape:window-x="-9"
     inkscape:window-y="-9"
     inkscape:window-maximized="1"
     inkscape:current-layer="Layer_1" /><path
     d="m 101.62652,95.088574 c 23.0938,0.112106 41.81547,-18.609566 41.81547,-41.815476 0,-23.093799 -18.72167,-41.815471 -41.81547,-41.815471 -23.093804,0 -41.815476,18.721672 -41.815476,41.815471 0,23.093804 18.721672,41.815476 41.815476,41.815476 z"
     id="path2"
     inkscape:connector-curvature="0"
     style="stroke-width:1.12105823;fill:#6b9bc3;fill-opacity:1" /><g
     id="g6"
     transform="matrix(1.1210582,0,0,1.1210582,-185.36438,-24.416235)"><path
       d="M 293.4,115 H 256 218.6 C 190.4,115 172,139.8 172,163.4 V 277 c 0,22 31,22 31,0 V 172 h 6 v 285.6 c 0,30.4 42,29.4 43,0 V 293 h 7 1 v 164.7 c 1.7,31.2 43,28.2 43,-0.1 V 172 h 5 v 105 c 0,22 32,22 32,0 V 163.4 C 340,139.9 321.5,115 293.4,115 Z"
       id="path4"
       inkscape:connector-curvature="0"
       style="fill:#6b9bc3;fill-opacity:1" /></g><g
     aria-label="?"
     transform="matrix(7.9514801,0,0,7.583992,-2696.3656,-266.96334)"
     style="font-style:normal;font-weight:normal;font-size:40px;line-height:1.25;font-family:sans-serif;letter-spacing:0px;word-spacing:0px;fill:#000000;fill-opacity:1;stroke:none"
     id="flowRoot834"><path
       d="m 376.6582,60.712891 h 3.96485 v 4.960937 h -3.96485 z m 3.84766,-2.871094 h -3.73047 v -3.007813 q 0,-1.972656 0.54688,-3.242187 0.54687,-1.269531 2.30468,-2.949219 l 1.75782,-1.738281 q 1.11328,-1.035156 1.60156,-1.953125 0.50781,-0.917969 0.50781,-1.875 0,-1.738281 -1.28906,-2.8125 -1.26953,-1.074219 -3.37891,-1.074219 -1.54297,0 -3.30078,0.683594 -1.73828,0.683594 -3.63281,1.992187 v -3.671875 q 1.83594,-1.113281 3.71094,-1.660156 1.89453,-0.546875 3.90625,-0.546875 3.59375,0 5.76171,1.894531 2.1875,1.894532 2.1875,5 0,1.484375 -0.70312,2.832032 -0.70313,1.328125 -2.46094,3.007812 l -1.71875,1.679688 q -0.91797,0.917968 -1.30859,1.445312 -0.3711,0.507813 -0.52735,0.996094 -0.11718,0.410156 -0.17578,0.996094 -0.0586,0.585937 -0.0586,1.601562 z"
       style=""
       id="path818" /></g></svg>