<?xml version="1.0" encoding="UTF-8" standalone="no"?>
<svg
   xmlns:dc="http://purl.org/dc/elements/1.1/"
   xmlns:cc="http://creativecommons.org/ns#"
   xmlns:rdf="http://www.w3.org/1999/02/22-rdf-syntax-ns#"
   xmlns:svg="http://www.w3.org/2000/svg"
   xmlns="http://www.w3.org/2000/svg"
   xmlns:sodipodi="http://sodipodi.sourceforge.net/DTD/sodipodi-0.dtd"
   xmlns:inkscape="http://www.inkscape.org/namespaces/inkscape"
   height="520"
   id="Layer_1"
   version="1.1"
   viewBox="0 0 392 520"
   width="392"
   xml:space="preserve"
   sodipodi:docname="male_f2.svg"
   inkscape:version="0.92.3 (2405546, 2018-03-11)"><metadata
     id="metadata13"><rdf:RDF><cc:Work
         rdf:about=""><dc:format>image/svg+xml</dc:format><dc:type
           rdf:resource="http://purl.org/dc/dcmitype/StillImage" /><dc:title /></cc:Work></rdf:RDF></metadata><defs
     id="defs11" /><sodipodi:namedview
     pagecolor="#ffffff"
     bordercolor="#666666"
     borderopacity="1"
     objecttolerance="10"
     gridtolerance="10"
     guidetolerance="10"
     inkscape:pageopacity="0"
     inkscape:pageshadow="2"
     inkscape:window-width="1920"
     inkscape:window-height="1001"
     id="namedview9"
     showgrid="false"
     inkscape:zoom="0.65186406"
     inkscape:cx="-335.38895"
     inkscape:cy="250.89563"
     inkscape:window-x="-9"
     inkscape:window-y="-9"
     inkscape:window-maximized="1"
     inkscape:current-layer="Layer_1" /><path
     d="m 101.62652,95.088574 c 23.0938,0.112106 41.81547,-18.609566 41.81547,-41.815476 0,-23.093799 -18.72167,-41.815471 -41.81547,-41.815471 -23.093804,0 -41.815476,18.721672 -41.815476,41.815471 0,23.093804 18.721672,41.815476 41.815476,41.815476 z"
     id="path2"
     inkscape:connector-curvature="0"
     style="stroke-width:1.12105823;fill:#6b9bc3;fill-opacity:1" /><g
     id="g6"
     transform="matrix(1.1210582,0,0,1.1210582,-185.36438,-24.416235)"><path
       d="M 293.4,115 H 256 218.6 C 190.4,115 172,139.8 172,163.4 V 277 c 0,22 31,22 31,0 V 172 h 6 v 285.6 c 0,30.4 42,29.4 43,0 V 293 h 7 1 v 164.7 c 1.7,31.2 43,28.2 43,-0.1 V 172 h 5 v 105 c 0,22 32,22 32,0 V 163.4 C 340,139.9 321.5,115 293.4,115 Z"
       id="path4"
       inkscape:connector-curvature="0"
       style="fill:#6b9bc3;fill-opacity:1" /></g><g
     aria-label="2"
     transform="matrix(7.9514801,0,0,7.583992,-2714.3656,-266.96334)"
     style="font-style:normal;font-weight:normal;font-size:40px;line-height:1.25;font-family:sans-serif;letter-spacing:0px;word-spacing:0px;fill:#000000;fill-opacity:1;stroke:none"
     id="flowRoot834"><path
       d="m 376.69727,62.353516 h 13.76953 v 3.320312 h -18.51563 v -3.320312 q 2.2461,-2.324219 6.11328,-6.230469 3.88672,-3.925781 4.88282,-5.058594 1.89453,-2.128906 2.63671,-3.59375 0.76172,-1.484375 0.76172,-2.910156 0,-2.324219 -1.64062,-3.789063 -1.6211,-1.464843 -4.23828,-1.464843 -1.85547,0 -3.92578,0.644531 -2.05079,0.644531 -4.39454,1.953125 v -3.984375 q 2.38282,-0.957031 4.45313,-1.445313 2.07031,-0.488281 3.78906,-0.488281 4.53125,0 7.22656,2.265625 2.69532,2.265625 2.69532,6.054688 0,1.796875 -0.6836,3.417968 -0.66406,1.601563 -2.4414,3.789063 -0.48828,0.566406 -3.10547,3.28125 -2.61719,2.695312 -7.38281,7.558594 z"
       style=""
       id="path818" /></g></svg>