<?xml version="1.0" encoding="UTF-8" standalone="no"?>
<svg
                   xmlns:dc="http://purl.org/dc/elements/1.1/"
                   xmlns:cc="http://creativecommons.org/ns#"
                   xmlns:rdf="http://www.w3.org/1999/02/22-rdf-syntax-ns#"
                   xmlns:svg="http://www.w3.org/2000/svg"
                   xmlns="http://www.w3.org/2000/svg"
                   xmlns:sodipodi="http://sodipodi.sourceforge.net/DTD/sodipodi-0.dtd"
                   xmlns:inkscape="http://www.inkscape.org/namespaces/inkscape"
                   height="520"
                   id="Layer_1"
                   version="1.1"
                   viewBox="0 0 392 520"
                   width="392"
                   xml:space="preserve"
                   sodipodi:docname="icon_female_template.svg"
                   inkscape:version="0.92.3 (2405546, 2018-03-11)"><metadata
                   id="metadata13"><rdf:RDF><cc:Work
                   rdf:about=""><dc:format>image/svg+xml</dc:format><dc:type
                   rdf:resource="http://purl.org/dc/dcmitype/StillImage" /><dc:title /></cc:Work></rdf:RDF></metadata><defs
                   id="defs11" /><sodipodi:namedview
                   pagecolor="#ffffff"
                   bordercolor="#666666"
                   borderopacity="1"
                   objecttolerance="10"
                   gridtolerance="10"
                   guidetolerance="10"
                   inkscape:pageopacity="0"
                   inkscape:pageshadow="2"
                   inkscape:window-width="1920"
                   inkscape:window-height="1137"
                   id="namedview9"
                   showgrid="false"
                   inkscape:zoom="1.28"
                   inkscape:cx="-42.044425"
                   inkscape:cy="273.13029"
                   inkscape:window-x="1912"
                   inkscape:window-y="-8"
                   inkscape:window-maximized="1"
                   inkscape:current-layer="Layer_1"
                   units="in" /><g
                   id="g6"
                   transform="matrix(1.1716847,0,0,1.1175338,-182.8139,-23.445605)"
                   style="fill:#FF6347;fill-opacity:1"><path
                   d="M 190.4,148.6 161,252.9 c -6.3,22.8 20.7,31.7 27.3,10.3 L 214.6,167 H 222 L 176.8,336 H 219 v 127 c 0,23 32,23 32,0 V 336 h 10 v 127 c 0,23 31,23 31,0 V 336 h 43.4 L 289.2,167 h 8.4 l 26.3,96.2 c 6.5,21.9 33.3,12.5 27.3,-10.2 L 321.8,148.6 c -4,-11.8 -18.2,-32.6 -42,-33.6 h -47.3 c -24.6,1 -38.7,21.6 -42.1,33.6 z"
                   id="path2"
                   inkscape:connector-curvature="0"
                   style="fill:#FF6347;fill-opacity:1" /><path
                   d="m 292.6,69.2 c 0,-20.6 -16.4,-37.3 -36.6,-37.3 -20.2,0 -36.6,16.7 -36.6,37.3 0,20.6 16.4,37.3 36.6,37.3 20.2,0 36.6,-16.7 36.6,-37.3 z"
                   id="path4"
                   inkscape:connector-curvature="0"
                   style="fill:#FF6347;fill-opacity:1" /></g><flowRoot
                   transform="matrix(8.1485792,0,0,7.7719819,-2774.8799,-271.55775)"
                   style="font-style:normal;font-weight:normal;font-size:40px;line-height:1.25;font-family:sans-serif;letter-spacing:0px;word-spacing:0px;fill:#000000;fill-opacity:1;stroke:none"
                   id="flowRoot834"
                   xml:space="preserve"><flowRegion
                   id="flowRegion830"><rect
                   y="30.283504"
                   x="369.02136"
                   height="134.79224"
                   width="127.05825"
                   id="rect828" /></flowRegion><flowPara
                   id="flowPara832" /></flowRoot><text
                    xml:space="preserve"
                    style="font-style:normal;font-weight:normal;font-size:216.79119873px;line-height:1.25;font-family:sans-serif;letter-spacing:0px;word-spacing:0px;fill:#000000;fill-opacity:1;stroke:none;stroke-width:5.41978025"
                    x="232.19034"
                    y="204.08978"
                    id="text4748"><tspan
                    sodipodi:role="line"
                    id="tspan4746"
                    x="232.19034"
                    y="204.08978"
                    style="stroke-width:5.41978025">3</tspan></text></svg>