<?xml version="1.0" encoding="UTF-8" standalone="no"?>
<svg
 xmlns:dc="http://purl.org/dc/elements/1.1/"
   xmlns:cc="http://creativecommons.org/ns#"
                xmlns:rdf="http://www.w3.org/1999/02/22-rdf-syntax-ns#"
                xmlns:svg="http://www.w3.org/2000/svg"
                xmlns="http://www.w3.org/2000/svg"
                xmlns:sodipodi="http://sodipodi.sourceforge.net/DTD/sodipodi-0.dtd"
                xmlns:inkscape="http://www.inkscape.org/namespaces/inkscape"
                height="520"
                id="Layer_1"
                version="1.1"
                viewBox="0 0 392 520"
                width="392"
                xml:space="preserve"
                sodipodi:docname="icon_male_template.svg"
                inkscape:version="0.92.3 (2405546, 2018-03-11)"><metadata
                id="metadata13"><rdf:RDF><cc:Work
                rdf:about=""><dc:format>image/svg+xml</dc:format><dc:type
                rdf:resource="http://purl.org/dc/dcmitype/StillImage" /><dc:title /></cc:Work></rdf:RDF></metadata><defs
                id="defs11" /><sodipodi:namedview
                pagecolor="#ffffff"
                bordercolor="#666666"
                borderopacity="1"
                objecttolerance="10"
                gridtolerance="10"
                guidetolerance="10"
                inkscape:pageopacity="0"
                inkscape:pageshadow="2"
                inkscape:window-width="1920"
                inkscape:window-height="1137"
                id="namedview9"
                showgrid="false"
                inkscape:zoom="0.65186406"
                inkscape:cx="-382.94488"
                inkscape:cy="250.89563"
                inkscape:window-x="1912"
                inkscape:window-y="-8"
                inkscape:window-maximized="1"
                inkscape:current-layer="Layer_1" /><path
                d="m 101.62652,95.088574 c 23.0938,0.112106 41.81547,-18.609566 41.81547,-41.815476 0,-23.093799 -18.72167,-41.815471 -41.81547,-41.815471 -23.093804,0 -41.815476,18.721672 -41.815476,41.815471 0,23.093804 18.721672,41.815476 41.815476,41.815476 z"
                id="path2"
                inkscape:connector-curvature="0"
                style="stroke-width:1.12105823;fill:#808080 ;fill-opacity:1" /><g
                id="g6"
                transform="matrix(1.1210582,0,0,1.1210582,-185.36438,-24.416235)"><path
                d="M 293.4,115 H 256 218.6 C 190.4,115 172,139.8 172,163.4 V 277 c 0,22 31,22 31,0 V 172 h 6 v 285.6 c 0,30.4 42,29.4 43,0 V 293 h 7 1 v 164.7 c 1.7,31.2 43,28.2 43,-0.1 V 172 h 5 v 105 c 0,22 32,22 32,0 V 163.4 C 340,139.9 321.5,115 293.4,115 Z"
                id="path4"
                inkscape:connector-curvature="0"
                style="fill:#808080 ;fill-opacity:1" /></g><text
     xml:space="preserve"
        style="font-style:normal;font-weight:normal;font-size:216.79119873px;line-height:1.25;font-family:sans-serif;letter-spacing:0px;word-spacing:0px;fill:#000000;fill-opacity:1;stroke:none;stroke-width:5.41978025"
        x="232.19034"
        y="204.08978"
        id="text4748"><tspan
        sodipodi:role="line"
        id="tspan4746"
        x="232.19034"
        y="204.08978"
        style="stroke-width:5.41978025">5</tspan></text></svg>